<svg width="40" height="40" viewBox="0 0 40 40" fill="none" xmlns="http://www.w3.org/2000/svg">
<rect width="40" height="40" rx="12" fill="#AC1991"/>
<path fill-rule="evenodd" clip-rule="evenodd" d="M12.3823 29.6982C12.0924 29.9149 11.7357 30.0209 11.3777 29.9966C11.0198 29.9723 10.6847 29.8193 10.4342 29.5658C10.2964 29.4301 10.1872 29.2681 10.1127 29.0891C10.0382 28.9101 9.99988 28.7176 10 28.5226C10.0001 28.3277 10.0387 28.134 10.1134 27.9528C10.1881 27.7715 10.2976 27.6062 10.4356 27.4662L24.9191 12.9816L18.6961 12.9992L18.4758 12.9844C18.1227 12.9321 17.8016 12.7561 17.5693 12.4876C17.3371 12.2192 17.2087 11.8756 17.2071 11.5178C17.2064 11.3237 17.2444 11.1308 17.3189 10.9504C17.3933 10.7699 17.5029 10.6056 17.641 10.467C17.7791 10.3284 17.9431 10.2183 18.1232 10.1432C18.3034 10.0681 18.4962 10.0294 18.6903 10.0295L28.4818 10.0003C28.6808 9.9965 28.8779 10.032 29.062 10.1047C29.246 10.1775 29.4134 10.2861 29.5544 10.4242C29.6954 10.5624 29.8073 10.7274 29.8838 10.9099C29.9603 11.0924 29.9998 11.2888 30 11.4878L29.9718 21.3093L29.9535 21.5298C29.9002 21.8807 29.7215 22.2023 29.4505 22.4346C29.1796 22.6669 28.8351 22.7941 28.481 22.7926C28.0852 22.7909 27.7083 22.6339 27.4314 22.3555C27.1544 22.0771 26.9994 21.6994 26.9997 21.3035L27.0185 15.0811L12.5337 29.567L12.3823 29.6982Z" fill="white"/>
</svg>
