<svg width="71" height="48" viewBox="0 0 71 48" fill="none" xmlns="http://www.w3.org/2000/svg">
<path d="M16.2896 6.12491C20.3237 4.48627 24.9047 4.36553 29.0242 5.72819C30.99 6.38364 32.819 7.36683 34.4942 8.60875C33.178 9.85066 32.0327 11.2478 31.0071 12.7485C28.8875 11.1443 26.2551 10.2474 23.5885 10.1784C20.6997 10.0749 17.7767 10.9718 15.4349 12.6795C12.8709 14.5424 11.0077 17.3367 10.2556 20.407C9.52059 23.391 9.777 26.6338 11.0419 29.4281C12.2726 32.1879 14.4606 34.4993 17.1443 35.8792C19.4861 37.0866 22.1869 37.5523 24.8022 37.2419C27.9986 36.8624 31.0413 35.2582 33.178 32.8434C35.8616 29.8593 37.1607 25.5989 36.4257 21.6316C36.3573 21.1314 36.1693 20.6312 36.3232 20.1482C36.9727 18.0956 38.1351 16.2155 39.6735 14.7148C41.8273 18.7683 42.4768 23.6325 41.417 28.1172C40.2547 33.2229 36.8531 37.7593 32.3233 40.2949C29.161 42.106 25.4688 42.934 21.8621 42.6753C18.1528 42.4165 14.5461 41.0021 11.6231 38.6735C8.37533 36.0862 5.98225 32.4122 4.99082 28.3587C3.87975 23.9085 4.46093 19.0616 6.56342 14.9908C8.63173 11.0063 12.1359 7.79805 16.2896 6.12491ZM36.3403 8.81573C39.8615 6.00417 44.4084 4.55526 48.8698 4.83124C53.5021 5.05548 58.0319 7.14259 61.2454 10.5061C64.6641 14.0249 66.6128 18.9236 66.5615 23.8567C66.5957 29.8766 63.536 35.8102 58.6472 39.2427C53.7756 42.7787 47.1775 43.6584 41.5196 41.6403C39.7077 41.0021 38.0154 40.0534 36.5112 38.8805C37.8274 37.6558 39.041 36.3104 39.9812 34.758C42.1178 36.3277 44.699 37.2591 47.3314 37.3281C50.3398 37.4488 53.3995 36.5002 55.8097 34.689C58.2199 32.8951 60.0318 30.2561 60.801 27.3238C61.6557 24.1155 61.2967 20.614 59.8267 17.6472C58.5447 15.0598 56.408 12.9037 53.844 11.61C51.4851 10.4026 48.7501 9.93691 46.1177 10.2819C43.246 10.6441 40.5282 12.024 38.4769 14.0766C36.2377 16.3017 34.8189 19.3203 34.5283 22.4768C34.3745 23.9775 34.5283 25.4954 34.7335 26.9788C34.3403 29.2556 32.9728 31.2738 31.2977 32.8089C29.4516 29.3591 28.6995 25.3401 29.1952 21.4419C29.8276 16.4915 32.4429 11.8515 36.3403 8.81573Z" fill="#131416"/>
<path d="M64.3438 8.95568C63.1106 8.95568 62.125 7.96668 62.125 6.71428C62.125 5.46685 63.1057 4.47784 64.3438 4.47784C65.5818 4.47784 66.5625 5.46188 66.5625 6.71428C66.5625 7.96668 65.5818 8.95568 64.3438 8.95568ZM64.3438 8.54816C65.3487 8.54816 66.1353 7.73807 66.1353 6.71428C66.1353 5.69049 65.3487 4.8804 64.3438 4.8804C63.3436 4.8804 62.5522 5.69049 62.5522 6.71428C62.5522 7.73807 63.3436 8.54816 64.3438 8.54816ZM63.8777 7.77783H63.5087V5.54636H64.4894C64.9312 5.54636 65.2371 5.82965 65.2371 6.22723C65.2371 6.58009 65.0477 6.81865 64.7176 6.88325L65.3439 7.77783H64.8875L64.3292 6.93295H63.8777V7.77783ZM63.8777 5.87437V6.62979H64.4117C64.6836 6.62979 64.839 6.49064 64.839 6.24214C64.839 6.00359 64.6885 5.87437 64.4166 5.87437H63.8777Z" fill="#131416"/>
</svg>
