<svg width="40" height="40" viewBox="0 0 40 40" fill="none" xmlns="http://www.w3.org/2000/svg">
<path d="M35 13.8333C35 12.5 34.6667 11.3333 34.3333 10.1667C33.5 8.16667 32 6.5 30 5.83333C28.8333 5.33333 27.6667 5.16667 26.3333 5.16667C24.6667 5 24 5 20 5C16 5 15.3333 5 13.8333 5.16667C12.5 5.16667 11.3333 5.5 10.1667 5.83333C8.16667 6.5 6.5 8.16667 5.83333 10.1667C5.33333 11.3333 5.16667 12.6667 5 13.8333C5 15.5 5 16 5 20C5 24.1667 5 24.6667 5 26.1667C5 27.5 5.33333 28.6667 5.66667 29.8333C6.5 31.8333 8 33.5 10 34.1667C11.3333 34.6667 12.5 35 13.8333 35C15.3333 35 16 35 20 35C24 35 24.6667 35 26.1667 34.8333C27.5 34.8333 28.6667 34.5 29.8333 34.1667C31.8333 33.3333 33.5 31.8333 34.1667 29.8333C34.6667 28.6667 34.8333 27.5 34.8333 26.1667C34.8333 24.5 35 24 35 20C35 16 35 15.5 35 13.8333ZM24 20H21.5V29.3333H18V20H15.6667V16.8333H18V14.8333C18 12.1667 18.6667 10.6667 21.8333 10.6667H24.3333V13.8333H22.6667C21.5 13.8333 21.3333 14.3333 21.3333 15.1667V16.8333H24.1667L24 20Z" fill="white"/>
</svg>
