<svg width="40" height="40" viewBox="0 0 40 40" fill="none" xmlns="http://www.w3.org/2000/svg">
<path d="M34.9167 13.8382C34.8999 12.5759 34.6636 11.3261 34.2183 10.1448C33.8323 9.14843 33.2426 8.24351 32.487 7.4879C31.7313 6.73228 30.8264 6.1426 29.83 5.75651C28.6639 5.31877 27.432 5.08208 26.1867 5.05651C24.5833 4.98484 24.075 4.96484 20.005 4.96484C15.935 4.96484 15.4133 4.96484 13.8217 5.05651C12.5769 5.08227 11.3456 5.31896 10.18 5.75651C9.18343 6.14233 8.27837 6.73192 7.52272 7.48757C6.76707 8.24321 6.17748 9.14827 5.79167 10.1448C5.35305 11.3101 5.11687 12.5417 5.09333 13.7865C5.02167 15.3915 5 15.8998 5 19.9698C5 24.0398 5 24.5598 5.09333 26.1532C5.11833 27.3998 5.35333 28.6298 5.79167 29.7982C6.17813 30.7944 6.76816 31.6991 7.52406 32.4545C8.27996 33.2098 9.18511 33.7991 10.1817 34.1849C11.3441 34.6402 12.5756 34.8938 13.8233 34.9348C15.4283 35.0065 15.9367 35.0282 20.0067 35.0282C24.0767 35.0282 24.5983 35.0282 26.19 34.9348C27.4353 34.9103 28.6673 34.6742 29.8333 34.2365C30.8295 33.85 31.7342 33.2601 32.4897 32.5046C33.2453 31.749 33.8351 30.8443 34.2217 29.8482C34.66 28.6815 34.895 27.4515 34.92 26.2032C34.9917 24.5998 35.0133 24.0915 35.0133 20.0198C35.01 15.9498 35.01 15.4332 34.9167 13.8382ZM19.995 27.6665C15.7383 27.6665 12.29 24.2182 12.29 19.9615C12.29 15.7048 15.7383 12.2565 19.995 12.2565C22.0385 12.2565 23.9983 13.0683 25.4433 14.5133C26.8882 15.9582 27.7 17.918 27.7 19.9615C27.7 22.005 26.8882 23.9648 25.4433 25.4098C23.9983 26.8547 22.0385 27.6665 19.995 27.6665ZM28.0067 13.7682C27.7707 13.7684 27.5369 13.7221 27.3189 13.6319C27.1008 13.5416 26.9026 13.4093 26.7357 13.2424C26.5689 13.0756 26.4365 12.8774 26.3463 12.6593C26.2561 12.4412 26.2098 12.2075 26.21 11.9715C26.21 11.7357 26.2565 11.5022 26.3467 11.2843C26.4369 11.0664 26.5692 10.8684 26.736 10.7017C26.9027 10.5349 27.1007 10.4026 27.3186 10.3124C27.5365 10.2221 27.77 10.1757 28.0058 10.1757C28.2417 10.1757 28.4752 10.2221 28.6931 10.3124C28.911 10.4026 29.1089 10.5349 29.2757 10.7017C29.4424 10.8684 29.5747 11.0664 29.665 11.2843C29.7552 11.5022 29.8017 11.7357 29.8017 11.9715C29.8017 12.9648 28.9983 13.7682 28.0067 13.7682Z" fill="white"/>
<path d="M19.995 24.9662C22.7591 24.9662 25 22.7253 25 19.9612C25 17.197 22.7591 14.9562 19.995 14.9562C17.2308 14.9562 14.99 17.197 14.99 19.9612C14.99 22.7253 17.2308 24.9662 19.995 24.9662Z" fill="white"/>
</svg>
