<svg width="40" height="40" viewBox="0 0 40 40" fill="none" xmlns="http://www.w3.org/2000/svg">
<path d="M20 5C23.9998 5 24.6666 5.00035 26.333 5.16699C27.6663 5.16699 28.8334 5.33305 30 5.83301C32 6.49967 33.4997 8.16699 34.333 10.167C34.6663 11.3335 34.9999 12.4999 35 13.833V20C35 22.4306 34.9389 23.5689 34.8906 24.4619C34.8595 25.0384 34.833 25.5132 34.833 26.167C34.833 27.5 34.6668 28.6666 34.167 29.833C33.5003 31.833 31.833 33.3337 29.833 34.167C28.6666 34.5003 27.5 34.833 26.167 34.833C24.667 34.9997 24 35 20 35H13.833C12.4998 34.9999 11.3332 34.6669 10 34.167C8 33.5003 6.50033 31.833 5.66699 29.833C5.33371 28.6665 5.00005 27.5001 5 26.167V13.833C5.01032 13.7608 5.02085 13.6877 5.03125 13.6143C5.18876 12.5019 5.36417 11.2611 5.83301 10.167C6.49967 8.16699 8.16699 6.49967 10.167 5.83301C11.3334 5.49974 12.5 5.16705 13.833 5.16699C15.333 5.00033 16 5 20 5ZM20.4111 19.124L20.4072 23.5752C20.4071 24.7649 19.6325 25.7731 18.5586 26.1279C18.2469 26.2309 17.9101 26.28 17.5596 26.2607C17.1125 26.2361 16.6933 26.1016 16.3291 25.8838C15.5536 25.42 15.0269 24.5778 15.0127 23.6152C14.9904 22.111 16.2068 20.8849 17.71 20.8848C18.0067 20.8848 18.2918 20.9335 18.5586 21.0215V18.002C18.2772 17.9603 17.9908 17.9385 17.7012 17.9385C16.0558 17.9385 14.517 18.6224 13.417 19.8545C12.5855 20.7857 12.0867 21.974 12.0098 23.2197C11.909 24.8562 12.5077 26.4118 13.6689 27.5596C13.8396 27.7281 14.0187 27.885 14.2061 28.0293C15.2017 28.7955 16.4191 29.2109 17.7012 29.2109C17.9908 29.2109 18.2772 29.1891 18.5586 29.1475C19.7563 28.9701 20.8613 28.4217 21.7334 27.5596C22.8049 26.5005 23.3969 25.0942 23.4033 23.5977L23.3887 16.9521C23.8998 17.3464 24.4588 17.6725 25.0586 17.9258C25.9915 18.3194 26.981 18.5189 27.999 18.5186V15.5586C27.999 15.5592 27.9915 15.5596 27.9902 15.5596C26.9494 15.5596 25.989 15.2144 25.2178 14.6328C24.3333 13.966 23.6971 12.9877 23.4727 11.8604C23.4171 11.5818 23.3876 11.2936 23.3848 10.999H20.4111V19.124Z" fill="white"/>
</svg>
