<svg width="40" height="40" viewBox="0 0 40 40" fill="none" xmlns="http://www.w3.org/2000/svg">
<path d="M20 5C23.9998 5 24.6666 5.00035 26.333 5.16699C27.6663 5.16699 28.8334 5.33305 30 5.83301C32 6.49967 33.4997 8.16699 34.333 10.167C34.6663 11.3335 34.9999 12.4999 35 13.833V20C35 22.4306 34.9389 23.5689 34.8906 24.4619C34.8595 25.0384 34.833 25.5132 34.833 26.167C34.833 27.5 34.6668 28.6666 34.167 29.833C33.5003 31.833 31.833 33.3337 29.833 34.167C28.6666 34.5003 27.5 34.833 26.167 34.833C24.667 34.9997 24 35 20 35H13.833C12.4998 34.9999 11.3332 34.6669 10 34.167C8 33.5003 6.50033 31.833 5.66699 29.833C5.33371 28.6665 5.00005 27.5001 5 26.167V13.833C5.01032 13.7608 5.02085 13.6877 5.03125 13.6143C5.18876 12.5019 5.36417 11.2611 5.83301 10.167C6.49967 8.16699 8.16699 6.49967 10.167 5.83301C11.3334 5.49974 12.5 5.16705 13.833 5.16699C15.333 5.00033 16 5 20 5ZM28.5449 11.9307C28.0122 10.8549 26.4506 10.6857 25.8018 11.5557L25.5303 11.9287C24.8543 11.645 24.229 11.6673 23.5254 11.5215C23.0052 11.4135 22.4903 11.1352 21.9629 11.1143C21.1651 11.083 21.2597 11.5775 21.0713 12.1973C20.8522 12.9186 20.8216 13.6236 20.6729 14.3428C20.5714 14.8332 20.4414 15.538 20.2305 16.0732L20.0215 16.9229C19.0809 16.8574 17.9813 17.0575 17.0713 17.2363C16.1422 17.4191 15.0821 17.8192 14.4561 18.5537L14.0137 18.9609C13.5554 18.6744 13.1784 18.4622 12.6553 18.3242C11.3183 17.9715 10.578 18.8503 10.0322 19.9385C9.78149 20.4378 9.8669 21.0555 10.1396 21.5508C10.2919 21.8262 10.9678 22.5906 11.1611 22.6982C11.1613 22.8925 11.2556 23.5871 11.3018 23.7822C11.4461 24.3906 11.5537 25.0084 11.8174 25.5801C12.1387 26.2772 12.6082 26.8907 13.1768 27.4043C14.4175 28.5259 16.0644 29.2878 17.6904 29.6416C18.7468 29.8714 19.9306 29.8841 21.0068 29.8613C21.7219 29.846 22.465 29.8164 23.1631 29.6436C23.3682 29.5931 23.5688 29.5226 23.7637 29.4404L24.1035 29.3213C24.5792 29.0838 25.1609 28.9149 25.6416 28.6494C26.1054 28.3928 26.615 28.1737 27.0605 27.8945C27.591 27.5627 28.1123 26.924 28.5166 26.4561C29.4097 25.4212 29.6567 23.983 29.6406 22.6973L30.0137 22.4258C30.0156 22.462 30.3746 22.0966 30.4814 21.9492C31.1452 21.0319 31.0707 19.662 30.1816 18.9697C29.3502 18.3228 28.238 18.0559 27.3301 18.6895L27.0586 18.9268C26.6692 18.5112 25.9691 18.3957 25.4873 18.1113C24.9821 17.8128 24.4327 17.6385 23.8916 17.4404C23.4772 17.2888 23.0466 17.1193 22.6094 17.0586C22.209 17.0034 21.0668 16.958 21.042 16.957C21.0796 16.6263 21.2223 15.9641 21.2852 15.665C21.3659 15.2824 21.4171 14.9084 21.5137 14.5381C21.7158 13.7631 21.8331 12.9607 22.0693 12.2061C22.6503 12.2944 23.1913 12.3391 23.7637 12.4385C24.223 12.5185 25.0045 12.5743 25.3594 12.8809L25.4961 13.4238C25.6236 13.9741 26.1898 14.3932 26.8193 14.4434C28.1032 14.5453 29.1349 13.1235 28.5449 11.9307ZM24.1123 25.9102C24.2971 25.994 24.4023 26.2217 24.3564 26.416C24.2455 26.8841 23.4712 27.0582 23.0996 27.2109C22.4247 27.4885 21.8436 27.6889 20.9229 27.6572C20.2636 27.635 19.5906 27.7248 18.9375 27.6172C18.5027 27.545 18.1044 27.4497 17.6924 27.2793C17.3601 27.1418 16.9963 26.8485 16.6973 26.6045C16.4597 26.4112 16.3344 25.9816 16.7314 25.9072C17.0407 25.8495 17.1842 26.0252 17.3809 26.209C17.7583 26.5633 18.3606 26.7436 18.8545 26.8252C19.4728 26.9279 20.1032 26.9515 20.7393 26.9775C21.1064 26.9928 21.4338 26.9382 21.792 26.8594C22.1324 26.7842 22.5062 26.689 22.8965 26.54C23.1185 26.4555 23.323 26.3486 23.5068 26.1973C23.6768 26.0577 23.8621 25.7963 24.1123 25.9102ZM23.6641 20.6543C24.4371 20.5738 25.1764 20.8655 25.5088 21.6055C25.6915 22.0109 25.6446 22.4254 25.5352 22.8496C25.4216 23.2882 25.0647 23.5002 24.6631 23.7061C23.2943 24.4086 21.838 22.4476 22.7266 21.2607C22.9343 20.9834 23.3253 20.6897 23.6641 20.6543ZM17.0029 20.6426C17.4464 20.6802 17.7864 20.9219 18.1045 21.2236C18.4335 21.5352 18.4451 21.9498 18.4307 22.4004C18.3818 23.938 15.9602 24.2618 15.3535 22.9092C15.211 22.5927 15.1439 22.1085 15.2773 21.7949C15.582 21.08 16.1948 20.5751 17.0029 20.6426Z" fill="white"/>
</svg>
