<svg width="40" height="40" viewBox="0 0 40 40" fill="none" xmlns="http://www.w3.org/2000/svg">
<path d="M20 5C23.9998 5 24.6666 5.00035 26.333 5.16699C27.6663 5.16699 28.8334 5.33305 30 5.83301C32 6.49967 33.4997 8.16699 34.333 10.167C34.6663 11.3335 34.9999 12.4999 35 13.833V20C35 24 34.833 24.5003 34.833 26.167C34.833 27.5 34.6668 28.6666 34.167 29.833C33.5003 31.833 31.833 33.3337 29.833 34.167C28.6666 34.5003 27.5 34.833 26.167 34.833C24.667 34.9997 24 35 20 35H13.833C12.4998 34.9999 11.3332 34.6669 10 34.167C8 33.5003 6.50033 31.833 5.66699 29.833C5.33371 28.6665 5.00005 27.5001 5 26.167V13.833C5.16663 12.6665 5.33318 11.3335 5.83301 10.167C6.49967 8.16699 8.16699 6.49967 10.167 5.83301C11.3334 5.49974 12.5 5.16705 13.833 5.16699C15.333 5.00033 16 5 20 5ZM30.2266 13.3555C30.375 11.9978 29.6747 10.2799 27.2988 11.3193C24.6109 12.7587 21.3322 16.0985 19.7793 19.2949C18.2264 16.0983 14.9468 12.7586 12.2588 11.3193C9.88293 10.2799 9.1826 11.9978 9.33105 13.3555C9.43004 14.7908 9.67111 17.8522 9.84082 18.6162C10.053 19.5708 11.3467 22.0107 15.3984 21.7773C14.0762 21.8693 11.3681 22.4815 11.1133 24.1953C10.7951 26.3379 14.1049 29.0113 14.8262 29.2871C14.8463 29.2948 14.8673 29.3023 14.8887 29.3105C15.6329 29.5978 17.1122 30.1691 18.4316 27.6748C19.3981 25.8476 19.7202 24.6573 19.7793 24.1582C19.8384 24.6573 20.1595 25.8476 21.126 27.6748C22.4455 30.1694 23.9257 29.5978 24.6699 29.3105C24.6913 29.3023 24.7123 29.2948 24.7324 29.2871C25.4537 29.0113 28.7625 26.3379 28.4443 24.1953C28.1895 22.4817 25.4825 21.8694 24.1602 21.7773C28.2116 22.0105 29.5056 19.5708 29.7178 18.6162C29.8875 17.8521 30.1276 14.7908 30.2266 13.3555Z" fill="white"/>
</svg>
