<svg width="40" height="40" viewBox="0 0 40 40" fill="none" xmlns="http://www.w3.org/2000/svg">
<path d="M20 5C23.9998 5 24.6666 5.00035 26.333 5.16699C27.6663 5.16699 28.8334 5.33305 30 5.83301C32 6.49967 33.4997 8.16699 34.333 10.167C34.6663 11.3335 34.9999 12.4999 35 13.833V20C35 24 34.833 24.5003 34.833 26.167C34.833 27.5 34.6668 28.6666 34.167 29.833C33.5003 31.833 31.833 33.3337 29.833 34.167C28.6666 34.5003 27.5 34.833 26.167 34.833C24.667 34.9997 24 35 20 35H13.833C12.4998 34.9999 11.3332 34.6669 10 34.167C8 33.5003 6.50033 31.833 5.66699 29.833C5.33371 28.6665 5.00005 27.5001 5 26.167V13.833C5.16663 12.6665 5.33318 11.3335 5.83301 10.167C6.49967 8.16699 8.16699 6.49967 10.167 5.83301C11.3334 5.49974 12.5 5.16705 13.833 5.16699C15.333 5.00033 16 5 20 5ZM28.9453 13.9717C29.1979 12.7924 28.5173 12.3209 27.7373 12.6025L10.9277 19.083C9.776 19.5334 9.79641 20.1714 10.7305 20.4678L15.0342 21.8096L25.0156 15.5254C25.4791 15.2174 25.9092 15.3917 25.5576 15.7012L17.4805 22.998L17.1709 27.4336C17.6212 27.4336 17.8174 27.2373 18.0498 27.0049L20.1523 24.9795L24.5098 28.1924C25.3044 28.6427 25.8728 28.4099 26.085 27.4541L28.9473 13.9707L28.9453 13.9717Z" fill="white"/>
</svg>
