<svg width="33" height="32" viewBox="0 0 33 32" fill="none" xmlns="http://www.w3.org/2000/svg">
<path fill-rule="evenodd" clip-rule="evenodd" d="M22.8594 1L23.5347 2.23481L24.7696 2.91019L23.5347 3.58556L22.8594 4.82037L22.184 3.58556L20.9492 2.91019L22.184 2.23481L22.8594 1ZM9.90447 3.67773L10.7394 5.20436L12.266 6.03923L10.7394 6.87423L9.90447 8.4008L9.06959 6.87423L7.54297 6.03923L9.06959 5.20436L9.90447 3.67773ZM25.8758 11.4868L28.2987 14.7335C28.5368 15.0526 28.5732 15.4793 28.3925 15.8339C28.2117 16.1885 27.8423 16.4081 27.4471 16.4049L23.3962 16.3532L21.0571 19.6608C20.8592 19.9407 20.5393 20.1028 20.2033 20.1028C19.7442 20.1028 19.3401 19.804 19.2043 19.3673L18.3525 16.6272L4.28545 30.6942C3.87702 31.1026 3.21477 31.1026 2.80633 30.6942C2.39789 30.2857 2.39789 29.6234 2.80633 29.215L16.8733 15.1482L14.1331 14.2963C13.753 14.1781 13.4728 13.8543 13.4105 13.4612C13.3483 13.0678 13.5146 12.6734 13.8397 12.4435L17.1474 10.1044L17.0956 6.05347C17.0905 5.65534 17.3118 5.28897 17.6666 5.10816C18.0213 4.92735 18.448 4.96378 18.7669 5.20185L22.0138 7.62472L25.8503 6.32378C26.2274 6.19591 26.6443 6.29322 26.9258 6.57472C27.2073 6.85622 27.3046 7.27322 27.1768 7.65022L25.8758 11.4868ZM22.5856 25.0298L21.9102 23.7949L21.2349 25.0298L20 25.7051L21.2349 26.3805L21.9102 27.6152L22.5856 26.3805L23.8204 25.7051L22.5856 25.0298ZM30.567 9.90706L30.1627 9.16806L29.7586 9.90706L29.0195 10.3112L29.7586 10.7154L30.1627 11.4544L30.567 10.7154L31.3059 10.3112L30.567 9.90706ZM29.0194 19.8724L30.6913 19.3828L30.2016 21.0546L30.6913 22.7264L29.0194 22.2368L27.3477 22.7264L27.8373 21.0546L27.3477 19.3828L29.0194 19.8724Z" fill="white"/>
</svg>
