<svg width="64" height="40" viewBox="0 0 64 40" fill="none" xmlns="http://www.w3.org/2000/svg">
<g clip-path="url(#clip0_1593_128696)">
<path fill-rule="evenodd" clip-rule="evenodd" d="M57.0267 6.97852H54.0348H40.2062H37.214L35.199 9.26604L28.6602 16.6887L26.6453 18.9762H23.6528H10.0868H7.09434L9.07819 16.6598L10.0172 15.5634L12.001 13.247H9.00854H5.15256H2.99246C1.34671 13.247 0 14.6393 0 16.3409V22.316V22.869C0 24.5708 1.34671 25.9632 2.99246 25.9632H3.83321H35.2301H37.4811C39.1269 25.9632 41.3751 24.9291 42.4772 23.6652L47.6941 17.6821L57.0267 6.97852Z" fill="white"/>
<path fill-rule="evenodd" clip-rule="evenodd" d="M61.0074 0C62.6532 0 63.9999 1.39235 63.9999 3.09416V9.62207C63.9999 11.3236 62.6532 12.7162 61.0074 12.7162H59.3839H55.0207H52.0282L54.0308 10.4172L55.024 9.27737L57.0266 6.97861H37.2141L26.6453 18.985H6.97314L21.081 2.90064L21.6149 2.2919C22.7207 1.0313 24.972 0 26.6177 0H27.3126H61.0074Z" fill="#8C8DFF"/>
<path fill-rule="evenodd" clip-rule="evenodd" d="M6.74386 37.0602C6.74386 36.6341 6.6441 36.2651 6.44507 35.9536C6.24577 35.6421 5.98366 35.4044 5.65851 35.2404C5.98366 35.0765 6.23564 34.8345 6.41468 34.5148C6.59345 34.1951 6.68284 33.8346 6.68284 33.4329V33.2116C6.68284 32.7195 6.58942 32.31 6.40251 31.9818C6.21538 31.654 5.95304 31.3915 5.61572 31.1949C5.27842 30.998 4.87375 30.8568 4.40248 30.7705C3.93071 30.6845 3.40651 30.6416 2.82914 30.6416C2.63414 30.6416 2.43079 30.6455 2.2196 30.6538C2.0079 30.6616 1.80277 30.6721 1.60372 30.6845C1.40443 30.6967 1.22135 30.7113 1.05498 30.7276C0.888097 30.7442 0.751849 30.7606 0.646251 30.7766C0.410505 30.8181 0.243869 30.8915 0.146364 30.998C0.0488831 31.1047 0 31.2975 0 31.5761V39.0523C0 39.3311 0.0506378 39.5237 0.15245 39.6301C0.253997 39.7369 0.426705 39.8104 0.670825 39.8515C0.792619 39.876 0.938989 39.8965 1.10967 39.9131C1.28036 39.9294 1.46521 39.9436 1.66451 39.9559C1.86381 39.9681 2.06892 39.9784 2.28038 39.9868C2.49183 39.9946 2.69897 39.9991 2.90232 39.9991C3.43081 39.9991 3.92867 39.958 4.39641 39.876C4.86361 39.7942 5.27006 39.6485 5.61572 39.4394C5.96139 39.2305 6.23564 38.9476 6.43899 38.5911C6.64207 38.2344 6.74386 37.7856 6.74386 37.2445V37.0602ZM4.67065 33.5312C4.67065 33.6625 4.65037 33.7876 4.60959 33.9063C4.56883 34.0251 4.50195 34.1274 4.40851 34.214C4.31482 34.2998 4.18897 34.3695 4.03044 34.4226C3.87192 34.476 3.6706 34.5025 3.42673 34.5025H2.06103V32.3753C2.10159 32.3753 2.16461 32.3739 2.24995 32.3696C2.33532 32.3657 2.42469 32.3638 2.51813 32.3638H2.78655H2.98762C3.61361 32.3638 4.05069 32.4437 4.29861 32.6035C4.54653 32.7634 4.67061 33.0113 4.67061 33.3473L4.67065 33.5312ZM4.71958 37.1956C4.71958 37.5398 4.59955 37.8063 4.35974 37.9948C4.11993 38.1835 3.68689 38.2779 3.06089 38.2779H2.85983C2.76613 38.2779 2.66864 38.2765 2.56709 38.2711C2.4653 38.2672 2.36779 38.2643 2.27435 38.2643H2.06113V35.965H3.42683C3.91455 35.965 4.25185 36.0738 4.439 36.2908C4.62588 36.5081 4.71958 36.7642 4.71958 37.0594V37.1956ZM13.4268 35.2527C13.4268 34.802 13.3597 34.4185 13.2254 34.1029C13.0915 33.7876 12.9023 33.5292 12.6585 33.3282C12.4146 33.1275 12.1158 32.9802 11.762 32.8857C11.4085 32.7916 11.0122 32.7443 10.5731 32.7443C10.1664 32.7443 9.77008 32.7732 9.38415 32.8306C8.99772 32.8878 8.6908 32.9452 8.4634 33.0024C8.30891 33.0438 8.23169 33.1337 8.23169 33.2728V34.2689C8.23169 34.3511 8.25192 34.4086 8.29275 34.441C8.33326 34.4739 8.38597 34.4905 8.45128 34.4905H8.51205C8.60979 34.4818 8.73159 34.4719 8.87797 34.4596C9.02434 34.4473 9.18894 34.4373 9.37202 34.4286C9.55486 34.4209 9.7458 34.4146 9.94509 34.4104C10.1441 34.4065 10.3414 34.4046 10.5367 34.4046C10.821 34.4046 11.0446 34.4579 11.2072 34.5644C11.3698 34.6712 11.4511 34.9007 11.4511 35.2531V35.6958H10.7927C9.74377 35.6958 8.98154 35.8618 8.50597 36.1937C8.03039 36.5257 7.79261 37.0524 7.79261 37.7737V37.8848C7.79261 38.2862 7.85166 38.6222 7.96936 38.8926C8.08711 39.1633 8.24387 39.3806 8.43886 39.5447C8.63411 39.7084 8.85543 39.8254 9.1036 39.8948C9.35152 39.9645 9.60981 39.9995 9.87798 39.9995C10.2439 39.9995 10.5589 39.9501 10.8231 39.8519C11.0872 39.7536 11.3371 39.6183 11.5731 39.4462V39.6428C11.5731 39.7084 11.5974 39.7659 11.6463 39.8149C11.6953 39.8642 11.752 39.8887 11.817 39.8887H13.183C13.2478 39.8887 13.3048 39.8642 13.3537 39.8149C13.4026 39.7659 13.4269 39.7084 13.4269 39.6428L13.4268 35.2527ZM11.4878 38.2284C11.3414 38.3022 11.1846 38.3657 11.0183 38.4189C10.8514 38.4725 10.6746 38.4988 10.4877 38.4988C10.2274 38.4988 10.0345 38.462 9.90834 38.3882C9.78224 38.3144 9.71943 38.1464 9.71943 37.8844V37.7734C9.71943 37.6258 9.73555 37.4948 9.76836 37.3799C9.80081 37.2653 9.85775 37.1708 9.93904 37.0972C10.0201 37.0234 10.13 36.968 10.2682 36.931C10.4065 36.8942 10.5812 36.8759 10.7927 36.8759H11.4878L11.4878 38.2284ZM20.8901 39.6302V35.5354C20.8901 35.1506 20.8596 34.7875 20.7987 34.4474C20.7376 34.1075 20.628 33.8121 20.4695 33.5619C20.311 33.3119 20.0914 33.113 19.8108 32.9657C19.5305 32.8181 19.1706 32.7443 18.7315 32.7443C18.3413 32.7443 17.9956 32.7918 17.695 32.8868C17.3942 32.9817 17.0772 33.149 16.7439 33.3885V33.0905C16.7439 33.0246 16.7193 32.9667 16.6707 32.9172C16.6218 32.8677 16.5648 32.8426 16.4997 32.8426H15.134C15.0687 32.8426 15.012 32.8671 14.9634 32.9164C14.9144 32.9657 14.8902 33.0231 14.8902 33.0885V39.6302C14.8902 39.6958 14.9163 39.7553 14.9694 39.8084C15.0221 39.8618 15.0811 39.8883 15.1462 39.8883H16.6218C16.6868 39.8883 16.7438 39.8618 16.7924 39.8087C16.8414 39.7556 16.8657 39.6964 16.8657 39.6307V34.7967C17.0771 34.6823 17.2761 34.5884 17.4633 34.5148C17.6502 34.441 17.833 34.4043 18.012 34.4043C18.1989 34.4043 18.3514 34.4226 18.4694 34.4597C18.5871 34.4965 18.6786 34.5598 18.7436 34.6501C18.8087 34.7398 18.8535 34.8582 18.8779 35.0053C18.9021 35.1526 18.9146 35.3327 18.9146 35.5453V39.6307C18.9146 39.6964 18.9389 39.7556 18.9878 39.8087C19.0364 39.8618 19.0932 39.8883 19.1585 39.8883H20.6341C20.6989 39.8883 20.7579 39.8617 20.8108 39.8084C20.8638 39.7553 20.8901 39.6958 20.8901 39.6302ZM26.8902 39.5319V38.4378C26.8902 38.3719 26.8676 38.3208 26.8231 38.2838C26.7783 38.2468 26.7233 38.2284 26.6585 38.2284H26.6339C26.4062 38.2529 26.1889 38.2736 25.9815 38.29C25.7741 38.3062 25.4956 38.3144 25.1461 38.3144C25.0079 38.3144 24.878 38.2919 24.7559 38.2468C24.6338 38.2017 24.5282 38.124 24.4388 38.0131C24.3492 37.9026 24.2783 37.755 24.2254 37.5706C24.1724 37.386 24.1461 37.1585 24.1461 36.8881V35.8553C24.1461 35.5846 24.1724 35.3571 24.2254 35.1728C24.2783 34.9882 24.3492 34.8409 24.4388 34.73C24.5282 34.6195 24.6338 34.5416 24.7559 34.4964C24.878 34.4514 25.0079 34.4288 25.1461 34.4288C25.4956 34.4288 25.7741 34.4374 25.9815 34.4536C26.1889 34.4699 26.4062 34.4906 26.6339 34.5149H26.6585C26.7233 34.5149 26.7783 34.4966 26.8231 34.4597C26.8677 34.4227 26.8902 34.3716 26.8902 34.306V33.2117C26.8902 33.1215 26.8698 33.058 26.8291 33.0209C26.7884 32.9841 26.7233 32.9533 26.6339 32.9288C26.4632 32.8879 26.2416 32.847 25.9694 32.8057C25.6969 32.7649 25.3779 32.7444 25.0119 32.7444C24.1502 32.7444 23.4611 33.0108 22.945 33.5439C22.4287 34.0765 22.1707 34.8471 22.1707 35.8554V36.8883C22.1707 37.8966 22.4287 38.6672 22.945 39.1998C23.4611 39.733 24.1502 39.9993 25.0119 39.9993C25.3779 39.9993 25.6969 39.9787 25.9694 39.938C26.2416 39.8966 26.4632 39.8558 26.6339 39.8147C26.7233 39.7902 26.7884 39.7596 26.8291 39.7225C26.8697 39.6857 26.8902 39.622 26.8902 39.5319ZM33.6586 35.9413C33.6586 35.4493 33.5912 35.0068 33.4568 34.6134C33.3223 34.2199 33.1268 33.8859 32.8703 33.6112C32.6138 33.3367 32.296 33.1235 31.9174 32.9718C31.5386 32.8204 31.1005 32.7443 30.6036 32.7443C30.1068 32.7443 29.6689 32.8203 29.2901 32.9718C28.9113 33.1235 28.5914 33.3367 28.3308 33.6112C28.07 33.8859 27.8725 34.2199 27.7383 34.6134C27.6036 35.0068 27.5365 35.4493 27.5365 35.9413V36.8021C27.5365 37.2939 27.6035 37.7366 27.7383 38.1301C27.8725 38.5236 28.07 38.8575 28.3308 39.1323C28.5914 39.407 28.9113 39.62 29.2901 39.7716C29.6689 39.923 30.1068 39.9991 30.6036 39.9991C31.1005 39.9991 31.5386 39.9231 31.9174 39.7716C32.296 39.62 32.6138 39.407 32.8703 39.1323C33.1268 38.8575 33.3223 38.5236 33.4568 38.1301C33.5913 37.7366 33.6586 37.2939 33.6586 36.8021V35.9413ZM31.6829 36.8021C31.6829 37.8104 31.3231 38.3144 30.6036 38.3144C30.2478 38.3144 29.9771 38.1875 29.7912 37.9332C29.6051 37.6792 29.5122 37.302 29.5122 36.8021V35.9413C29.5122 35.4414 29.6051 35.0663 29.7912 34.8161C29.9771 34.5661 30.2478 34.441 30.6036 34.441C31.3231 34.441 31.6829 34.9412 31.6829 35.9413V36.8021ZM40.9145 39.6302V35.5354C40.9145 35.1506 40.8836 34.7875 40.8231 34.4474C40.7621 34.1075 40.6522 33.8121 40.4934 33.5619C40.3349 33.3119 40.1156 33.113 39.8353 32.9657C39.5547 32.8181 39.1948 32.7443 38.756 32.7443C38.3658 32.7443 38.0201 32.7918 37.7192 32.8868C37.4184 32.9817 37.1014 33.149 36.7681 33.3885V33.0905C36.7681 33.0246 36.7438 32.9667 36.6947 32.9172C36.6464 32.8677 36.5891 32.8426 36.5243 32.8426H35.1583C35.0932 32.8426 35.0365 32.8671 34.9877 32.9164C34.9391 32.9657 34.9144 33.0231 34.9144 33.0885V39.6302C34.9144 39.6958 34.9407 39.7553 34.9937 39.8084C35.0466 39.8618 35.1054 39.8883 35.1707 39.8883H36.6463C36.7111 39.8883 36.7681 39.8618 36.817 39.8087C36.8656 39.7556 36.8902 39.6964 36.8902 39.6307V34.7967C37.1014 34.6823 37.3007 34.5884 37.4876 34.5148C37.6747 34.441 37.8575 34.4043 38.0366 34.4043C38.2235 34.4043 38.3759 34.4226 38.4937 34.4597C38.6114 34.4965 38.7031 34.5598 38.7682 34.6501C38.8332 34.7398 38.8778 34.8582 38.9024 35.0053C38.9267 35.1526 38.9389 35.3327 38.9389 35.5453V39.6307C38.9389 39.6964 38.9632 39.7556 39.0121 39.8087C39.0611 39.8618 39.1177 39.8883 39.1828 39.8883H40.6584C40.7235 39.8883 40.7825 39.8617 40.8354 39.8084C40.8881 39.7553 40.9145 39.6958 40.9145 39.6302ZM46.2317 39.6578V38.7062C46.2317 38.568 46.1463 38.4988 45.9757 38.4988H45.3778C45.1909 38.4988 45.0772 38.464 45.0367 38.3944C44.9959 38.3249 44.9756 38.1669 44.9756 37.921V34.3427H45.9756C46.0404 34.3427 46.0974 34.3179 46.1463 34.2684C46.1953 34.2189 46.2195 34.1612 46.2195 34.0948V33.0906C46.2195 33.0246 46.1952 32.9665 46.1463 32.9169C46.0974 32.8674 46.0405 32.8426 45.9756 32.8426H44.9756V31.5391C44.9756 31.4738 44.9553 31.4224 44.9151 31.3854C44.8746 31.3486 44.8219 31.3305 44.7574 31.3305H44.7212L43.2426 31.5884C43.1778 31.605 43.1208 31.6336 43.0727 31.6745C43.0243 31.7156 43 31.7687 43 31.8343V32.8427H42.0246C41.9592 32.8427 41.9005 32.8695 41.8476 32.9225C41.7947 32.9759 41.7683 33.0354 41.7683 33.1008V33.9125C41.7683 33.9781 41.7947 34.0335 41.8476 34.0785C41.9005 34.1236 41.9593 34.1543 42.0246 34.1706L43 34.3307V37.8965C43 38.3313 43.0446 38.6855 43.1333 38.9599C43.2222 39.2347 43.3515 39.4499 43.521 39.6057C43.6906 39.7614 43.9031 39.8659 44.1576 39.9192C44.4121 39.9723 44.7051 39.9991 45.0368 39.9991C45.2153 39.9991 45.3741 39.9914 45.5124 39.9746C45.6504 39.9583 45.813 39.934 46.0001 39.9013C46.1546 39.8773 46.2317 39.7959 46.2317 39.6578ZM52.7436 35.2527C52.7436 34.8021 52.6767 34.4186 52.5423 34.103C52.4083 33.7876 52.2194 33.5292 51.9755 33.3283C51.7317 33.1276 51.4329 32.9802 51.0791 32.8858C50.7256 32.7916 50.3293 32.7443 49.8902 32.7443C49.4832 32.7443 49.0872 32.7732 48.7012 32.8306C48.3148 32.8878 48.0079 32.9452 47.7805 33.0024C47.6255 33.0439 47.5488 33.1337 47.5488 33.2728V34.2689C47.5488 34.3511 47.5688 34.4086 47.6096 34.441C47.6503 34.4739 47.703 34.4905 47.7681 34.4905H47.8291C47.9269 34.4818 48.0487 34.4719 48.1951 34.4596C48.3414 34.4473 48.506 34.4374 48.6889 34.4287C48.872 34.421 49.0629 34.4147 49.2622 34.4104C49.4612 34.4065 49.6585 34.4046 49.8535 34.4046C50.1381 34.4046 50.3617 34.458 50.5243 34.5644C50.6869 34.6712 50.7682 34.9007 50.7682 35.2531V35.6958H50.1098C49.0606 35.6958 48.2986 35.8618 47.8231 36.1938C47.3475 36.5257 47.1097 37.0524 47.1097 37.7738V37.8848C47.1097 38.2862 47.1685 38.6223 47.2864 38.8927C47.404 39.1633 47.561 39.3806 47.7559 39.5448C47.9512 39.7085 48.1725 39.8254 48.4207 39.8948C48.6686 39.9645 48.9266 39.9995 49.1951 39.9995C49.561 39.9995 49.8758 39.9502 50.1401 39.852C50.4043 39.7537 50.654 39.6183 50.8902 39.4462V39.6428C50.8902 39.7085 50.9145 39.7659 50.9634 39.8149C51.012 39.8643 51.069 39.8887 51.1341 39.8887H52.5001C52.5649 39.8887 52.6219 39.8642 52.6707 39.8149C52.7193 39.7659 52.7437 39.7085 52.7437 39.6428L52.7436 35.2527ZM50.8048 38.2284C50.6585 38.3023 50.5017 38.3658 50.3353 38.4189C50.1682 38.4725 49.9917 38.4988 49.8048 38.4988C49.5445 38.4988 49.3515 38.462 49.2254 38.3883C49.0993 38.3144 49.0365 38.1465 49.0365 37.8845V37.7734C49.0365 37.6258 49.0526 37.4948 49.0854 37.3799C49.1176 37.2653 49.1746 37.1708 49.2561 37.0973C49.3372 37.0235 49.4471 36.9681 49.5853 36.9311C49.7236 36.8943 49.8983 36.876 50.1098 36.876H50.8049L50.8048 38.2284ZM58.7437 39.5319V38.4378C58.7437 38.3719 58.7211 38.3209 58.6766 38.2838C58.6319 38.2468 58.5771 38.2284 58.512 38.2284H58.4877C58.2601 38.2529 58.0425 38.2736 57.8351 38.29C57.628 38.3063 57.3494 38.3145 57 38.3145C56.8615 38.3145 56.7313 38.292 56.6098 38.2468C56.4877 38.2018 56.3818 38.124 56.2924 38.0132C56.2031 37.9026 56.1319 37.7551 56.0792 37.5707C56.026 37.3861 56 37.1586 56 36.8882V35.8554C56 35.5847 56.0261 35.3572 56.0792 35.1729C56.1319 34.9882 56.2031 34.8409 56.2924 34.7301C56.3818 34.6196 56.4877 34.5417 56.6098 34.4965C56.7313 34.4514 56.8615 34.4288 57 34.4288C57.3494 34.4288 57.628 34.4375 57.8351 34.4537C58.0425 34.4699 58.2601 34.4907 58.4877 34.5149H58.512C58.5771 34.5149 58.6318 34.4967 58.6766 34.4598C58.7212 34.4228 58.7437 34.3717 58.7437 34.3061V33.2117C58.7437 33.1216 58.7234 33.058 58.6827 33.021C58.6416 32.9842 58.5771 32.9534 58.4877 32.9289C58.317 32.888 58.0952 32.8471 57.8229 32.8058C57.5505 32.765 57.2316 32.7445 56.8657 32.7445C56.0034 32.7445 55.3149 33.0108 54.7986 33.544C54.2822 34.0766 54.0242 34.8472 54.0242 35.8555V36.8883C54.0242 37.8967 54.2822 38.6673 54.7986 39.1999C55.3149 39.7331 56.0034 39.9994 56.8657 39.9994C57.2316 39.9994 57.5505 39.9787 57.8229 39.9381C58.0952 39.8966 58.317 39.8559 58.4877 39.8147C58.5771 39.7902 58.6416 39.7597 58.6827 39.7226C58.7234 39.6858 58.7437 39.622 58.7437 39.5319ZM63.9998 39.6578V38.7062C63.9998 38.568 63.9145 38.4988 63.7438 38.4988H63.1462C62.9591 38.4988 62.8454 38.464 62.8048 38.3944C62.7641 38.3249 62.7438 38.1669 62.7438 37.921V34.3427H63.7438C63.8086 34.3427 63.8656 34.3179 63.9145 34.2684C63.9631 34.2189 63.9877 34.1612 63.9877 34.0948V33.0906C63.9877 33.0246 63.9631 32.9665 63.9145 32.9169C63.8655 32.8674 63.8086 32.8426 63.7438 32.8426H62.7438V31.5391C62.7438 31.4738 62.7235 31.4224 62.6827 31.3854C62.6427 31.3486 62.5901 31.3305 62.5254 31.3305H62.4889L61.0103 31.5884C60.9455 31.605 60.8888 31.6336 60.8406 31.6745C60.7923 31.7156 60.768 31.7687 60.768 31.8343V32.8427H59.7925C59.7272 32.8427 59.6685 32.8695 59.6155 32.9225C59.5626 32.9759 59.5363 33.0354 59.5363 33.1008V33.9125C59.5363 33.9781 59.5626 34.0335 59.6155 34.0785C59.6685 34.1236 59.7272 34.1543 59.7925 34.1706L60.768 34.3307V37.8965C60.768 38.3313 60.8126 38.6855 60.9012 38.9599C60.9901 39.2347 61.1195 39.4499 61.2892 39.6057C61.4586 39.7614 61.6708 39.8659 61.9255 39.9192C62.18 39.9723 62.473 39.9991 62.8048 39.9991C62.9833 39.9991 63.1418 39.9914 63.2803 39.9746C63.4183 39.9583 63.5809 39.934 63.7681 39.9013C63.9223 39.8773 63.9998 39.7959 63.9998 39.6578Z" fill="white"/>
</g>
<defs>
<clipPath id="clip0_1593_128696">
<rect width="64" height="40" fill="white"/>
</clipPath>
</defs>
</svg>
