<svg width="12" height="12" viewBox="0 0 12 12" fill="none" xmlns="http://www.w3.org/2000/svg">
<circle cx="5.93177" cy="5.93201" r="4.07825" fill="white"/>
<path d="M11.2772 5.41073L10.0803 4.21388V2.51862C10.0803 2.11202 9.74915 1.78084 9.34254 1.78084H7.65056L6.45371 0.583987C6.30943 0.442988 6.12253 0.37085 5.93234 0.37085C5.74216 0.37085 5.55525 0.442988 5.41098 0.583987L4.21413 1.78084H2.52214C2.11554 1.78084 1.78436 2.11202 1.78436 2.51862V4.21388L0.58751 5.41073C0.298955 5.69601 0.298955 6.16491 0.58751 6.45347L1.78436 7.65032V9.3423C1.78436 9.7489 2.11554 10.0801 2.52214 10.0801H4.21413L5.41098 11.2769C5.55525 11.4212 5.74216 11.4934 5.93234 11.4934C6.12253 11.4934 6.30943 11.4212 6.45371 11.2769L7.65056 10.0801H9.34254C9.74915 10.0801 10.0803 9.7489 10.0803 9.3423V7.65032L11.2772 6.45347C11.5657 6.16491 11.5657 5.69601 11.2772 5.41073ZM7.72926 5.17464L5.64379 7.26339C5.56181 7.34209 5.45688 7.38144 5.35195 7.38144C5.24703 7.38144 5.1421 7.34209 5.0634 7.26339L4.13543 6.33542C3.97476 6.17475 3.97476 5.9157 4.13543 5.75503C4.2961 5.59436 4.55515 5.59436 4.71582 5.75503L5.35195 6.39444L7.14887 4.59753C7.30954 4.43686 7.56858 4.43686 7.72926 4.59753C7.88993 4.75492 7.88993 5.01725 7.72926 5.17464Z" fill="#4D5053"/>
</svg>
