<svg width="40" height="40" viewBox="0 0 40 40" fill="none" xmlns="http://www.w3.org/2000/svg">
<path fill-rule="evenodd" clip-rule="evenodd" d="M34.3333 10.1667C34.6667 11.3333 35 12.5 35 13.8333V20C35 22.4309 34.9384 23.5691 34.8902 24.4622C34.859 25.0386 34.8333 25.5129 34.8333 26.1667C34.8333 27.5 34.6667 28.6667 34.1667 29.8333C33.5 31.8333 31.8333 33.3333 29.8333 34.1667C28.6667 34.5 27.5 34.8333 26.1667 34.8333C24.6667 35 24 35 20 35H13.8333C12.5 35 11.3333 34.6667 10 34.1667C8 33.5 6.5 31.8333 5.66667 29.8333C5.33333 28.6667 5 27.5 5 26.1667V20V13.8333C5.01034 13.761 5.02067 13.688 5.03109 13.6144C5.18862 12.5019 5.36434 11.261 5.83333 10.1667C6.5 8.16667 8.16667 6.5 10.1667 5.83333C11.3333 5.5 12.5 5.16667 13.8333 5.16667C15.3333 5 16 5 20 5C24 5 24.6667 5 26.3333 5.16667C27.6667 5.16667 28.8333 5.33333 30 5.83333C32 6.5 33.5 8.16667 34.3333 10.1667ZM12.2562 11.319C14.9441 12.7582 18.2234 16.098 19.7763 19.2946C21.3293 16.098 24.6085 12.7582 27.2965 11.319C29.6724 10.2796 30.3725 11.9978 30.224 13.3555C30.125 14.791 29.8846 17.8528 29.7148 18.6164C29.5027 19.5711 28.2087 22.0106 24.1569 21.7773C25.4792 21.8692 28.1875 22.4815 28.442 24.1956C28.7602 26.3381 25.4509 29.011 24.7297 29.2868L24.667 29.3109C23.9227 29.5982 22.4429 30.1693 21.1234 27.6746C20.1569 25.8473 19.8354 24.6572 19.7763 24.1581C19.7173 24.6572 19.3958 25.8473 18.4293 27.6746C17.1098 30.1693 15.63 29.5982 14.8857 29.3109L14.823 29.2868C14.1017 29.011 10.7924 26.3381 11.1106 24.1956C11.3652 22.4815 14.0734 21.8692 15.3958 21.7773C11.344 22.0106 10.05 19.5711 9.83782 18.6164C9.66812 17.8528 9.42769 14.791 9.3287 13.3555C9.1802 11.9978 9.88025 10.2796 12.2562 11.319Z" fill="#808386"/>
</svg>
