<svg width="24" height="24" viewBox="0 0 24 24" fill="none" xmlns="http://www.w3.org/2000/svg">
<path d="M7.90611 5.60465C7.48658 5.60465 7.13867 5.25674 7.13867 4.83721V1.76744C7.13867 1.34791 7.48658 1 7.90611 1C8.32565 1 8.67356 1.34791 8.67356 1.76744V4.83721C8.67356 5.25674 8.32565 5.60465 7.90611 5.60465Z" fill="#131416"/>
<path d="M16.0936 5.60465C15.6741 5.60465 15.3262 5.25674 15.3262 4.83721V1.76744C15.3262 1.34791 15.6741 1 16.0936 1C16.5131 1 16.8611 1.34791 16.8611 1.76744V4.83721C16.8611 5.25674 16.5131 5.60465 16.0936 5.60465Z" fill="#131416"/>
<path d="M8.41779 14.5582C8.28476 14.5582 8.15174 14.5275 8.02895 14.4764C7.89593 14.4252 7.7936 14.3536 7.69128 14.2615C7.50709 14.067 7.39453 13.8112 7.39453 13.535C7.39453 13.4019 7.42523 13.2689 7.47639 13.1461C7.52756 13.0233 7.59918 12.9108 7.69128 12.8085C7.7936 12.7164 7.89593 12.6447 8.02895 12.5935C8.39732 12.4401 8.85779 12.5219 9.1443 12.8085C9.32848 13.0029 9.44104 13.2689 9.44104 13.535C9.44104 13.5964 9.43081 13.668 9.42058 13.7396C9.41034 13.801 9.38988 13.8624 9.35918 13.9238C9.33872 13.9852 9.30802 14.0466 9.26709 14.108C9.23639 14.1591 9.18523 14.2103 9.1443 14.2615C8.94988 14.4456 8.68383 14.5582 8.41779 14.5582Z" fill="#131416"/>
<path d="M11.9998 14.5581C11.8668 14.5581 11.7338 14.5275 11.611 14.4763C11.478 14.4251 11.3756 14.3535 11.2733 14.2614C11.0891 14.067 10.9766 13.8112 10.9766 13.5349C10.9766 13.4019 11.0073 13.2688 11.0584 13.146C11.1096 13.0233 11.1812 12.9107 11.2733 12.8084C11.3756 12.7163 11.478 12.6446 11.611 12.5935C11.9794 12.4298 12.4398 12.5219 12.7263 12.8084C12.9105 13.0028 13.0231 13.2688 13.0231 13.5349C13.0231 13.5963 13.0128 13.6679 13.0026 13.7395C12.9924 13.8009 12.9719 13.8623 12.9412 13.9237C12.9207 13.9851 12.8901 14.0465 12.8491 14.1079C12.8184 14.1591 12.7673 14.2102 12.7263 14.2614C12.5319 14.4456 12.2659 14.5581 11.9998 14.5581Z" fill="#131416"/>
<path d="M15.5818 14.5581C15.4488 14.5581 15.3158 14.5275 15.193 14.4763C15.06 14.4251 14.9577 14.3535 14.8553 14.2614C14.8144 14.2102 14.7735 14.1591 14.7325 14.1079C14.6916 14.0465 14.6609 13.9851 14.6405 13.9237C14.6098 13.8623 14.5893 13.8009 14.5791 13.7395C14.5688 13.6679 14.5586 13.5963 14.5586 13.5349C14.5586 13.2688 14.6712 13.0028 14.8553 12.8084C14.9577 12.7163 15.06 12.6446 15.193 12.5935C15.5716 12.4298 16.0218 12.5219 16.3084 12.8084C16.4925 13.0028 16.6051 13.2688 16.6051 13.5349C16.6051 13.5963 16.5949 13.6679 16.5846 13.7395C16.5744 13.8009 16.5539 13.8623 16.5232 13.9237C16.5028 13.9851 16.4721 14.0465 16.4312 14.1079C16.4005 14.1591 16.3493 14.2102 16.3084 14.2614C16.1139 14.4456 15.8479 14.5581 15.5818 14.5581Z" fill="#131416"/>
<path d="M8.41779 18.1395C8.28476 18.1395 8.15174 18.1088 8.02895 18.0576C7.90616 18.0065 7.7936 17.9348 7.69128 17.8427C7.50709 17.6483 7.39453 17.3823 7.39453 17.1162C7.39453 16.9832 7.42523 16.8502 7.47639 16.7274C7.52756 16.5943 7.59918 16.4818 7.69128 16.3897C8.06988 16.0111 8.76569 16.0111 9.1443 16.3897C9.32848 16.5841 9.44104 16.8502 9.44104 17.1162C9.44104 17.3823 9.32848 17.6483 9.1443 17.8427C8.94988 18.0269 8.68383 18.1395 8.41779 18.1395Z" fill="#131416"/>
<path d="M11.9998 18.1395C11.7338 18.1395 11.4677 18.0269 11.2733 17.8427C11.0891 17.6483 10.9766 17.3823 10.9766 17.1162C10.9766 16.9832 11.0073 16.8502 11.0584 16.7274C11.1096 16.5943 11.1812 16.4818 11.2733 16.3897C11.6519 16.0111 12.3477 16.0111 12.7263 16.3897C12.8184 16.4818 12.89 16.5943 12.9412 16.7274C12.9924 16.8502 13.0231 16.9832 13.0231 17.1162C13.0231 17.3823 12.9105 17.6483 12.7263 17.8427C12.5319 18.0269 12.2659 18.1395 11.9998 18.1395Z" fill="#131416"/>
<path d="M15.5818 18.1396C15.3158 18.1396 15.0498 18.027 14.8553 17.8428C14.7632 17.7507 14.6916 17.6382 14.6405 17.5052C14.5893 17.3824 14.5586 17.2493 14.5586 17.1163C14.5586 16.9833 14.5893 16.8503 14.6405 16.7275C14.6916 16.5944 14.7632 16.4819 14.8553 16.3898C15.0907 16.1545 15.4488 16.0419 15.7763 16.1135C15.8479 16.1237 15.9093 16.1442 15.9707 16.1749C16.0321 16.1954 16.0935 16.2261 16.1549 16.267C16.206 16.2977 16.2572 16.3489 16.3084 16.3898C16.4925 16.5842 16.6051 16.8503 16.6051 17.1163C16.6051 17.3824 16.4925 17.6484 16.3084 17.8428C16.1139 18.027 15.8479 18.1396 15.5818 18.1396Z" fill="#131416"/>
<path d="M20.6979 9.78974H3.3026C2.88306 9.78974 2.53516 9.44183 2.53516 9.02229C2.53516 8.60276 2.88306 8.25485 3.3026 8.25485H20.6979C21.1175 8.25485 21.4654 8.60276 21.4654 9.02229C21.4654 9.44183 21.1175 9.78974 20.6979 9.78974Z" fill="#131416"/>
<path d="M16.0932 23H7.90716C4.17227 23 2.02344 20.8512 2.02344 17.1163V8.4186C2.02344 4.68372 4.17227 2.53488 7.90716 2.53488H16.0932C19.8281 2.53488 21.9769 4.68372 21.9769 8.4186V17.1163C21.9769 20.8512 19.8281 23 16.0932 23ZM7.90716 4.06977C4.98065 4.06977 3.55832 5.49209 3.55832 8.4186V17.1163C3.55832 20.0428 4.98065 21.4651 7.90716 21.4651H16.0932C19.0197 21.4651 20.442 20.0428 20.442 17.1163V8.4186C20.442 5.49209 19.0197 4.06977 16.0932 4.06977H7.90716Z" fill="#131416"/>
</svg>
