<svg width="16" height="16" viewBox="0 0 16 16" fill="none" xmlns="http://www.w3.org/2000/svg">
<path d="M0 0H8C12.4183 0 16 3.58172 16 8V16H8C3.58172 16 0 12.4183 0 8V0Z" fill="#435EFB"/>
<path d="M10.7557 4.29836L6.66572 8.92341L5.25003 6.84311C5.17302 6.77907 5.08415 6.73083 4.9885 6.70115C4.89285 6.67147 4.79229 6.66092 4.69257 6.67012C4.59285 6.67932 4.49592 6.70808 4.40731 6.75476C4.31869 6.80143 4.24014 6.86511 4.17613 6.94216C4.11211 7.01921 4.0639 7.10812 4.03423 7.20381C4.00456 7.2995 3.99403 7.4001 4.00322 7.49987C4.01241 7.59963 4.04116 7.69661 4.08782 7.78526C4.13447 7.87392 4.19813 7.9525 4.27514 8.01655L6.17828 10.4931C6.31456 10.6052 6.4855 10.6664 6.66191 10.6664C6.83833 10.6664 7.00927 10.6052 7.14555 10.4931L11.7154 5.47941C11.7936 5.41653 11.8586 5.3388 11.9068 5.25069C11.9549 5.16258 11.9851 5.06582 11.9957 4.96598C12.0063 4.86614 11.9971 4.76519 11.9686 4.66892C11.9401 4.57265 11.8929 4.48297 11.8296 4.40503C11.7662 4.32732 11.6881 4.26289 11.5997 4.21545C11.5114 4.16801 11.4146 4.13849 11.3148 4.12858C11.215 4.11866 11.1143 4.12856 11.0183 4.1577C10.9224 4.18683 10.8331 4.23463 10.7557 4.29836Z" fill="white"/>
</svg>
