<svg width="64" height="64" viewBox="0 0 64 64" fill="none" xmlns="http://www.w3.org/2000/svg">
<path d="M46.5241 45.8957C43.031 47.2791 39.0641 47.381 35.497 46.2306C33.7948 45.6772 32.211 44.8472 30.7604 43.7987C31.9002 42.7503 32.8919 41.5707 33.78 40.3038C35.6154 41.6581 37.8948 42.4153 40.2039 42.4736C42.7053 42.561 45.2364 41.8037 47.2642 40.3621C49.4844 38.7894 51.0978 36.4303 51.7491 33.8382C52.3856 31.319 52.1635 28.5813 51.0682 26.2222C50.0025 23.8923 48.1079 21.941 45.784 20.776C43.7562 19.7567 41.4176 19.3635 39.1529 19.6256C36.385 19.946 33.7504 21.3002 31.9002 23.3389C29.5763 25.8582 28.4514 29.455 29.0879 32.8043C29.1471 33.2266 29.3099 33.6489 29.1767 34.0567C28.6142 35.7896 27.6077 37.3768 26.2756 38.6437C24.4106 35.2216 23.8481 31.1151 24.7658 27.329C25.7723 23.0186 28.7178 19.1887 32.6402 17.0481C35.3785 15.5191 38.5757 14.8201 41.6988 15.0385C44.9108 15.257 48.0339 16.4511 50.565 18.4169C53.3773 20.6013 55.4495 23.703 56.308 27.1251C57.2701 30.8821 56.7668 34.9741 54.9462 38.4107C53.1552 41.7746 50.1209 44.4832 46.5241 45.8957ZM29.1619 43.624C26.1127 45.9976 22.1755 47.2208 18.3123 46.9878C14.3011 46.7985 10.3787 45.0365 7.59597 42.1969C4.63565 39.2262 2.94827 35.0906 2.99267 30.9258C2.96307 25.8436 5.61255 20.8343 9.8458 17.9364C14.0643 14.9512 19.7777 14.2085 24.677 15.9123C26.246 16.4511 27.7113 17.252 29.0139 18.2422C27.8741 19.2761 26.8232 20.412 26.0091 21.7225C24.1589 20.3974 21.9239 19.611 19.6445 19.5528C17.0394 19.4509 14.3899 20.2518 12.3029 21.7808C10.2158 23.2953 8.64688 25.5233 7.98081 27.9988C7.24073 30.7074 7.55157 33.6635 8.8245 36.1682C9.93462 38.3525 11.7848 40.1728 14.0051 41.2649C16.0477 42.2843 18.4159 42.6775 20.6954 42.3862C23.182 42.0804 25.5355 40.9154 27.3117 39.1825C29.2507 37.304 30.4792 34.7557 30.7308 32.0908C30.8641 30.8239 30.7308 29.5424 30.5532 28.2901C30.8937 26.3679 32.0778 24.6641 33.5283 23.3681C35.1269 26.2805 35.7782 29.6735 35.3489 32.9645C34.8013 37.1438 32.5366 41.0611 29.1619 43.624Z" fill="url(#paint0_linear_2591_176787)"/>
<path d="M54.0655 5.85317L53.2412 6.77168C52.8718 7.18621 52.4022 7.49901 51.8774 7.68015C51.3525 7.86129 50.79 7.90471 50.2436 7.80625L49.0282 7.59171C48.9834 7.58887 48.9388 7.59941 48.9 7.62199C48.8612 7.64458 48.83 7.67818 48.8103 7.71854C48.7907 7.75889 48.7835 7.80418 48.7896 7.84864C48.7958 7.8931 48.815 7.93473 48.8449 7.96824L49.7634 8.79258C50.1779 9.16196 50.4907 9.63153 50.6718 10.1564C50.853 10.6812 50.8964 11.2438 50.7979 11.7902L50.5834 13.0056C50.5751 13.0522 50.5822 13.1003 50.6037 13.1425C50.6252 13.1847 50.6598 13.2188 50.7024 13.2395C50.745 13.2602 50.7932 13.2665 50.8397 13.2574C50.8861 13.2483 50.9284 13.2242 50.9599 13.1889L51.7843 12.2704C52.1536 11.8559 52.6232 11.5431 53.1481 11.3619C53.6729 11.1808 54.2355 11.1374 54.7819 11.2358L55.9973 11.4504C56.0439 11.4587 56.092 11.4516 56.1342 11.4301C56.1764 11.4086 56.2105 11.3739 56.2312 11.3314C56.2519 11.2888 56.2582 11.2406 56.2491 11.1941C56.2399 11.1476 56.2159 11.1054 56.1806 11.0738L55.2621 10.2495C54.8476 9.88012 54.5348 9.41054 54.3536 8.88569C54.1725 8.36085 54.1291 7.7983 54.2275 7.25187L54.4421 6.03648C54.4504 5.98985 54.4433 5.94178 54.4218 5.89957C54.4003 5.85735 54.3656 5.82329 54.3231 5.80256C54.2805 5.78183 54.2323 5.77555 54.1858 5.78468C54.1393 5.79382 54.0971 5.81786 54.0655 5.85317Z" fill="url(#paint1_linear_2591_176787)"/>
<path d="M16.1276 53.4715L16.6035 54.2762C16.8188 54.6375 16.9379 55.048 16.9492 55.4685C16.9606 55.8889 16.8638 56.3052 16.6682 56.6776L16.2364 57.5068C16.2242 57.5386 16.2216 57.5732 16.2291 57.6064C16.2366 57.6395 16.2538 57.6697 16.2785 57.6931C16.3031 57.7165 16.3342 57.732 16.3677 57.7377C16.4013 57.7434 16.4357 57.739 16.4667 57.725L17.2715 57.2492C17.6328 57.0338 18.0433 56.9147 18.4637 56.9034C18.8842 56.892 19.3005 56.9888 19.6729 57.1844L20.5021 57.6162C20.5339 57.6328 20.5702 57.6386 20.6056 57.6327C20.641 57.6268 20.6735 57.6095 20.6982 57.5835C20.7229 57.5574 20.7384 57.524 20.7424 57.4884C20.7464 57.4527 20.7386 57.4167 20.7203 57.3859L20.2444 56.5811C20.029 56.2198 19.91 55.8093 19.8986 55.3889C19.8873 54.9684 19.984 54.5521 20.1796 54.1798L20.6114 53.3505C20.6281 53.3187 20.6339 53.2824 20.628 53.247C20.622 53.2116 20.6048 53.1791 20.5787 53.1544C20.5527 53.1297 20.5193 53.1142 20.4836 53.1102C20.448 53.1063 20.412 53.114 20.3811 53.1323L19.5764 53.6082C19.2151 53.8236 18.8046 53.9426 18.3842 53.954C17.9637 53.9653 17.5474 53.8686 17.175 53.673L16.3458 53.2412C16.314 53.2246 16.2776 53.2188 16.2422 53.2247C16.2068 53.2306 16.1743 53.2478 16.1497 53.2739C16.125 53.2999 16.1095 53.3333 16.1055 53.369C16.1015 53.4046 16.1093 53.4406 16.1276 53.4715Z" fill="url(#paint2_linear_2591_176787)"/>
<path d="M27.101 49.6116L26.7666 50.1719C26.617 50.4245 26.4051 50.6345 26.1512 50.7818C25.8973 50.9291 25.6098 51.0087 25.3163 51.0131L24.6638 51.0252C24.6403 51.0283 24.6182 51.0383 24.6004 51.054C24.5825 51.0696 24.5698 51.0902 24.5637 51.1132C24.5576 51.1361 24.5584 51.1603 24.5661 51.1828C24.5738 51.2052 24.5881 51.2249 24.6069 51.2392L25.1673 51.5737C25.4199 51.7232 25.6299 51.9351 25.7771 52.1891C25.9244 52.443 26.0041 52.7305 26.0085 53.024L26.0206 53.6764C26.021 53.7015 26.0296 53.7257 26.045 53.7454C26.0605 53.7651 26.0819 53.7793 26.1061 53.7857C26.1303 53.7922 26.1559 53.7905 26.1791 53.7811C26.2023 53.7716 26.2218 53.7548 26.2346 53.7333L26.569 53.173C26.7186 52.9204 26.9305 52.7104 27.1844 52.5631C27.4384 52.4158 27.7258 52.3362 28.0194 52.3318L28.6718 52.3197C28.6968 52.3193 28.7211 52.3107 28.7408 52.2952C28.7605 52.2798 28.7747 52.2584 28.7811 52.2342C28.7875 52.21 28.7859 52.1843 28.7764 52.1611C28.767 52.138 28.7502 52.1185 28.7287 52.1057L28.1684 51.7712C27.9158 51.6217 27.7058 51.4098 27.5585 51.1558C27.4112 50.9019 27.3315 50.6144 27.3271 50.3209L27.315 49.6685C27.3146 49.6434 27.306 49.6192 27.2906 49.5995C27.2752 49.5798 27.2537 49.5656 27.2295 49.5592C27.2053 49.5527 27.1797 49.5544 27.1565 49.5638C27.1333 49.5733 27.1138 49.5901 27.101 49.6116Z" fill="url(#paint3_linear_2591_176787)"/>
<ellipse cx="17.662" cy="31.0104" rx="3.66786" ry="6.1131" fill="#321185"/>
<path d="M17.6621 25.0975C18.5771 25.0976 19.4395 25.7167 20.084 26.7909C20.7261 27.8611 21.1299 29.3526 21.1299 31.0106C21.1299 32.6686 20.7261 34.1602 20.084 35.2303C19.4395 36.3044 18.577 36.9237 17.6621 36.9237C16.7472 36.9237 15.8847 36.3044 15.2402 35.2303C14.5981 34.1602 14.1944 32.6686 14.1943 31.0106C14.1943 29.3525 14.5981 27.8611 15.2402 26.7909C15.8848 25.7167 16.7471 25.0975 17.6621 25.0975Z" stroke="#FFCFF9" stroke-opacity="0.4" stroke-width="0.4"/>
<ellipse cx="18.8911" cy="33.4558" rx="1.22262" ry="2.44524" transform="rotate(10.5468 18.8911 33.4558)" fill="white"/>
<ellipse cx="3.66786" cy="6.1131" rx="3.66786" ry="6.1131" transform="matrix(-1 0 0 1 47.0078 24.8973)" fill="#321185"/>
<path d="M43.3398 25.0975C42.4249 25.0976 41.5625 25.7167 40.918 26.7909C40.2759 27.8611 39.8721 29.3526 39.8721 31.0106C39.8721 32.6686 40.2759 34.1602 40.918 35.2303C41.5625 36.3044 42.4249 36.9237 43.3398 36.9237C44.2548 36.9237 45.1172 36.3044 45.7617 35.2303C46.4038 34.1602 46.8076 32.6686 46.8076 31.0106C46.8076 29.3525 46.4039 27.8611 45.7617 26.7909C45.1172 25.7167 44.2548 25.0975 43.3398 25.0975Z" stroke="#FFCFF9" stroke-opacity="0.4" stroke-width="0.4"/>
<ellipse cx="1.22262" cy="2.44524" rx="1.22262" ry="2.44524" transform="matrix(-0.967794 0.251744 0.251744 0.967794 42.7891 29.7712)" fill="white"/>
<path fill-rule="evenodd" clip-rule="evenodd" d="M49.002 42.9602L42.5098 49.4518C42.5098 49.4518 44.8185 48.7308 48.1365 49.8846C48.6947 50.0786 49.6288 49.1446 49.4347 48.5864C48.281 45.2683 49.002 42.9602 49.002 42.9602Z" fill="#F03A9F"/>
<path fill-rule="evenodd" clip-rule="evenodd" d="M30.7616 31.2118C35.1808 26.7927 42.3561 26.7927 46.7752 31.2118C51.1944 35.631 51.1944 42.8063 46.7752 47.2254C42.3561 51.6446 35.1808 51.6446 30.7616 47.2254C26.3425 42.8063 26.3425 35.631 30.7616 31.2118ZM32.0598 32.51C35.7622 28.8076 41.7746 28.8076 45.477 32.51C49.1794 36.2124 49.1794 42.2248 45.477 45.9272C41.7746 49.6296 35.7622 49.6296 32.0598 45.9272C28.3574 42.2248 28.3574 36.2124 32.0598 32.51Z" fill="#FF69D0"/>
<path fill-rule="evenodd" clip-rule="evenodd" d="M28.6237 44.2539C26.5231 40.0189 27.2355 34.738 30.7617 31.2119C34.073 27.9006 38.9316 27.0706 43.0196 28.722C43.049 29.0972 43.0643 29.4773 43.0643 29.861C43.0643 30.1573 43.0551 30.4517 43.0373 30.7442C39.4806 28.9533 35.0284 29.5421 32.0599 32.5101C28.9132 35.6567 28.4407 40.4719 30.6435 44.1198C29.9984 44.208 29.3398 44.2539 28.6714 44.2539H28.6237Z" fill="#FFCFF9"/>
<path fill-rule="evenodd" clip-rule="evenodd" d="M47.6444 51.986C46.569 50.9105 46.569 49.1668 47.6444 48.0907C48.7199 47.0153 50.4643 47.0153 51.5397 48.0907L60.4122 56.9633C60.6509 57.202 59.9722 58.2689 58.8974 59.3436C57.8226 60.4184 56.7557 61.0972 56.517 60.8585L47.6444 51.986Z" fill="#FF69D0"/>
<defs>
<linearGradient id="paint0_linear_2591_176787" x1="29.8895" y1="14.9994" x2="29.8895" y2="47.0204" gradientUnits="userSpaceOnUse">
<stop stop-color="#C78CFF"/>
<stop offset="1" stop-color="#893BF4"/>
</linearGradient>
<linearGradient id="paint1_linear_2591_176787" x1="54.3311" y1="5.80647" x2="50.7104" y2="13.2434" gradientUnits="userSpaceOnUse">
<stop stop-color="#FFCFF9"/>
<stop offset="1" stop-color="#FF69D0"/>
</linearGradient>
<linearGradient id="paint2_linear_2591_176787" x1="16.1543" y1="53.269" x2="20.7029" y2="57.5785" gradientUnits="userSpaceOnUse">
<stop stop-color="#FFCFF9"/>
<stop offset="1" stop-color="#FF69D0"/>
</linearGradient>
<linearGradient id="paint3_linear_2591_176787" x1="27.2341" y1="49.5604" x2="26.1107" y2="53.7869" gradientUnits="userSpaceOnUse">
<stop stop-color="#FFCFF9"/>
<stop offset="1" stop-color="#FF69D0"/>
</linearGradient>
</defs>
</svg>
