<svg width="20" height="20" viewBox="0 0 20 20" fill="none" xmlns="http://www.w3.org/2000/svg">
<path fill-rule="evenodd" clip-rule="evenodd" d="M10.2637 2.50469L10.0015 2.5C6.20643 2.5 2.78446 5.24031 0.88876 9.72438C0.851982 9.8114 0.833008 9.9052 0.833008 10C0.833008 10.0948 0.851982 10.1886 0.88876 10.2756L1.01985 10.5784C2.89171 14.7747 6.12668 17.3725 9.73565 17.4953L9.99783 17.5C13.7929 17.5 17.2149 14.7597 19.1106 10.2756C19.1478 10.1875 19.1668 10.0924 19.1663 9.99642C19.1659 9.90041 19.1459 9.80555 19.1078 9.71781L18.9795 9.42437C17.1039 5.21875 13.8681 2.6275 10.2646 2.50469H10.2637ZM10.0079 3.89594L10.227 3.90156L10.4718 3.91375C13.4024 4.12656 16.0974 6.34937 17.7264 9.99906L17.7172 10.0216C16.0488 13.75 13.2603 15.9859 10.2371 16.0984L10.0033 16.1022L9.76774 16.0984L9.5239 16.0853C6.68402 15.88 4.06506 13.7819 2.42695 10.3375L2.27203 10L2.41595 9.68688C4.14206 6.03719 6.96544 3.89687 10.0079 3.89687V3.89594ZM9.99874 6.35594C8.01871 6.35594 6.41452 7.98719 6.41452 10C6.41452 12.0119 8.01871 13.6431 9.99874 13.6431C11.9788 13.6431 13.5848 12.0119 13.5848 10C13.5848 7.98719 11.9797 6.35594 9.99874 6.35594V6.35594ZM9.99874 7.75281C10.2883 7.7517 10.5752 7.80896 10.8431 7.92132C11.111 8.03367 11.3546 8.19892 11.5601 8.40761C11.7655 8.61631 11.9287 8.86436 12.0403 9.13759C12.152 9.41082 12.2099 9.70387 12.2107 10C12.2097 10.296 12.1518 10.5888 12.0401 10.8619C11.9285 11.135 11.7654 11.3829 11.5601 11.5914C11.3547 11.8 11.1113 11.9652 10.8435 12.0776C10.5758 12.1899 10.2891 12.2472 9.99966 12.2462C9.71038 12.2471 9.42378 12.1897 9.1562 12.0773C8.88862 11.9649 8.64532 11.7996 8.44017 11.5911C8.23503 11.3825 8.07207 11.1346 7.96059 10.8616C7.84911 10.5886 7.7913 10.2958 7.79046 10C7.7913 9.70416 7.84911 9.41138 7.96059 9.13838C8.07207 8.86539 8.23503 8.61752 8.44017 8.40894C8.64532 8.20036 8.88862 8.03514 9.1562 7.92272C9.42378 7.8103 9.71038 7.75289 9.99966 7.75375L9.99874 7.75281Z" fill="#131416"/>
</svg>
