<svg width="33" height="32" viewBox="0 0 33 32" fill="none" xmlns="http://www.w3.org/2000/svg">
<path d="M16.5 3C13.9288 3 11.4154 3.76244 9.27759 5.19089C7.13975 6.61935 5.47351 8.64967 4.48957 11.0251C3.50563 13.4006 3.24819 16.0144 3.7498 18.5362C4.2514 21.0579 5.48953 23.3743 7.30762 25.1924C9.1257 27.0105 11.4421 28.2486 13.9638 28.7502C16.4856 29.2518 19.0994 28.9944 21.4749 28.0104C23.8503 27.0265 25.8806 25.3602 27.3091 23.2224C28.7376 21.0846 29.5 18.5712 29.5 16C29.5 12.5522 28.1304 9.24558 25.6924 6.80761C23.2544 4.36964 19.9478 3 16.5 3ZM8.83 11.113H10.3216C10.3977 11.113 10.4719 11.0888 10.5334 11.0439C10.5948 10.9991 10.6405 10.9358 10.6637 10.8633L11.1255 9.44526C11.1496 9.37361 11.1956 9.31133 11.257 9.26721C11.3184 9.22309 11.392 9.19935 11.4676 9.19935C11.5432 9.19935 11.6169 9.22309 11.6783 9.26721C11.7397 9.31133 11.7857 9.37361 11.8097 9.44526L12.2733 10.8684C12.2965 10.9409 12.3421 11.0042 12.4036 11.0491C12.4651 11.094 12.5393 11.1182 12.6154 11.1182H14.1053C14.1812 11.1185 14.255 11.1428 14.3163 11.1875C14.3777 11.2323 14.4233 11.2952 14.4468 11.3674C14.4703 11.4396 14.4704 11.5173 14.4472 11.5896C14.424 11.6618 14.3785 11.7249 14.3174 11.7699L13.12 12.6474C13.0582 12.6921 13.0122 12.7553 12.9885 12.8278C12.9648 12.9003 12.9648 12.9785 12.9883 13.051L13.4433 14.4605C13.467 14.5331 13.4672 14.6113 13.4436 14.684C13.4201 14.7566 13.3741 14.8199 13.3123 14.8648C13.2505 14.9097 13.1761 14.9338 13.0998 14.9337C13.0234 14.9336 12.949 14.9093 12.8874 14.8642L11.6815 13.9867C11.6192 13.9425 11.5448 13.9188 11.4685 13.9188C11.3922 13.9188 11.3177 13.9425 11.2555 13.9867L10.0496 14.8642C9.98815 14.9122 9.9128 14.939 9.83484 14.9406C9.75688 14.9421 9.68051 14.9184 9.61715 14.873C9.55379 14.8275 9.50686 14.7628 9.48337 14.6884C9.45988 14.6141 9.4611 14.5341 9.48685 14.4605L9.94869 13.0425C9.9727 12.9716 9.97408 12.895 9.95262 12.8233C9.93117 12.7516 9.88795 12.6883 9.82895 12.6422L8.63158 11.7647C8.57023 11.7211 8.52416 11.6592 8.49988 11.5879C8.47559 11.5166 8.47433 11.4395 8.49626 11.3675C8.5182 11.2954 8.56222 11.2321 8.62211 11.1864C8.682 11.1408 8.75472 11.1151 8.83 11.113ZM23.8193 19.315C23.2737 22.4299 20.2033 24.5903 16.5 24.5903C12.7967 24.5903 9.72461 22.4299 9.17895 19.315C9.17364 19.2833 9.17078 19.2513 9.1704 19.2192C9.1704 18.7693 9.71606 18.4785 10.1967 18.6428C12.0441 19.2808 14.2011 19.6058 16.5034 19.6058C18.8058 19.6058 20.9593 19.2808 22.8084 18.6428C23.2857 18.4717 23.8347 18.7676 23.8347 19.2192C23.8321 19.2515 23.827 19.2835 23.8193 19.315ZM24.3804 11.7647L23.183 12.6422C23.1212 12.687 23.0752 12.7501 23.0515 12.8227C23.0279 12.8952 23.0278 12.9733 23.0513 13.0459L23.5132 14.4605C23.5369 14.5331 23.537 14.6113 23.5135 14.684C23.49 14.7566 23.444 14.8199 23.3822 14.8648C23.3204 14.9097 23.246 14.9338 23.1696 14.9337C23.0933 14.9336 23.0189 14.9093 22.9572 14.8642L21.7599 13.9867C21.698 13.9424 21.6238 13.9186 21.5478 13.9186C21.4717 13.9186 21.3975 13.9424 21.3357 13.9867L20.128 14.8642C20.067 14.9163 19.9904 14.9465 19.9102 14.9502C19.8301 14.9539 19.751 14.9307 19.6855 14.8844C19.6199 14.8381 19.5717 14.7713 19.5484 14.6946C19.5251 14.6178 19.528 14.5354 19.5567 14.4605L20.0168 13.0425C20.0404 12.9699 20.0403 12.8918 20.0166 12.8192C19.993 12.7467 19.9469 12.6835 19.8851 12.6388L18.6792 11.7613C18.6192 11.7157 18.575 11.6526 18.5528 11.5806C18.5305 11.5087 18.5313 11.4315 18.5551 11.3601C18.5788 11.2886 18.6244 11.2264 18.6853 11.1821C18.7462 11.1377 18.8194 11.1136 18.8947 11.113H20.3829C20.4588 11.1122 20.5326 11.0878 20.594 11.043C20.6553 10.9982 20.7011 10.9354 20.725 10.8633L21.1851 9.44526C21.2092 9.37361 21.2552 9.31133 21.3166 9.26721C21.378 9.22309 21.4516 9.19935 21.5272 9.19935C21.6028 9.19935 21.6765 9.22309 21.7379 9.26721C21.7993 9.31133 21.8453 9.37361 21.8693 9.44526L22.3312 10.8633C22.3544 10.9358 22.4 10.9991 22.4615 11.0439C22.523 11.0888 22.5972 11.113 22.6733 11.113H24.1649C24.2416 11.1115 24.3168 11.1346 24.3795 11.1789C24.4421 11.2233 24.4889 11.2865 24.513 11.3594C24.5371 11.4322 24.5373 11.5109 24.5134 11.5839C24.4895 11.6568 24.4429 11.7202 24.3804 11.7647Z" fill="white"/>
</svg>
