<svg width="251" height="49" viewBox="0 0 251 49" fill="none" xmlns="http://www.w3.org/2000/svg">
<path d="M15.1418 1.68666C20.2956 -0.387951 26.1482 -0.540817 31.4112 1.18439C33.9226 2.01423 36.2592 3.259 38.3994 4.83134C36.7178 6.40368 35.2547 8.17256 33.9444 10.0725C31.2365 8.04153 27.8734 6.90595 24.4667 6.8186C20.7761 6.68757 17.0418 7.82315 14.0499 9.98511C10.7742 12.3436 8.3939 15.8814 7.43302 19.7685C6.49399 23.5465 6.82156 27.6521 8.43757 31.1898C10.0099 34.6839 12.8052 37.6102 16.2337 39.3573C19.2256 40.8859 22.676 41.4756 26.0172 41.0825C30.1009 40.602 33.9881 38.5711 36.7178 35.5138C40.1464 31.7358 41.8061 26.3418 40.8671 21.319C40.7797 20.6857 40.5395 20.0524 40.736 19.441C41.5659 16.8423 43.0509 14.4619 45.0163 12.562C47.7679 17.6939 48.5977 23.8523 47.2438 29.5301C45.7588 35.9942 41.413 41.7376 35.6259 44.9478C31.5859 47.2408 26.8689 48.289 22.261 47.9614C17.5222 47.6339 12.9144 45.8432 9.18006 42.895C5.03084 39.6193 1.97351 34.9678 0.706907 29.8359C-0.712565 24.2017 0.0299281 18.0652 2.71601 12.9114C5.35841 7.86682 9.83521 3.80495 15.1418 1.68666ZM40.7579 5.09339C45.2565 1.5338 51.0654 -0.300599 56.7651 0.0488096C62.6832 0.332704 68.4703 2.9751 72.5759 7.23352C76.9435 11.6885 79.433 17.8905 79.3675 24.1362C79.4112 31.7576 75.5022 39.2699 69.2565 43.6157C63.0327 48.0925 54.6032 49.2062 47.3748 46.6512C45.06 45.8432 42.898 44.6421 40.9762 43.1571C42.6578 41.6066 44.2083 39.9032 45.4094 37.9378C48.1391 39.9251 51.4367 41.1043 54.7997 41.1917C58.6432 41.3445 62.5522 40.1434 65.6314 37.8504C68.7105 35.5793 71.0254 32.2381 72.0081 28.5256C73.1 24.4637 72.6414 20.0306 70.7633 16.2745C69.1255 12.9988 66.3957 10.269 63.12 8.63116C60.1064 7.10249 56.6123 6.51287 53.2492 6.94963C49.5804 7.40823 46.1082 9.15527 43.4876 11.754C40.6268 14.5711 38.8143 18.3928 38.443 22.3891C38.2465 24.289 38.443 26.2108 38.7051 28.0888C38.2028 30.9715 36.4558 33.5265 34.3156 35.4701C31.9571 31.1025 30.9963 26.0142 31.6296 21.0788C32.4376 14.8113 35.7788 8.93689 40.7579 5.09339ZM85.7879 1.86137C88.8234 1.86137 91.8589 1.86137 94.9162 1.86137C94.938 8.50013 94.8725 15.1607 94.938 21.7995C95.4185 21.4282 95.7897 20.9478 96.1609 20.4674C101.271 14.2654 106.381 8.06337 111.469 1.86137C114.854 1.83953 118.239 1.86137 121.646 1.86137C116.274 8.28175 110.923 14.724 105.551 21.1443C111.273 29.2244 117.038 37.2826 122.76 45.3627C119.135 45.3627 115.488 45.3627 111.863 45.3627C107.56 39.2917 103.258 33.2426 98.9562 27.1935C97.6023 28.8095 96.2701 30.4473 94.9162 32.0415C94.8943 36.4746 94.9162 40.9296 94.9162 45.3627C91.8807 45.3627 88.8452 45.3627 85.8097 45.3627C85.766 30.8841 85.7879 16.3618 85.7879 1.86137ZM125.315 1.86137C127.848 1.86137 130.403 1.86137 132.936 1.86137C138.112 9.08975 143.287 16.2963 148.463 23.5247C150.123 25.7958 151.695 28.1107 153.398 30.3382C153.529 29.3554 153.464 28.3727 153.464 27.4119C153.464 18.895 153.464 10.3782 153.464 1.86137C156.368 1.86137 159.273 1.86137 162.177 1.86137C162.177 16.3618 162.177 30.8623 162.177 45.3627C159.666 45.3627 157.155 45.3627 154.643 45.3627C148.288 36.4746 141.933 27.5866 135.6 18.6985C135.098 18.0433 134.705 17.3009 134.072 16.7549C134.006 26.2981 134.072 35.8413 134.05 45.3846C131.145 45.3846 128.219 45.3846 125.315 45.3846C125.315 30.8841 125.315 16.3618 125.315 1.86137ZM168.183 1.86137C171.218 1.86137 174.254 1.86137 177.311 1.86137C177.311 8.52197 177.289 15.1607 177.333 21.8213C177.835 21.4282 178.228 20.926 178.621 20.4237C183.71 14.2435 188.798 8.06337 193.908 1.8832C197.293 1.8832 200.678 1.8832 204.063 1.8832C198.691 8.30358 193.34 14.7458 187.968 21.1662C193.711 29.2463 199.455 37.3045 205.176 45.3846C201.551 45.3846 197.926 45.3846 194.301 45.3846C189.977 39.3354 185.697 33.2645 181.395 27.2153C180.041 28.8313 178.709 30.4473 177.355 32.0634C177.333 36.4965 177.355 40.9514 177.355 45.3846C174.319 45.3846 171.284 45.3846 168.248 45.3846C168.183 30.8841 168.183 16.3618 168.183 1.86137ZM204.958 1.86137C208.277 1.86137 211.575 1.86137 214.894 1.86137C218.105 7.97601 221.315 14.1125 224.525 20.2271C224.634 20.6421 224.962 20.2708 225.027 20.0524C228.216 13.9815 231.404 7.93234 234.592 1.86137C237.846 1.86137 241.122 1.86137 244.376 1.86137C240.074 9.57019 235.793 17.3009 231.491 25.0097C230.771 26.3855 229.919 27.7176 229.242 29.1371C229.155 34.5529 229.242 39.9687 229.198 45.3627C226.163 45.3627 223.127 45.3627 220.092 45.3627C220.07 39.9469 220.135 34.5529 220.048 29.1589C218.039 25.3372 215.855 21.6029 213.802 17.8031C210.854 12.4965 207.906 7.18985 204.958 1.86137ZM247.28 2.40732C248.612 1.79585 250.381 2.58202 250.709 4.04517C251.124 5.4428 250.01 6.9933 248.569 7.08066C247.258 7.25536 245.926 6.22897 245.839 4.89685C245.686 3.87046 246.319 2.8004 247.28 2.40732ZM247.739 2.86592C246.341 3.21532 245.948 5.24626 247.084 6.11978C248.132 7.05882 249.988 6.31632 250.119 4.91869C250.381 3.63025 248.984 2.42915 247.739 2.86592ZM247.346 3.45554C247.957 3.52106 248.765 3.23716 249.224 3.78311C249.508 4.19804 249.18 4.65663 248.874 4.91869C249.071 5.20258 249.246 5.46464 249.442 5.74854C249.267 5.74854 248.94 5.74854 248.787 5.74854C248.569 5.37729 248.307 5.00604 247.913 4.8095C247.892 5.11523 247.87 5.4428 247.848 5.77037C247.717 5.77037 247.477 5.74854 247.346 5.74854C247.346 5.00604 247.346 4.21987 247.346 3.45554ZM247.87 3.87047C247.87 4.04517 247.87 4.39458 247.87 4.56928C248.263 4.50377 248.852 4.61296 248.765 4.02333C248.459 3.95782 248.175 3.91414 247.87 3.87047Z" fill="#131416"/>
</svg>
