<svg width="20" height="20" viewBox="0 0 20 20" fill="none" xmlns="http://www.w3.org/2000/svg">
<path fill-rule="evenodd" clip-rule="evenodd" d="M13.9727 0.833008C17.092 0.833008 19.1658 3.06055 19.166 6.25586V13.7441C19.1658 16.9395 17.0919 19.167 13.9717 19.167H6.02637C2.90613 19.167 0.832328 16.9404 0.833985 13.7441V6.25586C0.834178 3.0633 2.91249 0.833008 6.02539 0.833008H13.9727ZM6.02637 2.20801C3.69264 2.20801 2.20727 3.80308 2.20801 6.25586V13.7441C2.20817 16.2015 3.68897 17.792 6.02637 17.792H13.9717C16.31 17.792 17.7918 16.2015 17.792 13.7441V6.25586C17.7918 3.7985 16.31 2.20801 13.9727 2.20801H6.02637ZM9.98926 8.74121C10.1554 8.74122 10.3162 8.80193 10.4414 8.91113C10.5665 9.02023 10.6482 9.17057 10.6709 9.33496L10.6768 9.42871V13.4805C10.6762 13.6545 10.6103 13.8223 10.4912 13.9492C10.3723 14.076 10.2096 14.1533 10.0361 14.165C9.86254 14.1767 9.69058 14.1216 9.55567 14.0117C9.42074 13.9018 9.33231 13.7447 9.30859 13.5723L9.30176 13.4805V9.42871C9.30182 9.24645 9.37503 9.07126 9.50391 8.94238C9.63269 8.81379 9.80726 8.74134 9.98926 8.74121ZM9.99902 5.83301C10.173 5.83309 10.3406 5.89888 10.4678 6.01758C10.5951 6.1365 10.6727 6.29985 10.6846 6.47363C10.6964 6.64729 10.642 6.81905 10.5322 6.9541C10.4224 7.08912 10.2652 7.17735 10.0928 7.20117L9.98926 7.20801C9.81524 7.20783 9.64767 7.14127 9.52051 7.02246C9.39336 6.9036 9.31562 6.74103 9.30371 6.56738C9.29184 6.39363 9.34715 6.22203 9.45703 6.08691C9.56696 5.95179 9.72392 5.86261 9.89649 5.83887L9.99902 5.83301Z" fill="#4D5053"/>
</svg>
