<svg width="40" height="40" viewBox="0 0 40 40" fill="none" xmlns="http://www.w3.org/2000/svg">
<path d="M34.9128 13.8382C34.8959 12.5759 34.6596 11.3261 34.2144 10.1448C33.8283 9.14843 33.2387 8.24351 32.483 7.4879C31.7274 6.73228 30.8225 6.1426 29.8261 5.75651C28.66 5.31877 27.4281 5.08208 26.1828 5.05651C24.5794 4.98484 24.0711 4.96484 20.0011 4.96484C15.9311 4.96484 15.4094 4.96484 13.8178 5.05651C12.573 5.08227 11.3417 5.31896 10.1761 5.75651C9.17952 6.14233 8.27446 6.73192 7.51882 7.48757C6.76317 8.24321 6.17358 9.14827 5.78776 10.1448C5.34915 11.3101 5.11297 12.5417 5.08943 13.7865C5.01776 15.3915 4.99609 15.8998 4.99609 19.9698C4.99609 24.0398 4.99609 24.5598 5.08943 26.1532C5.11443 27.3998 5.34943 28.6298 5.78776 29.7982C6.17422 30.7944 6.76425 31.6991 7.52015 32.4545C8.27605 33.2098 9.1812 33.7991 10.1778 34.1849C11.3401 34.6402 12.5717 34.8938 13.8194 34.9348C15.4244 35.0065 15.9328 35.0282 20.0028 35.0282C24.0728 35.0282 24.5944 35.0282 26.1861 34.9348C27.4314 34.9103 28.6634 34.6742 29.8294 34.2365C30.8256 33.85 31.7303 33.2601 32.4858 32.5046C33.2414 31.749 33.8312 30.8443 34.2178 29.8482C34.6561 28.6815 34.8911 27.4515 34.9161 26.2032C34.9878 24.5998 35.0094 24.0915 35.0094 20.0198C35.0061 15.9498 35.0061 15.4332 34.9128 13.8382ZM19.9911 27.6665C15.7344 27.6665 12.2861 24.2182 12.2861 19.9615C12.2861 15.7048 15.7344 12.2565 19.9911 12.2565C22.0346 12.2565 23.9944 13.0683 25.4394 14.5133C26.8843 15.9582 27.6961 17.918 27.6961 19.9615C27.6961 22.005 26.8843 23.9648 25.4394 25.4098C23.9944 26.8547 22.0346 27.6665 19.9911 27.6665ZM28.0028 13.7682C27.7668 13.7684 27.533 13.7221 27.3149 13.6319C27.0969 13.5416 26.8987 13.4093 26.7318 13.2424C26.565 13.0756 26.4326 12.8774 26.3424 12.6593C26.2522 12.4412 26.2059 12.2075 26.2061 11.9715C26.2061 11.7357 26.2525 11.5022 26.3428 11.2843C26.433 11.0664 26.5653 10.8684 26.7321 10.7017C26.8988 10.5349 27.0968 10.4026 27.3147 10.3124C27.5326 10.2221 27.7661 10.1757 28.0019 10.1757C28.2378 10.1757 28.4713 10.2221 28.6892 10.3124C28.907 10.4026 29.105 10.5349 29.2718 10.7017C29.4385 10.8684 29.5708 11.0664 29.6611 11.2843C29.7513 11.5022 29.7978 11.7357 29.7978 11.9715C29.7978 12.9648 28.9944 13.7682 28.0028 13.7682Z" fill="#808386"/>
<path d="M19.9911 24.9662C22.7552 24.9662 24.9961 22.7253 24.9961 19.9612C24.9961 17.197 22.7552 14.9562 19.9911 14.9562C17.2269 14.9562 14.9861 17.197 14.9861 19.9612C14.9861 22.7253 17.2269 24.9662 19.9911 24.9662Z" fill="#808386"/>
</svg>
