<svg width="28" height="28" viewBox="0 0 28 28" fill="none" xmlns="http://www.w3.org/2000/svg">
<path fill-rule="evenodd" clip-rule="evenodd" d="M13.2199 2.35785C14.5501 2.35789 15.8292 2.87025 16.7916 3.78856C17.7541 4.70687 18.3258 5.96057 18.3882 7.28935L18.394 7.53202V8.62052C18.394 8.84221 18.3098 9.05561 18.1584 9.21761C18.0071 9.3796 17.7999 9.4781 17.5787 9.49321C17.3575 9.50832 17.1388 9.43891 16.9669 9.29901C16.7949 9.15911 16.6824 8.95914 16.6522 8.73952L16.644 8.62052V7.53202C16.6441 6.6586 16.3103 5.81819 15.7111 5.18275C15.1119 4.54731 14.2925 4.16487 13.4205 4.11368L13.2199 4.10785H7.53237C6.65916 4.10813 5.81904 4.44202 5.18385 5.04121C4.54866 5.6404 4.16638 6.45963 4.11521 7.33135L4.10938 7.53202V20.517C4.10934 21.3902 4.44293 22.2305 5.04191 22.8659C5.64089 23.5013 6.46 23.8839 7.33171 23.9353L7.53237 23.9423H13.2315C14.1019 23.9424 14.9393 23.6098 15.5726 23.0128C16.2058 22.4158 16.587 21.5993 16.6382 20.7305L16.644 20.531V19.4297C16.6444 19.2081 16.7288 18.9949 16.8803 18.8331C17.0317 18.6713 17.2389 18.5731 17.46 18.5581C17.6811 18.5431 17.8996 18.6126 18.0715 18.7525C18.2433 18.8924 18.3557 19.0923 18.3859 19.3118L18.394 19.4297V20.531C18.3935 21.8564 17.8832 23.1308 16.9689 24.0903C16.0546 25.0499 14.8062 25.621 13.4824 25.6853L13.2315 25.6923H7.53237C6.20214 25.6923 4.92301 25.1799 3.9606 24.2616C2.99819 23.3433 2.42643 22.0896 2.36404 20.7608L2.35938 20.517V7.53318C2.35938 6.20333 2.87143 4.92454 3.78924 3.96218C4.70706 2.99983 5.96018 2.42782 7.28854 2.36485L7.53237 2.35902H13.2199V2.35785ZM26.0497 13.3933C26.1357 13.4752 26.204 13.5738 26.2506 13.683C26.2971 13.7922 26.3209 13.9097 26.3205 14.0284C26.32 14.1471 26.2954 14.2645 26.248 14.3734C26.2007 14.4822 26.1316 14.5803 26.045 14.6615L22.6454 18.0483C22.4887 18.2037 22.279 18.2942 22.0585 18.3015C21.8379 18.3089 21.6227 18.2326 21.456 18.0881C21.2893 17.9435 21.1833 17.7412 21.1594 17.5218C21.1355 17.3024 21.1954 17.0821 21.327 16.905L21.411 16.8082L23.3244 14.9007H11.3964C11.1748 14.9003 10.9616 14.8159 10.7998 14.6645C10.638 14.513 10.5398 14.3058 10.5248 14.0847C10.5098 13.8637 10.5793 13.6451 10.7192 13.4733C10.8591 13.3014 11.059 13.1891 11.2785 13.1588L11.3964 13.1507H23.3267L21.411 11.2455C21.2622 11.0976 21.1715 10.9011 21.1554 10.6919C21.1394 10.4826 21.199 10.2746 21.3235 10.1057L21.4087 10.0077C21.5566 9.85915 21.7528 9.76861 21.9618 9.75256C22.1708 9.7365 22.3786 9.79598 22.5474 9.92018L22.6454 10.0053L26.0497 13.3945V13.3933Z" fill="#4D5053"/>
</svg>
