<svg width="54" height="36" viewBox="0 0 54 36" fill="none" xmlns="http://www.w3.org/2000/svg">
<path d="M12.3893 4.61641C15.4574 3.38135 18.9416 3.29034 22.0748 4.3174C23.5699 4.81142 24.9609 5.55246 26.235 6.48851C25.2339 7.42456 24.3629 8.47761 23.5829 9.60867C21.9708 8.39961 19.9687 7.72357 17.9406 7.67157C15.7435 7.59357 13.5203 8.2696 11.7392 9.55667C9.78915 10.9607 8.37207 13.0668 7.80004 15.381C7.24102 17.6301 7.43603 20.0742 8.39808 22.1803C9.33412 24.2604 10.9982 26.0025 13.0393 27.0426C14.8204 27.9526 16.8745 28.3036 18.8636 28.0696C21.2947 27.7836 23.6089 26.5745 25.2339 24.7544C27.275 22.5053 28.2631 19.2942 27.7041 16.304C27.6521 15.927 27.5091 15.55 27.6261 15.186C28.1201 13.6389 29.0041 12.2218 30.1742 11.0907C31.8123 14.1459 32.3063 17.8121 31.5003 21.1923C30.6162 25.0405 28.0291 28.4596 24.5839 30.3707C22.1788 31.7358 19.3706 32.3598 16.6275 32.1648C13.8064 31.9698 11.0632 30.9038 8.8401 29.1487C6.36997 27.1986 4.54988 24.4294 3.79584 21.3743C2.95079 18.0201 3.39282 14.3669 4.9919 11.2988C6.56498 8.2956 9.23012 5.87748 12.3893 4.61641ZM27.6391 6.64452C30.3172 4.52541 33.7754 3.43335 37.1686 3.64136C40.6917 3.81037 44.1369 5.38345 46.581 7.91858C49.1812 10.5707 50.6633 14.2629 50.6243 17.9811C50.6503 22.5183 48.3231 26.9906 44.6049 29.5777C40.8997 32.2428 35.8815 32.9059 31.5783 31.3848C30.2002 30.9038 28.9131 30.1887 27.7691 29.3047C28.7701 28.3816 29.6932 27.3676 30.4082 26.1975C32.0333 27.3806 33.9964 28.0826 35.9985 28.1346C38.2866 28.2256 40.6137 27.5106 42.4468 26.1455C44.2799 24.7935 45.658 22.8043 46.243 20.5942C46.8931 18.1761 46.62 15.537 45.502 13.3009C44.5269 11.3508 42.9019 9.72568 40.9518 8.75062C39.1577 7.84058 37.0776 7.48956 35.0754 7.74957C32.8913 8.02259 30.8242 9.06264 29.2642 10.6097C27.5611 12.2868 26.482 14.5619 26.261 16.941C26.144 18.0721 26.261 19.2162 26.417 20.3342C26.118 22.0503 25.0779 23.5714 23.8039 24.7284C22.3998 22.1283 21.8278 19.0992 22.2048 16.161C22.6858 12.4298 24.6749 8.93263 27.6391 6.64452Z" fill="white"/>
<path d="M48.9375 6.75C47.9996 6.75 47.25 6.00458 47.25 5.06063C47.25 4.12042 47.9959 3.375 48.9375 3.375C49.8791 3.375 50.625 4.11668 50.625 5.06063C50.625 6.00458 49.8791 6.75 48.9375 6.75ZM48.9375 6.44284C49.7019 6.44284 50.3001 5.83227 50.3001 5.06063C50.3001 4.28898 49.7019 3.67841 48.9375 3.67841C48.1768 3.67841 47.5749 4.28898 47.5749 5.06063C47.5749 5.83227 48.1768 6.44284 48.9375 6.44284ZM48.583 5.86224H48.3024V4.18036H49.0483C49.3843 4.18036 49.6169 4.39387 49.6169 4.69354C49.6169 4.95949 49.4729 5.13929 49.2218 5.18799L49.6982 5.86224H49.3511L48.9264 5.22544H48.583V5.86224ZM48.583 4.42758V4.99695H48.9892C49.196 4.99695 49.3141 4.89206 49.3141 4.70477C49.3141 4.52497 49.1997 4.42758 48.9929 4.42758H48.583Z" fill="white"/>
</svg>
