<svg width="36" height="36" viewBox="0 0 36 36" fill="none" xmlns="http://www.w3.org/2000/svg">
<path d="M29.6697 16.7626H6.32916C5.68677 16.7626 5.16602 17.2834 5.16602 17.9258V18.0742C5.16602 18.7166 5.68677 19.2374 6.32916 19.2374H29.6697C30.3121 19.2374 30.8329 18.7166 30.8329 18.0742V17.9258C30.8329 17.2834 30.3121 16.7626 29.6697 16.7626Z" fill="white"/>
<path d="M29.6697 23.6919H6.32916C5.68677 23.6919 5.16602 24.2127 5.16602 24.855V25.0035C5.16602 25.6459 5.68677 26.1667 6.32916 26.1667H29.6697C30.3121 26.1667 30.8329 25.6459 30.8329 25.0035V24.855C30.8329 24.2127 30.3121 23.6919 29.6697 23.6919Z" fill="white"/>
<path d="M29.6697 9.83334H6.32916C5.68677 9.83334 5.16602 10.3536 5.16602 10.9953V11.1437C5.16602 11.7854 5.68677 12.3056 6.32916 12.3056H29.6697C30.3121 12.3056 30.8329 11.7854 30.8329 11.1437V10.9953C30.8329 10.3536 30.3121 9.83334 29.6697 9.83334Z" fill="white"/>
</svg>
