<svg width="32" height="32" viewBox="0 0 32 32" fill="none" xmlns="http://www.w3.org/2000/svg">
<path d="M4.1475 17.9252C4.9657 17.9252 5.62898 17.2619 5.62898 16.4437C5.62898 15.6255 4.9657 14.9622 4.1475 14.9622C3.3293 14.9622 2.66602 15.6255 2.66602 16.4437C2.66602 17.2619 3.3293 17.9252 4.1475 17.9252Z" fill="white"/>
<path d="M27.9401 14.9622H9.98455C9.21545 14.9622 8.59196 15.5857 8.59196 16.3548V16.5326C8.59196 17.3017 9.21545 17.9252 9.98455 17.9252H27.9401C28.7092 17.9252 29.3327 17.3017 29.3327 16.5326V16.3548C29.3327 15.5857 28.7092 14.9622 27.9401 14.9622Z" fill="white"/>
<path d="M27.9401 23.2585H4.05861C3.2895 23.2585 2.66602 23.882 2.66602 24.6511V24.8288C2.66602 25.5979 3.2895 26.2214 4.05861 26.2214H27.9401C28.7092 26.2214 29.3327 25.5979 29.3327 24.8288V24.6511C29.3327 23.882 28.7092 23.2585 27.9401 23.2585Z" fill="white"/>
<path d="M27.9401 6.66602H4.05861C3.2895 6.66602 2.66602 7.28888 2.66602 8.05722V8.23482C2.66602 9.00315 3.2895 9.62602 4.05861 9.62602H27.9401C28.7092 9.62602 29.3327 9.00315 29.3327 8.23482V8.05722C29.3327 7.28888 28.7092 6.66602 27.9401 6.66602Z" fill="white"/>
</svg>
