<svg width="12" height="12" viewBox="0 0 12 12" fill="none" xmlns="http://www.w3.org/2000/svg">
<path d="M0.741211 2.22445C0.741211 1.40542 1.40517 0.741455 2.22421 0.741455H9.63921C10.4582 0.741455 11.1222 1.40542 11.1222 2.22446V9.63946C11.1222 10.4585 10.4582 11.1225 9.63921 11.1225H2.22421C1.40517 11.1225 0.741211 10.4585 0.741211 9.63946V2.22445Z" fill="#7A29CC"/>
<g clip-path="url(#clip0_226_15082)">
<path fill-rule="evenodd" clip-rule="evenodd" d="M8.97426 7.78572L8.83843 8.67533C8.82452 8.73902 8.79145 8.79568 8.74458 8.83609C8.69771 8.87651 8.6398 8.89831 8.58025 8.89796H3.28396C3.22441 8.89831 3.1665 8.87651 3.11963 8.83609C3.07276 8.79568 3.03969 8.73902 3.02578 8.67533L2.88995 7.78572H8.97426ZM5.92233 2.59546C6.00828 2.59157 6.089 2.63347 6.14107 2.7065L7.84365 5.08113L9.22771 4.08012C9.272 4.04825 9.32387 4.0315 9.37679 4.03196C9.42971 4.03242 9.48133 4.05008 9.52515 4.08271C9.61464 4.14982 9.65694 4.2692 9.63301 4.38394L9.09643 7.04423H2.76761L2.23137 4.38413C2.20778 4.2729 2.24705 4.15686 2.33147 4.08864C2.37303 4.05532 2.42242 4.03585 2.47376 4.03256C2.52509 4.02928 2.57621 4.04231 2.62099 4.07011L4.25987 5.08632L5.71151 2.72374C5.73499 2.6856 5.76632 2.65409 5.80295 2.63177C5.83958 2.60945 5.88048 2.59713 5.92233 2.59546Z" fill="white"/>
</g>
<defs>
<clipPath id="clip0_226_15082">
<rect width="8.1565" height="8.1565" fill="white" transform="translate(1.85352 1.85376)"/>
</clipPath>
</defs>
</svg>
