<svg width="40" height="40" viewBox="0 0 40 40" fill="none" xmlns="http://www.w3.org/2000/svg">
<path fill-rule="evenodd" clip-rule="evenodd" d="M35 13.8333C35 12.5 34.6667 11.3333 34.3333 10.1667C33.5 8.16667 32 6.5 30 5.83333C28.8333 5.33333 27.6667 5.16667 26.3333 5.16667C24.6667 5 24 5 20 5C16 5 15.3333 5 13.8333 5.16667C12.5 5.16667 11.3333 5.5 10.1667 5.83333C8.16667 6.5 6.5 8.16667 5.83333 10.1667C5.36434 11.261 5.18862 12.5019 5.03109 13.6144L5 13.8333V26.1667C5 27.5 5.33333 28.6667 5.66667 29.8333C6.5 31.8333 8 33.5 10 34.1667C11.3333 34.6667 12.5 35 13.8333 35H20C24 35 24.6667 35 26.1667 34.8333C27.5 34.8333 28.6667 34.5 29.8333 34.1667C31.8333 33.3333 33.5 31.8333 34.1667 29.8333C34.6667 28.6667 34.8333 27.5 34.8333 26.1667C34.8333 25.5129 34.859 25.0386 34.8901 24.4622L34.8902 24.4621C34.9384 23.5691 35 22.4309 35 20V13.8333ZM27.3326 18.69C28.2405 18.0564 29.3527 18.3233 30.1841 18.9702C31.0732 19.6626 31.1476 21.0328 30.4837 21.9501C30.3768 22.0974 30.0182 22.4628 30.0163 22.4266L29.6426 22.6982C29.6587 23.9841 29.4117 25.4222 28.5183 26.4571C28.4786 26.5031 28.4377 26.5508 28.3958 26.5996C28.0116 27.0476 27.5411 27.596 27.0628 27.8952C26.7939 28.0637 26.5017 28.2101 26.2103 28.3562C26.0187 28.4522 25.8275 28.548 25.6435 28.6499C25.3778 28.7966 25.0813 28.914 24.7889 29.0297C24.5523 29.1234 24.3183 29.216 24.1055 29.3223L23.7659 29.4413C23.571 29.5234 23.3707 29.5935 23.1656 29.6439C22.4674 29.8168 21.7243 29.8463 21.0091 29.8617C19.9329 29.8845 18.749 29.8724 17.6927 29.6426C16.0667 29.2888 14.4197 28.5266 13.1789 27.405C12.6103 26.8915 12.1413 26.2783 11.82 25.5812C11.6062 25.1179 11.4951 24.6246 11.3839 24.1303C11.3578 24.0145 11.3317 23.8986 11.3043 23.7831C11.2581 23.5882 11.1631 22.8923 11.1631 22.6985C10.9698 22.5909 10.2941 21.8268 10.1419 21.5514C9.86914 21.0561 9.78324 20.4387 10.034 19.9393C10.5797 18.851 11.3199 17.9721 12.657 18.3249C13.1805 18.4629 13.5577 18.6752 14.0162 18.9619L14.4581 18.5541C15.0841 17.8196 16.1442 17.4196 17.0734 17.2368C17.9834 17.058 19.0827 16.858 20.0234 16.9235L20.2328 16.0736C20.4188 15.6018 20.5414 14.9983 20.6373 14.5259C20.6502 14.4624 20.6626 14.4013 20.6747 14.3432C20.7317 14.0672 20.7715 13.7934 20.8112 13.52C20.8749 13.0808 20.9386 12.6425 21.0736 12.198C21.1117 12.0726 21.1382 11.9524 21.1629 11.8406C21.2602 11.3995 21.3286 11.0894 21.9654 11.1145C22.2833 11.1271 22.5966 11.2334 22.9092 11.3396C23.1153 11.4095 23.3211 11.4794 23.5278 11.5223C23.7705 11.5725 24.0038 11.6029 24.2331 11.6327C24.6685 11.6892 25.0893 11.7439 25.5321 11.9298L25.804 11.5564C26.4528 10.6863 28.0144 10.8557 28.5471 11.9317C29.1371 13.1247 28.1052 14.5459 26.8212 14.4436C26.1916 14.3934 25.6255 13.9749 25.498 13.4245L25.3619 12.8812C25.0727 12.6314 24.5 12.548 24.0494 12.4825C23.947 12.4676 23.8509 12.4536 23.7659 12.4388C23.4415 12.3825 23.1272 12.3438 22.81 12.3049C22.5677 12.2751 22.3236 12.2451 22.072 12.2068C21.9332 12.6502 21.8354 13.1099 21.7374 13.5708C21.6686 13.8944 21.5996 14.2187 21.5163 14.5383C21.4561 14.7689 21.4135 15.0009 21.3705 15.2355C21.3444 15.3779 21.3181 15.5213 21.2875 15.6658C21.2814 15.6949 21.2746 15.7273 21.2671 15.7625C21.1979 16.0902 21.0777 16.659 21.0438 16.9576C21.0438 16.9576 22.2065 17.0035 22.6113 17.0594C23.0075 17.1143 23.3981 17.2583 23.7763 17.3977C23.8156 17.4122 23.8547 17.4266 23.8937 17.4409C23.9803 17.4726 24.0672 17.5037 24.154 17.5348C24.6095 17.6979 25.0648 17.861 25.4891 18.1117C25.6704 18.2188 25.8825 18.3019 26.0974 18.3861C26.4538 18.5258 26.8176 18.6684 27.0606 18.9278L27.3326 18.69ZM15.2793 21.7957C15.1459 22.1093 15.213 22.593 15.3555 22.9095C15.962 24.2625 18.3837 23.939 18.4325 22.4013C18.447 21.9506 18.4358 21.5361 18.1066 21.2244C17.7885 20.9227 17.4489 20.6808 17.0054 20.6432C16.1971 20.5756 15.584 21.0805 15.2793 21.7957ZM23.343 27.1231C23.7375 26.9845 24.2683 26.798 24.3586 26.4166C24.4045 26.2222 24.2993 25.9943 24.1143 25.9106C23.9134 25.8191 23.7542 25.9696 23.6112 26.1048C23.5762 26.1379 23.5422 26.1701 23.5087 26.1975C23.3248 26.3489 23.1205 26.4561 22.8985 26.5406C22.5082 26.6896 22.135 26.7849 21.7946 26.8601C21.4363 26.939 21.109 26.9935 20.7418 26.9782L20.6968 26.9764C20.0758 26.951 19.4604 26.9258 18.8564 26.8254C18.3625 26.7438 17.7606 26.5637 17.3832 26.2093C17.3639 26.1914 17.3452 26.1735 17.3268 26.1559C17.1567 25.9934 17.0125 25.8556 16.7332 25.9079C16.3362 25.9822 16.4621 26.4115 16.6997 26.6048C16.9987 26.8488 17.3625 27.1425 17.6948 27.2799C18.1069 27.4504 18.505 27.5452 18.9399 27.6174C19.3569 27.6861 19.7818 27.6745 20.2062 27.663C20.4465 27.6564 20.6867 27.6499 20.9251 27.6579C21.8459 27.6896 22.4269 27.4896 23.1017 27.212C23.1706 27.1837 23.2533 27.1547 23.343 27.1231ZM24.6649 23.7063C25.0666 23.5004 25.4233 23.2894 25.5369 22.8507C25.6464 22.4263 25.6937 22.0121 25.5108 21.6064C25.1785 20.8663 24.4394 20.5745 23.6663 20.655C23.3275 20.6905 22.9366 20.9839 22.7289 21.2612C21.84 22.448 23.2961 24.4088 24.6649 23.7063Z" fill="#808386"/>
</svg>
