<svg width="24" height="24" viewBox="0 0 24 24" fill="none" xmlns="http://www.w3.org/2000/svg">
<path d="M18.0621 7.61048H15.8605C15.4152 7.61048 15.0538 7.97132 15.0538 8.41713C15.0538 8.86294 15.4152 9.22378 15.8605 9.22378H18.0626C18.5073 9.22378 18.8693 9.58569 18.8693 10.0304V20.5792C18.8693 21.024 18.5073 21.3859 18.0626 21.3859H5.93655C5.49181 21.3859 5.1299 21.024 5.1299 20.5792V10.0304C5.1299 9.58569 5.49181 9.22378 5.93655 9.22378H8.13869C8.5845 9.22378 8.94534 8.86294 8.94534 8.41713C8.94534 7.97132 8.5845 7.61048 8.13869 7.61048H5.93655C4.60235 7.61048 3.5166 8.69623 3.5166 10.0304V20.5792C3.5166 21.9134 4.60235 22.9992 5.93655 22.9992H18.0626C19.3968 22.9992 20.4826 21.9134 20.4826 20.5792V10.0304C20.482 8.69569 19.3968 7.61048 18.0621 7.61048ZM8.99159 5.98213L11.2196 3.75417V14.374C11.2196 14.8192 11.5804 15.1806 12.0262 15.1806C12.472 15.1806 12.8328 14.8192 12.8328 14.374V3.75417L15.0608 5.98213C15.2184 6.13969 15.4249 6.21821 15.6314 6.21821C15.8379 6.21821 16.0444 6.13969 16.2019 5.98213C16.5171 5.66753 16.5171 5.15612 16.2019 4.84153L12.5973 1.23635C12.2816 0.921217 11.7713 0.921217 11.4562 1.23635L7.85099 4.84153C7.53586 5.15612 7.53586 5.66753 7.85099 5.98213C8.16612 6.29726 8.67646 6.29726 8.99159 5.98213Z" fill="#435EFB"/>
</svg>
