<svg width="40" height="40" viewBox="0 0 40 40" fill="none" xmlns="http://www.w3.org/2000/svg">
<path d="M35 13.8333C35 12.5 34.6667 11.3333 34.3333 10.1667C33.5 8.16667 32 6.5 30 5.83333C28.8333 5.33333 27.6667 5.16667 26.3333 5.16667C24.6667 5 24 5 20 5C16 5 15.3333 5 13.8333 5.16667C12.5 5.16667 11.3333 5.5 10.1667 5.83333C8.16667 6.5 6.5 8.16667 5.83333 10.1667C5.33333 11.3333 5.16667 12.6667 5 13.8333C5 15.5 5 16 5 20C5 24.1667 5 24.6667 5 26.1667C5 27.5 5.33333 28.6667 5.66667 29.8333C6.5 31.8333 8 33.5 10 34.1667C11.3333 34.6667 12.5 35 13.8333 35C15.3333 35 16 35 20 35C24 35 24.6667 35 26.1667 34.8333C27.5 34.8333 28.6667 34.5 29.8333 34.1667C31.8333 33.3333 33.5 31.8333 34.1667 29.8333C34.6667 28.6667 34.8333 27.5 34.8333 26.1667C34.8333 24.5 35 24 35 20C35 16 35 15.5 35 13.8333Z" fill="#808386"/>
<path d="M10.9294 19.0837L27.7382 12.6028C28.5184 12.3209 29.1997 12.7931 28.9469 13.9727L28.9484 13.9713L26.0864 27.4546C25.8743 28.4106 25.3062 28.643 24.5116 28.1927L20.1532 24.9805L18.051 27.0057C17.8185 27.2382 17.6224 27.4343 17.1721 27.4343L17.4815 22.9989L25.559 15.7016C25.9106 15.3921 25.4806 15.2178 25.0171 15.5258L15.035 21.8106L10.7318 20.4682C9.79768 20.1718 9.77734 19.534 10.9294 19.0837Z" fill="white"/>
</svg>
