<svg width="56" height="56" viewBox="0 0 56 56" fill="none" xmlns="http://www.w3.org/2000/svg">
<circle cx="28" cy="28" r="21" fill="white"/>
<path d="M27.9993 4.66699C15.1333 4.66699 4.66602 15.1343 4.66602 28.0003C4.66602 40.8663 15.1333 51.3337 27.9993 51.3337C40.8653 51.3337 51.3327 40.8663 51.3327 28.0003C51.3327 15.1343 40.8653 4.66699 27.9993 4.66699ZM24.3945 37.2378C23.8092 37.8231 22.8603 37.8237 22.2744 37.239L16.0866 31.0645C15.3049 30.2845 15.3033 29.0186 16.0831 28.2366L16.553 27.7653C17.3333 26.9829 18.6002 26.9814 19.3822 27.7621L22.9768 31.3504C23.1721 31.5454 23.4885 31.5452 23.6836 31.3501L34.2688 20.7649C35.0499 19.9838 36.3162 19.9838 37.0972 20.7649L37.5681 21.2358C38.3492 22.0168 38.3492 23.2832 37.5681 24.0642L24.3945 37.2378Z" fill="#AC1991"/>
</svg>
