<svg width="40" height="40" viewBox="0 0 40 40" fill="none" xmlns="http://www.w3.org/2000/svg">
<path fill-rule="evenodd" clip-rule="evenodd" d="M35 13.8333C35 12.5 34.6667 11.3333 34.3333 10.1667C33.5 8.16667 32 6.5 30 5.83333C28.8333 5.33333 27.6667 5.16667 26.3333 5.16667C24.6667 5 24 5 20 5C16 5 15.3333 5 13.8333 5.16667C12.5 5.16667 11.3333 5.5 10.1667 5.83333C8.16667 6.5 6.5 8.16667 5.83333 10.1667C5.36434 11.261 5.18862 12.5019 5.03109 13.6144L5 13.8333V26.1667C5 27.5 5.33333 28.6667 5.66667 29.8333C6.5 31.8333 8 33.5 10 34.1667C11.3333 34.6667 12.5 35 13.8333 35H20C24 35 24.6667 35 26.1667 34.8333C27.5 34.8333 28.6667 34.5 29.8333 34.1667C31.8333 33.3333 33.5 31.8333 34.1667 29.8333C34.6667 28.6667 34.8333 27.5 34.8333 26.1667C34.8333 25.5129 34.859 25.0386 34.8901 24.4622L34.8902 24.4621C34.9384 23.5691 35 22.4309 35 20V13.8333ZM25.2188 14.6333C25.9901 15.215 26.9505 15.5598 27.9914 15.5598C27.9921 15.5598 27.9993 15.5598 28 15.5593V16.3603V18.5195C26.9818 18.5198 25.9926 18.3203 25.0596 17.9267C24.4597 17.6734 23.9007 17.3471 23.3895 16.9527L23.4049 23.5987C23.3984 25.0953 22.8064 26.5013 21.7348 27.5604C20.8627 28.4225 19.7577 28.9708 18.56 29.1482C18.2786 29.1898 17.9922 29.2112 17.7026 29.2112C16.4205 29.2112 15.2032 28.7958 14.2075 28.0296C14.0201 27.8853 13.8409 27.7289 13.6703 27.5604C12.509 26.4126 11.9101 24.8569 12.0109 23.2204C12.0879 21.9746 12.5866 20.7866 13.4181 19.8554C14.5181 18.6231 16.0571 17.9392 17.7026 17.9392C17.9922 17.9392 18.2786 17.9609 18.56 18.0026V18.8009V21.0217C18.2932 20.9337 18.0082 20.8852 17.7115 20.8852C16.2081 20.8852 14.9919 22.1118 15.0144 23.6162C15.0286 24.5787 15.5544 25.4201 16.33 25.884C16.6944 26.102 17.1137 26.237 17.5611 26.2616C17.9117 26.2808 18.2483 26.232 18.56 26.1291C19.6341 25.7742 20.4089 24.7654 20.4089 23.5755L20.4125 19.1251V11H23.386C23.3888 11.2946 23.4187 11.5821 23.4743 11.8607C23.6987 12.9882 24.3343 13.9664 25.2188 14.6333ZM28 15.5591C28 15.5592 28 15.5592 28 15.5593V15.5591Z" fill="#808386"/>
</svg>
