<svg width="24" height="24" viewBox="0 0 24 24" fill="none" xmlns="http://www.w3.org/2000/svg">
<path fill-rule="evenodd" clip-rule="evenodd" d="M16.3341 2.529C16.0162 1.6006 15.1978 1 14.2694 1H9.7297L9.557 1.0066C9.10357 1.04704 8.67398 1.22763 8.32785 1.5233C7.98172 1.81898 7.73621 2.21507 7.62541 2.6566L7.35261 4.04481L7.32071 4.16691C7.25873 4.36031 7.13735 4.52926 6.97384 4.64972C6.81033 4.77018 6.613 4.83603 6.40992 4.83791H2.90314L2.79424 4.84561C2.59956 4.87551 2.4222 4.97462 2.2947 5.12475C2.1672 5.27488 2.09812 5.46596 2.10014 5.66291C2.10014 6.11831 2.45984 6.48791 2.90424 6.48791H21.097L21.2059 6.48021C21.4004 6.45033 21.5776 6.35138 21.7051 6.20148C21.8326 6.05158 21.9018 5.86077 21.9 5.66401C21.9015 5.55702 21.8818 5.45079 21.8422 5.3514C21.8025 5.25202 21.7437 5.16142 21.669 5.08479C21.5943 5.00817 21.5053 4.94702 21.4069 4.90485C21.3086 4.86267 21.2029 4.8403 21.0959 4.83901H17.5902L17.467 4.83131C17.2653 4.80276 17.0775 4.7116 16.9303 4.5707C16.7831 4.42979 16.6838 4.24624 16.6465 4.04591L16.3858 2.7083L16.333 2.5301L16.3341 2.529ZM15.2055 4.83901C15.1685 4.7448 15.1369 4.64858 15.1109 4.55081L15.0691 4.36821L14.8205 3.0812C14.7934 2.97427 14.736 2.87743 14.6552 2.80231C14.5744 2.72719 14.4737 2.67698 14.3651 2.6577L14.2705 2.65H9.7297C9.62506 2.65006 9.52242 2.67853 9.43271 2.7324C9.34301 2.78626 9.26962 2.86348 9.2204 2.9558L9.1918 3.0306L8.9311 4.36821C8.8981 4.53101 8.853 4.68831 8.7947 4.83791H15.2055V4.83901ZM19.6758 8.39201C20.0828 8.42501 20.393 8.76271 20.415 9.16862L20.404 9.39522L20.0586 13.6313L19.6956 17.7651C19.6186 18.5901 19.5504 19.2875 19.491 19.8353C19.2842 21.7449 18.0456 22.9263 16.1768 22.9604C13.3673 23.015 10.5569 23.0131 7.74751 22.9549C5.93252 22.9164 4.71153 21.7229 4.50913 19.8419L4.36833 18.457L4.12413 15.7697L3.87333 12.8217L3.58733 9.27972C3.56804 9.06441 3.63471 8.85022 3.77279 8.6839C3.91088 8.51758 4.10915 8.41265 4.32433 8.39201C4.73132 8.35901 5.08992 8.64062 5.17462 9.03772L5.20762 9.36222L5.47712 12.6809L5.77082 16.1206C5.90282 17.61 6.01612 18.8156 6.10742 19.6615C6.22292 20.7329 6.78721 21.284 7.78051 21.3049C10.4777 21.3632 13.2563 21.3643 16.1471 21.3104C17.2009 21.2906 17.7739 20.745 17.8916 19.6527L18.0313 18.2755C18.072 17.8509 18.1149 17.3812 18.1611 16.8719L18.4559 13.4894L18.8101 9.14882C18.823 8.95211 18.9068 8.76676 19.046 8.62717C19.1852 8.48759 19.3703 8.40325 19.5669 8.38981L19.6769 8.39201H19.6758Z" fill="#131416"/>
</svg>
