<svg width="20" height="20" viewBox="0 0 20 20" fill="none" xmlns="http://www.w3.org/2000/svg">
<circle cx="10" cy="10" r="6.875" fill="white"/>
<path d="M19.0102 9.12109L16.9926 7.10348V4.24565C16.9926 3.56022 16.4343 3.00192 15.7488 3.00192H12.8965L10.8789 0.984301C10.6357 0.74661 10.3206 0.625 10 0.625C9.67939 0.625 9.36431 0.74661 9.12109 0.984301L7.10348 3.00192H4.25118C3.56574 3.00192 3.00744 3.56022 3.00744 4.24565V7.10348L0.989829 9.12109C0.50339 9.602 0.50339 10.3925 0.989829 10.8789L3.00744 12.8965V15.7488C3.00744 16.4343 3.56574 16.9926 4.25118 16.9926H7.10348L9.12109 19.0102C9.36431 19.2534 9.67939 19.375 10 19.375C10.3206 19.375 10.6357 19.2534 10.8789 19.0102L12.8965 16.9926H15.7488C16.4343 16.9926 16.9926 16.4343 16.9926 15.7488V12.8965L19.0102 10.8789C19.4966 10.3925 19.4966 9.602 19.0102 9.12109ZM13.0292 8.7231L9.51356 12.2443C9.37537 12.3769 9.19848 12.4432 9.0216 12.4432C8.84471 12.4432 8.66782 12.3769 8.53516 12.2443L6.97081 10.6799C6.69996 10.409 6.69996 9.97236 6.97081 9.7015C7.24167 9.43065 7.67836 9.43065 7.94922 9.7015L9.0216 10.7794L12.0508 7.75022C12.3216 7.47936 12.7583 7.47936 13.0292 7.75022C13.3 8.01555 13.3 8.45777 13.0292 8.7231Z" fill="#138607"/>
</svg>
