<svg width="24" height="24" viewBox="0 0 24 24" fill="none" xmlns="http://www.w3.org/2000/svg">
<path d="M20.375 4H3.625C2.17759 4 1 5.17759 1 6.625V17.875C1 19.3224 2.17759 20.5 3.625 20.5H20.375C21.8224 20.5 23 19.3224 23 17.875V6.625C23 5.17759 21.8224 4 20.375 4ZM3.625 5.5H20.375C20.9953 5.5 21.5 6.0047 21.5 6.625V8.125H2.5V6.625C2.5 6.0047 3.0047 5.5 3.625 5.5ZM20.375 19H3.625C3.0047 19 2.5 18.4953 2.5 17.875V9.625H21.5V17.875C21.5 18.4953 20.9953 19 20.375 19Z" fill="#131416"/>
<path d="M6.25 16.75H5.5C5.08581 16.75 4.75 16.4142 4.75 16V15.25C4.75 14.8358 5.08581 14.5 5.5 14.5H6.25C6.66419 14.5 7 14.8358 7 15.25V16C7 16.4142 6.66419 16.75 6.25 16.75Z" fill="#131416"/>
</svg>
