<svg width="40" height="40" viewBox="0 0 40 40" fill="none" xmlns="http://www.w3.org/2000/svg">
<path d="M27.8263 29.1325H25.0327L12.1736 10.871H14.9673L27.8263 29.1325Z" fill="#808386"/>
<path fill-rule="evenodd" clip-rule="evenodd" d="M34.3333 10.1667C34.6667 11.3333 35 12.5 35 13.8333V20C35 22.4309 34.9384 23.5691 34.8902 24.4622C34.859 25.0386 34.8333 25.5129 34.8333 26.1667C34.8333 27.5 34.6667 28.6667 34.1667 29.8333C33.5 31.8333 31.8333 33.3333 29.8333 34.1667C28.6667 34.5 27.5 34.8333 26.1667 34.8333C24.6667 35 24 35 20 35H13.8333C12.5 35 11.3333 34.6667 10 34.1667C8 33.5 6.5 31.8333 5.66667 29.8333C5.33333 28.6667 5 27.5 5 26.1667V13.8333C5.01034 13.761 5.02067 13.688 5.03109 13.6144C5.18862 12.5019 5.36434 11.261 5.83333 10.1667C6.5 8.16667 8.16667 6.5 10.1667 5.83333C11.3333 5.5 12.5 5.16667 13.8333 5.16667C15.3333 5 16 5 20 5C24 5 24.6667 5 26.3333 5.16667C27.6667 5.16667 28.8333 5.33333 30 5.83333C32 6.5 33.5 8.16667 34.3333 10.1667ZM23.9553 29.9887L18.6227 22.2278L11.9462 29.9887H10.2207L17.8565 21.1131L10.2207 10H16.0447L21.0943 17.3491L27.4165 10H29.142L21.8607 18.464L29.7793 29.9887H23.9553Z" fill="#808386"/>
</svg>
