<svg width="40" height="40" viewBox="0 0 40 40" fill="none" xmlns="http://www.w3.org/2000/svg">
<path fill-rule="evenodd" clip-rule="evenodd" d="M4.58489 21.4363C4.23499 21.3858 3.9154 21.2126 3.68496 20.9486C3.45452 20.6845 3.32874 20.3475 3.33076 19.9994C3.32936 19.8104 3.36579 19.6231 3.43795 19.448C3.51011 19.2729 3.6166 19.1136 3.75134 18.979C3.88608 18.8444 4.04643 18.7373 4.22323 18.6637C4.40004 18.5902 4.58984 18.5516 4.78179 18.5502H31.6962L23.9324 10.8106L23.7905 10.6483C23.5827 10.3683 23.4824 10.0249 23.5074 9.67908C23.5324 9.33324 23.6811 9.0073 23.927 8.75911C24.0606 8.62453 24.2201 8.51752 24.3961 8.44435C24.5722 8.37119 24.7614 8.33334 24.9525 8.33301C25.1436 8.33268 25.3329 8.36989 25.5092 8.44246C25.6855 8.51503 25.8454 8.62149 25.9794 8.75562L36.2159 18.9518C36.356 19.0866 36.4677 19.2473 36.5445 19.4247C36.6214 19.6021 36.662 19.7926 36.664 19.9854C36.666 20.1782 36.6293 20.3696 36.5561 20.5484C36.4828 20.7273 36.3745 20.8902 36.2372 21.0278L25.9812 31.2449L25.8162 31.3846C25.537 31.5901 25.1915 31.6887 24.8439 31.6621C24.4963 31.6354 24.1705 31.4853 23.927 31.2396C23.6549 30.9651 23.5029 30.5964 23.5039 30.2128C23.5049 29.8292 23.6588 29.4613 23.9324 29.1881L31.6962 21.4503H4.78001L4.58489 21.4363Z" fill="#131416"/>
</svg>
