<svg width="25" height="24" viewBox="0 0 25 24" fill="none" xmlns="http://www.w3.org/2000/svg">
<path fill-rule="evenodd" clip-rule="evenodd" d="M3.2525 12.862C3.04256 12.8317 2.8508 12.7278 2.71254 12.5693C2.57427 12.4109 2.4988 12.2087 2.50002 11.9998C2.49918 11.8865 2.52104 11.774 2.56433 11.669C2.60763 11.564 2.67152 11.4683 2.75237 11.3876C2.83321 11.3068 2.92942 11.2426 3.0355 11.1984C3.14159 11.1543 3.25547 11.1311 3.37064 11.1303H19.5193L14.861 6.48658L14.7758 6.38915C14.6512 6.22117 14.591 6.01514 14.606 5.80764C14.621 5.60014 14.7102 5.40458 14.8578 5.25566C14.9379 5.17491 15.0336 5.11071 15.1392 5.06681C15.2449 5.02291 15.3584 5.0002 15.473 5C15.5877 4.99981 15.7013 5.02213 15.8071 5.06567C15.9129 5.10921 16.0088 5.17309 16.0892 5.25357L22.2311 11.3713C22.3152 11.4522 22.3822 11.5486 22.4283 11.655C22.4744 11.7614 22.4988 11.8758 22.5 11.9915C22.5011 12.1071 22.4791 12.2219 22.4352 12.3292C22.3913 12.4366 22.3263 12.5343 22.2439 12.6168L16.0903 18.7471L15.9913 18.8309C15.8238 18.9543 15.6165 19.0134 15.4079 18.9974C15.1994 18.9814 15.0039 18.8914 14.8578 18.744C14.6945 18.5793 14.6033 18.358 14.6039 18.1279C14.6045 17.8977 14.6968 17.677 14.861 17.5131L19.5193 12.8704H3.36957L3.2525 12.862Z" fill="#131416"/>
</svg>
