<svg width="25" height="24" viewBox="0 0 25 24" fill="none" xmlns="http://www.w3.org/2000/svg">
<path fill-rule="evenodd" clip-rule="evenodd" d="M21.7475 12.862C21.9574 12.8317 22.1492 12.7278 22.2875 12.5693C22.4257 12.4109 22.5012 12.2087 22.5 11.9998C22.5008 11.8865 22.479 11.774 22.4357 11.669C22.3924 11.564 22.3285 11.4683 22.2476 11.3876C22.1668 11.3068 22.0706 11.2426 21.9645 11.1984C21.8584 11.1543 21.7445 11.1311 21.6294 11.1303H5.48074L10.139 6.48658L10.2242 6.38915C10.3488 6.22117 10.409 6.01514 10.394 5.80764C10.379 5.60014 10.2898 5.40458 10.1422 5.25566C10.0621 5.17491 9.9664 5.11071 9.86075 5.06681C9.75511 5.02291 9.64163 5.0002 9.52695 5C9.41228 4.99981 9.29872 5.02213 9.19292 5.06567C9.08712 5.10921 8.99121 5.17309 8.9108 5.25357L2.76887 11.3713C2.68484 11.4522 2.61784 11.5486 2.57171 11.655C2.52559 11.7614 2.50123 11.8758 2.50005 11.9915C2.49886 12.1071 2.52086 12.2219 2.5648 12.3292C2.60874 12.4366 2.67374 12.5343 2.7561 12.6168L8.90973 18.7471L9.00872 18.8309C9.17621 18.9543 9.38355 19.0134 9.59209 18.9974C9.80063 18.9814 9.99615 18.8914 10.1422 18.744C10.3055 18.5793 10.3967 18.358 10.3961 18.1279C10.3955 17.8977 10.3032 17.677 10.139 17.5131L5.48074 12.8704H21.6304L21.7475 12.862Z" fill="#131416"/>
</svg>
