<svg width="91" height="28" viewBox="0 0 91 28" fill="none" xmlns="http://www.w3.org/2000/svg">
<path d="M48.9069 2.41084C48.9088 3.43125 48.9018 4.45215 48.9109 5.47256C48.6443 5.52837 48.374 5.58245 48.1252 5.696C47.2749 6.03523 46.5827 6.74523 46.2496 7.59912C46.1096 8.00317 46.0246 8.43101 46.0294 8.86006C46.0399 9.42132 45.9922 9.98113 46.0089 10.5429H48.8857V13.6226H46.0089V19.2499C46.0094 19.3783 46.0296 19.5059 46.0301 19.6343C46.0311 21.6433 46.029 23.6526 46.0309 25.6616C45.0218 25.6578 44.0123 25.6592 43.0032 25.6616V15.0421C43.0025 14.5688 42.9995 14.0955 42.9882 13.6226H41.0709V10.5429H42.9882C43.0395 9.48741 42.9195 8.41689 43.1424 7.3749C43.5738 5.51265 44.8578 3.84501 46.594 3.03428C47.3131 2.67296 48.102 2.44885 48.9069 2.41084Z" fill="white"/>
<path d="M67.3779 2.3999C68.3871 2.40904 69.3968 2.40188 70.4065 2.40381V25.6569C69.3968 25.6589 68.3871 25.6517 67.3779 25.6608C67.3875 20.5409 67.379 15.4207 67.3819 10.3007C67.3795 7.66709 67.3875 5.03302 67.3779 2.3999Z" fill="white"/>
<path fill-rule="evenodd" clip-rule="evenodd" d="M78.2205 9.04678C79.3629 8.83851 80.5413 8.83312 81.6832 9.04912C81.874 9.09722 82.0662 9.1426 82.2565 9.196C82.3053 9.21231 82.3546 9.22829 82.4044 9.24365C82.5808 9.30235 82.7555 9.36843 82.9305 9.43193C83.0431 9.48147 83.1555 9.53174 83.271 9.57647C83.5611 9.70877 83.8475 9.85039 84.1251 10.0077C84.3547 10.1448 84.5816 10.2866 84.8006 10.4405C85.7234 11.1107 86.5169 11.9621 87.1017 12.9444C87.1971 13.12 87.2951 13.2952 87.3896 13.4718C87.4164 13.5357 87.4479 13.5984 87.48 13.6608C87.5394 13.8065 87.6128 13.946 87.6727 14.0921C87.7125 14.1965 87.7594 14.2986 87.7867 14.4077L87.819 14.4171C87.8439 14.573 87.9048 14.7199 87.9589 14.8671C88.1866 15.6487 88.2926 16.4645 88.2782 17.2788C88.2945 18.2304 88.1343 19.1822 87.815 20.078C87.7302 20.2675 87.6582 20.4629 87.5767 20.6538C87.4641 20.9165 87.3265 21.1676 87.1937 21.4202C87.1426 21.498 87.0978 21.5792 87.0538 21.6608C86.9584 21.8061 86.8641 21.9535 86.7659 22.0968C86.1206 23.0085 85.2952 23.7927 84.3508 24.3874C83.8125 24.7212 83.2395 24.9994 82.6466 25.2202C82.5483 25.2448 82.4517 25.277 82.3587 25.3155C81.5817 25.5642 80.7638 25.6456 79.9522 25.6601C79.1911 25.6447 78.4256 25.5743 77.6912 25.3632C77.4985 25.3026 77.3073 25.2371 77.1156 25.1741C76.9559 25.1077 76.7945 25.0451 76.6358 24.9772C76.3421 24.8503 76.0572 24.7049 75.7778 24.5491C75.5478 24.4125 75.3214 24.2701 75.1023 24.1171C74.1564 23.4387 73.3521 22.5631 72.7548 21.5624C72.6513 21.3898 72.5698 21.2052 72.4654 21.0335C72.3753 20.8242 72.2698 20.6219 72.1831 20.4116C72.0949 20.1913 72.0224 19.9655 71.9448 19.7413C71.9289 19.6913 71.9139 19.6409 71.8976 19.5913C71.8818 19.5292 71.8664 19.4673 71.8496 19.4062C71.8324 19.3418 71.817 19.2774 71.7993 19.214C71.7384 18.9292 71.7001 18.6408 71.6522 18.3546C71.5592 17.4174 71.5821 16.4684 71.7513 15.5413C71.7767 15.4644 71.7881 15.3836 71.8001 15.3038C71.823 15.2414 71.8359 15.1754 71.8488 15.1101C71.8655 15.0592 71.8827 15.0089 71.8999 14.9585C71.9157 14.8965 71.9302 14.8338 71.9455 14.7718C72.0002 14.6453 72.0378 14.5124 72.0847 14.3835C72.148 14.2223 72.212 14.061 72.2806 13.9022C72.3807 13.6743 72.4954 13.4546 72.6109 13.2343C72.7058 13.0722 72.8002 12.9098 72.8979 12.7491C72.9631 12.6539 73.0272 12.5576 73.089 12.4601C73.6557 11.6624 74.354 10.9585 75.1503 10.3913C75.2475 10.3303 75.3433 10.2658 75.4381 10.1999C75.6264 10.0797 75.8233 9.97474 76.0169 9.86318C76.0801 9.83243 76.1442 9.8006 76.2065 9.76553C76.5368 9.61157 76.8687 9.46027 77.2115 9.33662C77.2561 9.32123 77.3009 9.30562 77.346 9.28975C77.3948 9.27437 77.444 9.25903 77.4939 9.24365C77.5432 9.22779 77.5927 9.21203 77.6425 9.19521C77.8338 9.14133 78.0278 9.09489 78.2205 9.04678ZM81.1862 12.0835C80.3798 11.8733 79.5212 11.8757 78.7144 12.0835C78.3486 12.1624 77.991 12.285 77.6535 12.4476C77.6061 12.4725 77.5588 12.4971 77.5119 12.5226C77.2411 12.6558 76.9853 12.819 76.7452 13.0022C75.9983 13.5492 75.4227 14.3172 75.0622 15.1687C74.9026 15.5212 74.8002 15.8985 74.7264 16.278C74.5773 17.0007 74.5914 17.762 74.7759 18.4765C74.8761 19.0041 75.0809 19.5097 75.3532 19.971C75.3982 20.0513 75.4459 20.1317 75.4987 20.2077C75.6328 20.4078 75.7745 20.6031 75.9312 20.7858C75.9595 20.8195 75.9891 20.8527 76.0193 20.8858C76.1227 21.0075 76.2353 21.1215 76.3575 21.2249C76.4663 21.3235 76.5805 21.4179 76.698 21.5069C76.8815 21.6459 77.0706 21.7778 77.2713 21.8913C77.4549 22.0048 77.6501 22.1001 77.8485 22.1843C77.9262 22.2194 78.005 22.2514 78.086 22.2788C78.2432 22.3428 78.4085 22.3841 78.5728 22.4265C78.7141 22.4639 78.8564 22.4992 79.0014 22.5218C79.6256 22.6464 80.2778 22.6507 80.9015 22.5218C81.0452 22.4982 81.1871 22.463 81.3285 22.4265C81.4685 22.3918 81.6049 22.3433 81.7453 22.3101L81.7508 22.2772C81.9474 22.2508 82.1171 22.1376 82.2974 22.0616C82.3443 22.0366 82.3914 22.0117 82.4397 21.9882C82.6051 21.9031 82.7622 21.8019 82.9179 21.6999C83.5618 21.2669 84.1069 20.6876 84.501 20.0179C84.7271 19.626 84.9343 19.2119 85.0326 18.7671C85.3121 17.8554 85.3294 16.8637 85.0806 15.9429C85.0384 15.7789 84.9975 15.6137 84.9343 15.4569C84.907 15.3752 84.8757 15.2946 84.8407 15.2163C84.7439 14.983 84.6317 14.7544 84.5018 14.5374C84.3901 14.3354 84.2539 14.1497 84.1164 13.9655C83.7185 13.4349 83.2003 13.0033 82.6332 12.6655C82.4156 12.5352 82.1886 12.4192 81.9537 12.3249C81.8622 12.2845 81.7682 12.249 81.6714 12.2249C81.5775 12.1816 81.4766 12.1547 81.3765 12.1312C81.3133 12.1143 81.2489 12.0984 81.1862 12.0835Z" fill="white"/>
<path fill-rule="evenodd" clip-rule="evenodd" d="M56.4048 8.9999C57.5376 8.82912 58.7003 8.85062 59.8211 9.09834C59.9323 9.13539 60.0459 9.16479 60.16 9.19365C60.3033 9.24076 60.447 9.28777 60.5902 9.33584C60.7512 9.40076 60.9133 9.46197 61.0739 9.52881C61.2517 9.60242 61.421 9.6969 61.5984 9.771C61.7713 9.86809 61.9493 9.95701 62.1222 10.0546C62.1989 10.1075 62.2799 10.1532 62.3605 10.1999C62.4079 10.2345 62.4572 10.2672 62.5075 10.2976C63.8335 11.1929 64.8966 12.4716 65.5251 13.9476C65.6929 14.3406 65.8388 14.7438 65.9529 15.1562C65.9673 15.2205 65.9832 15.2855 66.0009 15.3499C66.0153 15.4292 66.0306 15.5091 66.0512 15.5874C66.2621 16.7684 66.2503 17.99 66.0025 19.1647C65.9847 19.2278 65.9681 19.2911 65.9513 19.3546C65.9336 19.4175 65.9188 19.4805 65.9049 19.5444C65.8369 19.7417 65.7627 19.9378 65.7162 20.1413L65.6863 20.1491C65.6623 20.2591 65.6117 20.36 65.5715 20.4647C65.5131 20.6104 65.4389 20.7491 65.3804 20.8952C65.3329 20.9895 65.2856 21.0841 65.2396 21.1788C65.1274 21.3722 65.0233 21.57 64.9054 21.7601C64.3066 22.704 63.512 23.5189 62.6035 24.1655C62.3537 24.3373 62.0944 24.4944 61.8312 24.6444C61.768 24.6747 61.7056 24.7067 61.6448 24.7413C61.6203 24.7534 61.5717 24.7781 61.5473 24.7905C61.4984 24.8141 61.4497 24.8379 61.4018 24.8624C61.2452 24.9345 61.0891 25.0076 60.9315 25.0772C60.8477 25.1047 60.7665 25.1388 60.6869 25.1749C60.6045 25.1985 60.5223 25.2234 60.4471 25.2647C60.3335 25.2922 60.2201 25.3246 60.1113 25.3679C60.0786 25.3732 60.0125 25.3837 59.9799 25.389L59.9807 25.4179C59.8288 25.4314 59.6806 25.4698 59.534 25.5093C59.4377 25.5194 59.3415 25.5308 59.2486 25.5577C58.2419 25.6996 57.2143 25.6889 56.2129 25.5085C56.1338 25.4873 56.0528 25.4723 55.9723 25.4593C55.9077 25.4425 55.8426 25.4265 55.778 25.4116C55.6678 25.3775 55.5565 25.3453 55.4454 25.3155C55.0901 25.1943 54.7356 25.0681 54.3962 24.9069C54.3474 24.8848 54.2991 24.8629 54.2508 24.8413C54.154 24.7913 54.0561 24.7429 53.9598 24.6929C53.8989 24.6582 53.8362 24.6268 53.7734 24.596C53.223 24.2842 52.7031 23.9161 52.2391 23.4851C52.0359 23.3057 51.8459 23.1122 51.6657 22.9093C51.5838 22.814 51.4982 22.7214 51.4172 22.6257C50.9125 22.0157 50.5005 21.3312 50.1794 20.6077C50.1468 20.5279 50.1143 20.4483 50.0803 20.3694C50.0515 20.2877 50.0203 20.2066 49.9867 20.1272C49.944 19.9805 49.8934 19.8367 49.8436 19.6929C49.8292 19.6424 49.8132 19.5924 49.7964 19.5429C49.7806 19.4794 49.7658 19.4163 49.7476 19.3538C49.425 17.9312 49.4186 16.4221 49.7964 15.0101C49.8141 14.948 49.8296 14.8846 49.8459 14.8226C49.8665 14.7755 49.8822 14.7267 49.8947 14.6772C49.9143 14.6296 49.9299 14.5804 49.9419 14.5304C50.1264 14.0344 50.3449 13.5514 50.6056 13.0905C50.6569 13.0126 50.7031 12.9304 50.7495 12.8491C50.783 12.8016 50.8133 12.7517 50.8439 12.7022C50.9067 12.6046 50.9728 12.5091 51.0366 12.4124C51.4882 11.7851 52.0199 11.2176 52.6181 10.7288C53.2284 10.2357 53.9124 9.84148 54.6306 9.53115C54.7111 9.49989 54.7914 9.46704 54.8705 9.43193C55.1538 9.32754 55.4403 9.22904 55.7308 9.14678C55.7939 9.13142 55.857 9.115 55.9196 9.09678C56.0811 9.06455 56.2443 9.03693 56.4048 8.9999ZM59.0905 12.0827C58.1671 11.8359 57.1799 11.8956 56.2719 12.178C56.1248 12.216 55.9819 12.2678 55.8425 12.3265C55.6086 12.4203 55.3826 12.5354 55.167 12.6647C55.0865 12.7099 55.007 12.757 54.9318 12.8108C54.8834 12.8426 54.8347 12.8744 54.7863 12.9062C54.7221 12.9533 54.6597 13.0031 54.596 13.0507C53.9629 13.5269 53.4587 14.168 53.1112 14.8788C53.034 15.0193 52.9731 15.1679 52.9146 15.3171C52.8374 15.5187 52.764 15.7234 52.7204 15.9351C52.6993 15.9985 52.6856 16.0638 52.6732 16.1296C52.5102 16.8003 52.4932 17.5076 52.626 18.1851C52.6389 18.2644 52.6538 18.3445 52.674 18.4233C52.7296 18.7033 52.8103 18.978 52.9138 19.2444C52.9589 19.3598 53.0084 19.4732 53.064 19.5843C53.087 19.6324 53.1091 19.681 53.1317 19.7296C53.227 19.91 53.3304 20.0865 53.4454 20.2554C53.7896 20.7802 54.2323 21.2364 54.7399 21.603C54.8334 21.6704 54.9282 21.7367 55.027 21.7968C55.1348 21.8656 55.2465 21.9288 55.3596 21.989C55.452 22.0476 55.5502 22.0964 55.6522 22.1358C55.7816 22.1892 55.9068 22.2675 56.0501 22.2757L56.0564 22.3101C56.2448 22.3543 56.4281 22.4206 56.6179 22.4601C57.4084 22.6578 58.2479 22.675 59.0394 22.4749C59.1041 22.4595 59.17 22.4452 59.2352 22.4288C59.3957 22.3865 59.5567 22.3429 59.711 22.2804C59.791 22.2501 59.8713 22.2178 59.9508 22.1851C60.1167 22.1124 60.2835 22.0387 60.4369 21.9405C61.4638 21.3824 62.2799 20.4604 62.7388 19.3851C62.8384 19.1518 62.9224 18.9116 62.9794 18.664C63.0168 18.5216 63.0528 18.3777 63.0753 18.2319C63.2014 17.6046 63.2065 16.9475 63.0761 16.3202C63.0623 16.2415 63.049 16.1627 63.0289 16.0858C63.0127 16.02 62.998 15.9551 62.9818 15.8897C62.8748 15.4692 62.7119 15.0607 62.4981 14.6835C62.4402 14.5682 62.3725 14.4588 62.3031 14.3507C62.271 14.3022 62.2395 14.2539 62.2079 14.2054C61.9486 13.8326 61.6468 13.4867 61.2964 13.1976C60.9743 12.9233 60.6191 12.6894 60.2442 12.496C59.935 12.3454 59.6167 12.2133 59.2832 12.1296C59.219 12.1133 59.1542 12.0976 59.0905 12.0827Z" fill="white"/>
<path d="M8.80266 6.04756C10.9763 5.17217 13.4446 5.10789 15.6643 5.83584C16.7235 6.18603 17.7092 6.71139 18.6119 7.3749C17.9027 8.03836 17.2857 8.78496 16.7331 9.58662C15.591 8.72961 14.1725 8.25006 12.7356 8.21318C11.179 8.15789 9.60368 8.63682 8.3418 9.54912C6.96019 10.5444 5.95602 12.0377 5.55075 13.678C5.15474 15.2722 5.2931 17.0047 5.97463 18.4976C6.63779 19.972 7.8167 21.2072 9.26272 21.9444C10.5245 22.5895 11.98 22.8383 13.3891 22.6726C15.1114 22.4698 16.7512 21.6126 17.9025 20.3226C19.3486 18.7283 20.0492 16.4515 19.6531 14.3319C19.6162 14.0648 19.5145 13.7977 19.5973 13.5397C19.9473 12.4431 20.5739 11.4384 21.4029 10.6366C22.5635 12.8022 22.9138 15.4015 22.3427 17.7976C21.7164 20.5251 19.8831 22.9484 17.4424 24.303C15.7384 25.2706 13.7487 25.7131 11.8053 25.5749C9.80652 25.4367 7.86268 24.6815 6.28764 23.4374C4.53765 22.0551 3.24832 20.092 2.71407 17.9265C2.11537 15.5489 2.42892 12.9591 3.56185 10.7843C4.67637 8.65558 6.56448 6.94143 8.80266 6.04756Z" fill="white"/>
<path d="M26.3583 5.35615C28.8544 5.47595 31.2956 6.59118 33.0272 8.38818C34.8693 10.2681 35.919 12.8854 35.8914 15.521C35.9098 18.7372 34.2609 21.9074 31.6266 23.7413C29.0015 25.6303 25.4464 26.1 22.3978 25.0218C21.4214 24.6808 20.5093 24.1742 19.6987 23.5476C20.4079 22.8933 21.0623 22.1746 21.5689 21.3452C22.7202 22.1838 24.1109 22.6818 25.5293 22.7187C27.1504 22.7831 28.7991 22.276 30.0978 21.3085C31.3965 20.3501 32.3729 18.94 32.7874 17.3733C33.2479 15.6593 33.0541 13.7888 32.262 12.2038C31.5712 10.8215 30.42 9.66918 29.0384 8.97803C27.7674 8.33302 26.2934 8.08435 24.875 8.26865C23.3277 8.46224 21.8633 9.19944 20.758 10.296C19.5516 11.4847 18.7874 13.0972 18.6307 14.7835C18.5478 15.5852 18.6303 16.3965 18.7408 17.189C18.529 18.4054 17.7922 19.4836 16.8896 20.3038C15.8949 18.4608 15.4893 16.3137 15.7563 14.2312C16.0971 11.5863 17.5066 9.10697 19.6067 7.48506C21.5041 5.98297 23.9543 5.20872 26.3583 5.35615Z" fill="white"/>
<path fill-rule="evenodd" clip-rule="evenodd" d="M87.4556 8.57256C87.696 8.57261 87.8622 8.72441 87.8622 8.9374C87.8622 9.12646 87.7595 9.25429 87.5799 9.28896L87.9204 9.76865H87.6719L87.3683 9.31553H87.1222V9.76865H86.9216V8.57256H87.4556ZM87.1222 9.15303H87.4132C87.5612 9.15303 87.6459 9.0784 87.6459 8.94521C87.6458 8.81755 87.5634 8.74834 87.4155 8.74834H87.1222V9.15303Z" fill="white"/>
<path fill-rule="evenodd" clip-rule="evenodd" d="M87.3762 7.9999C88.0501 7.9999 88.584 8.5272 88.5842 9.19834C88.5842 9.86959 88.0502 10.3999 87.3762 10.3999C86.7048 10.3999 86.1682 9.86959 86.1682 9.19834C86.1684 8.52986 86.7022 7.9999 87.3762 7.9999ZM87.3762 8.21553C86.8318 8.21553 86.4011 8.64973 86.401 9.19834C86.401 9.74706 86.8317 10.1812 87.3762 10.1812C87.9233 10.1812 88.3514 9.74706 88.3514 9.19834C88.3513 8.64973 87.9233 8.21553 87.3762 8.21553Z" fill="white"/>
</svg>
