<svg width="25" height="25" viewBox="0 0 25 25" fill="none" xmlns="http://www.w3.org/2000/svg">
<path d="M10.022 12.018C10.0216 11.7534 10.1128 11.4966 10.2805 11.2919L15.984 4.42716C16.0798 4.31148 16.1973 4.21549 16.3301 4.14528C16.463 4.07506 16.609 4.03162 16.7586 4.01756C16.908 4.00358 17.0587 4.01949 17.2021 4.06363C17.3457 4.10787 17.4793 4.18003 17.595 4.27581C17.7108 4.37162 17.8066 4.4892 17.8769 4.62199C17.9471 4.75474 17.9905 4.89998 18.0046 5.04949C18.0187 5.19905 18.0028 5.35036 17.9585 5.49391C17.9143 5.63729 17.8421 5.77032 17.7464 5.8859L12.6373 12.0191L17.5858 18.145C17.6815 18.2608 17.7535 18.3945 17.7975 18.5382C17.8414 18.682 17.8568 18.8337 17.8422 18.9834C17.8276 19.133 17.783 19.2788 17.7121 19.4114C17.6412 19.5438 17.5448 19.6614 17.4286 19.7566C17.3119 19.8515 17.1776 19.9223 17.0334 19.9653C16.8893 20.0083 16.7379 20.0227 16.5882 20.0071C16.4384 19.9915 16.2925 19.9461 16.1602 19.8741C16.028 19.8022 15.9114 19.7048 15.8169 19.5876L10.2831 12.7431C10.1147 12.539 10.0225 12.2826 10.022 12.018Z" fill="white"/>
<path d="M7.11053 5.85233C7.37881 5.85385 7.63773 5.94668 7.83854 6.11469C8.03927 6.28273 8.16811 6.51407 8.20202 6.7654L8.21302 6.90991L8.23295 17.9675C8.23401 18.5534 7.7419 19.0289 7.13525 19.03C6.86697 19.0285 6.60805 18.9357 6.40724 18.7677C6.20651 18.5997 6.07776 18.3682 6.04376 18.117L6.03276 17.9715L6.01283 6.91388C6.01107 6.77612 6.03801 6.63932 6.09219 6.51139C6.14638 6.38344 6.22697 6.26682 6.32887 6.16819C6.43086 6.06956 6.55267 5.99034 6.68685 5.9361C6.82074 5.88202 6.96494 5.85401 7.11053 5.85233Z" fill="white"/>
</svg>
