<svg width="35" height="28" viewBox="0 0 35 28" fill="none" xmlns="http://www.w3.org/2000/svg">
<path d="M12.4307 6.91003C10.6123 6.29854 8.59025 6.35273 6.80963 7.08806C4.97619 7.83888 3.42945 9.27859 2.5165 11.0666C1.58847 12.8933 1.33193 15.0684 1.82236 17.0654C2.25997 18.8844 3.31628 20.5331 4.74983 21.6941C6.04003 22.7391 7.63204 23.3738 9.26931 23.4899C10.8613 23.606 12.491 23.2345 13.8869 22.4217C15.8863 21.2839 17.3878 19.2482 17.9008 16.957C18.3686 14.9445 18.0819 12.7617 17.1312 10.9428C16.4522 11.6162 15.9391 12.4599 15.6524 13.381C15.5845 13.5977 15.6675 13.8222 15.6977 14.0467C16.0221 15.8269 15.4487 17.7388 14.2641 19.0779C13.321 20.1615 11.978 20.8814 10.5671 21.0517C9.41266 21.191 8.22055 20.982 7.18688 20.4402C6.00231 19.821 5.03654 18.7838 4.4933 17.5453C3.93497 16.2914 3.82179 14.8362 4.14623 13.4971C4.47821 12.1193 5.30062 10.8654 6.43238 10.0294C7.46604 9.2631 8.75624 8.86061 10.0314 8.90705C11.2084 8.93801 12.3703 9.34051 13.3059 10.0604C13.7586 9.38695 14.2641 8.75998 14.8451 8.20267C14.1057 7.64537 13.2984 7.20417 12.4307 6.91003Z" fill="#A29AA9"/>
<path d="M21.1905 6.50753C19.2212 6.38369 17.2142 7.03388 15.6599 8.29556C13.9397 9.65786 12.7853 11.74 12.5061 13.9615C12.2873 15.7108 12.6193 17.5143 13.4342 19.0624C14.1736 18.3735 14.7772 17.4679 14.9507 16.4462C14.8602 15.7805 14.7923 15.0993 14.8602 14.4259C14.9884 13.0094 15.6147 11.6549 16.6031 10.6564C17.5085 9.73527 18.7081 9.11604 19.9757 8.95349C21.1376 8.79868 22.3448 9.00767 23.3861 9.5495C24.5178 10.13 25.4609 11.0976 26.0268 12.2586C26.6757 13.59 26.8341 15.1613 26.4569 16.601C26.1174 17.9168 25.3176 19.1011 24.2537 19.9061C23.1899 20.7188 21.8393 21.1446 20.5114 21.0904C19.3495 21.0594 18.2102 20.6414 17.267 19.9371C16.8521 20.6337 16.3164 21.2374 15.7354 21.787C16.3994 22.3134 17.1463 22.7391 17.9461 23.0255C20.4435 23.9311 23.3559 23.5363 25.5062 21.9496C27.6641 20.4092 29.0147 17.7465 28.9996 15.0452C29.0222 12.8314 28.1621 10.6331 26.6531 9.05411C25.2346 7.54474 23.2352 6.60816 21.1905 6.50753Z" fill="#A29AA9"/>
<path d="M30.7076 10.9611C28.8703 10.9611 27.4219 9.5395 27.4219 7.72901C27.4219 5.91181 28.8636 4.49023 30.7076 4.49023C32.5516 4.49023 34 5.9051 34 7.72901C34 9.5395 32.5516 10.9611 30.7076 10.9611ZM30.7076 10.2235C32.109 10.2235 33.1886 9.12376 33.1886 7.72901C33.1886 6.32084 32.109 5.23455 30.7076 5.23455C29.3195 5.23455 28.2265 6.32084 28.2265 7.72901C28.2265 9.12376 29.3195 10.2235 30.7076 10.2235ZM30.1577 9.19752H29.4537V6.1465H30.9825C31.6262 6.1465 32.0755 6.54213 32.0755 7.09198C32.0755 7.56807 31.814 7.91676 31.3848 7.99723L32.2364 9.19752H31.3647L30.6539 8.09781H30.1577V9.19752ZM30.1577 6.72988V7.56807H30.835C31.1434 7.56807 31.3245 7.40714 31.3245 7.13221C31.3245 6.86399 31.1569 6.72988 30.8551 6.72988H30.1577Z" fill="#A29AA9"/>
</svg>
