<svg width="15" height="12" viewBox="0 0 15 12" fill="none" xmlns="http://www.w3.org/2000/svg">
<path d="M5.32687 2.96116C4.54758 2.6991 3.68098 2.72232 2.91785 3.03746C2.13209 3.35924 1.46921 3.97626 1.07794 4.74255C0.680213 5.52544 0.570271 6.4576 0.780454 7.31346C0.968002 8.09303 1.4207 8.79961 2.03508 9.29721C2.58803 9.74504 3.27031 10.0171 3.972 10.0668C4.65429 10.1166 5.35274 9.95735 5.95096 9.60903C6.80786 9.12139 7.45134 8.24894 7.67122 7.26702C7.87171 6.40452 7.74883 5.46904 7.3414 4.68948C7.05038 4.97808 6.83049 5.33967 6.70762 5.73443C6.67851 5.82731 6.71408 5.92351 6.72702 6.01971C6.86606 6.78269 6.62031 7.60207 6.11264 8.17596C5.70844 8.64038 5.13286 8.94889 4.52818 9.02187C4.03344 9.08158 3.52253 8.99201 3.07953 8.7598C2.57186 8.49442 2.15796 8.0499 1.92514 7.51913C1.68586 6.98173 1.63735 6.35808 1.7764 5.78419C1.91868 5.19371 2.27114 4.6563 2.75617 4.29804C3.19918 3.96962 3.75212 3.79712 4.29859 3.81703C4.80303 3.8303 5.30101 4.0028 5.70197 4.3113C5.89599 4.0227 6.11264 3.754 6.36162 3.51515C6.04473 3.27631 5.69874 3.08722 5.32687 2.96116Z" fill="#4D5053"/>
<path d="M9.08107 2.78866C8.2371 2.73559 7.37697 3.01424 6.71085 3.55496C5.97359 4.13881 5.47885 5.03116 5.35921 5.98322C5.26544 6.73293 5.40771 7.50586 5.75694 8.16932C6.07383 7.87408 6.33252 7.48596 6.40689 7.04808C6.36809 6.76279 6.33899 6.47087 6.36809 6.18226C6.42306 5.5752 6.69145 4.99467 7.11505 4.56674C7.50308 4.17198 8.01722 3.90659 8.56046 3.83693C9.05843 3.77058 9.57581 3.86015 10.022 4.09236C10.5071 4.34116 10.9113 4.75582 11.1538 5.25342C11.4319 5.82399 11.4998 6.49741 11.3381 7.11442C11.1926 7.67836 10.8498 8.18591 10.3939 8.53091C9.93797 8.87923 9.35915 9.06168 8.79004 9.03846C8.29207 9.02519 7.8038 8.84605 7.3996 8.54418C7.22176 8.84274 6.99217 9.10148 6.74319 9.33701C7.02774 9.56259 7.34787 9.74504 7.69063 9.86778C8.76094 10.2559 10.0091 10.0867 10.9307 9.40668C11.8555 8.74653 12.4343 7.60538 12.4278 6.44765C12.4375 5.4989 12.0689 4.55678 11.4222 3.88006C10.8143 3.23318 9.95737 2.83179 9.08107 2.78866Z" fill="#4D5053"/>
<path d="M13.1601 4.699C12.3727 4.699 11.752 4.08975 11.752 3.31383C11.752 2.53503 12.3698 1.92578 13.1601 1.92578C13.9504 1.92578 14.5711 2.53215 14.5711 3.31383C14.5711 4.08975 13.9504 4.699 13.1601 4.699ZM13.1601 4.38288C13.7607 4.38288 14.2234 3.91158 14.2234 3.31383C14.2234 2.71033 13.7607 2.24477 13.1601 2.24477C12.5652 2.24477 12.0968 2.71033 12.0968 3.31383C12.0968 3.91158 12.5652 4.38288 13.1601 4.38288ZM12.9245 3.94319H12.6227V2.63561H13.2779C13.5538 2.63561 13.7464 2.80516 13.7464 3.04082C13.7464 3.24485 13.6343 3.39429 13.4504 3.42878L13.8153 3.94319H13.4417L13.1371 3.47188H12.9245V3.94319ZM12.9245 2.88563V3.24485H13.2147C13.3469 3.24485 13.4245 3.17588 13.4245 3.05806C13.4245 2.94311 13.3527 2.88563 13.2233 2.88563H12.9245Z" fill="#4D5053"/>
</svg>
