<svg width="28" height="28" viewBox="0 0 28 28" fill="none" xmlns="http://www.w3.org/2000/svg">
<path d="M13.9396 17.019C17.9424 17.019 21.3609 17.6542 21.3609 20.1929C21.3605 22.7311 17.9633 23.388 13.9386 23.388C9.93657 23.3879 6.52072 22.7542 6.52033 20.2161C6.52033 17.6764 9.91475 17.019 13.9396 17.019Z" fill="#131416"/>
<path d="M20.3401 15.4897C21.8706 15.4617 23.5157 15.6716 24.1236 15.8209C25.4115 16.074 26.2587 16.5908 26.6099 17.342C26.7563 17.6458 26.8327 17.979 26.8327 18.3163C26.8327 18.6536 26.7564 18.9866 26.6099 19.2905C26.0732 20.4548 24.3419 20.8292 23.6699 20.9261C23.53 20.9471 23.4191 20.826 23.4329 20.6861C23.7771 17.4582 21.0444 15.9262 20.337 15.5748C20.3069 15.5586 20.2994 15.5353 20.3016 15.5201C20.3051 15.5096 20.3169 15.4933 20.3401 15.4897Z" fill="#131416"/>
<path d="M7.65864 15.4887C7.68192 15.4922 7.69408 15.5086 7.69408 15.5191C7.69735 15.5343 7.69056 15.5576 7.66168 15.5738C6.9528 15.9265 4.2208 17.4577 4.56373 20.684C4.57857 20.825 4.46744 20.9449 4.32878 20.9251C3.6555 20.8282 1.92547 20.4537 1.38882 19.2895C1.24186 18.9858 1.16602 18.6526 1.16602 18.3152C1.16602 17.9778 1.24186 17.6447 1.38882 17.341C1.73882 16.5897 2.58606 16.0732 3.87406 15.8189C4.48309 15.6707 6.12566 15.4607 7.65864 15.4887Z" fill="#131416"/>
<path d="M13.9396 4.72237C14.5869 4.72174 15.2285 4.84888 15.8263 5.09708C16.2812 5.28595 16.7047 5.54188 17.0821 5.85561L16.911 5.86574C16.4586 5.92536 16.0454 6.15482 15.7564 6.50781C15.4676 6.86078 15.3243 7.31066 15.3554 7.76562C15.3865 8.22039 15.5895 8.64626 15.9235 8.9566C16.2578 9.26701 16.6987 9.43908 17.155 9.43663H18.8473C18.8502 9.51113 18.8518 9.58574 18.8513 9.66045H18.8493C18.8535 10.3078 18.7296 10.95 18.4847 11.5492C18.2399 12.1483 17.8787 12.6933 17.4224 13.1523C16.966 13.6115 16.4231 13.9763 15.8253 14.2248C15.2275 14.4733 14.586 14.6009 13.9386 14.6005C13.2911 14.601 12.6498 14.4732 12.0519 14.2248C11.4541 13.9764 10.9112 13.6124 10.4548 13.1534C9.99824 12.6942 9.63745 12.1485 9.39243 11.5492C9.14748 10.9499 9.02268 10.3079 9.02684 9.66045C9.02274 9.01306 9.14738 8.37094 9.39243 7.7717C9.63751 7.17256 9.99827 6.62749 10.4548 6.16855C10.9115 5.70949 11.4548 5.3453 12.0529 5.09708C12.6509 4.8489 13.2922 4.72163 13.9396 4.72237Z" fill="#131416"/>
<path d="M7.38925 5.5447C7.66745 5.54458 7.94516 5.57278 8.21766 5.62876C8.25378 5.63811 8.29306 5.65605 8.31286 5.6875C8.33718 5.72817 8.32013 5.78014 8.29463 5.8151C7.50363 6.93044 7.04796 8.29123 7.04796 9.74957C7.04363 11.0959 7.44413 12.4125 8.1964 13.5291C8.21389 13.5548 8.22485 13.5852 8.22779 13.6162C8.23065 13.6469 8.22582 13.678 8.21361 13.7063C8.20127 13.7348 8.18146 13.7602 8.1569 13.7792C8.13239 13.7982 8.10346 13.8109 8.07284 13.8157C7.88866 13.8472 7.70093 13.8647 7.50977 13.8694H7.50774C5.59106 13.9194 3.87085 12.6775 3.39605 10.8109C2.69152 8.03548 4.75847 5.5447 7.38925 5.5447Z" fill="#131416"/>
<path d="M21.3963 3.5C21.9292 3.50012 22.37 3.89684 22.4395 4.41045L22.4496 4.55324V6.59491H24.4852C24.7496 6.59865 25.0031 6.70208 25.1951 6.88354C25.3871 7.065 25.5042 7.31199 25.5222 7.57523C25.5402 7.83837 25.4577 8.09861 25.2923 8.3044C25.1269 8.51017 24.8903 8.64653 24.629 8.6862L24.4852 8.69633H22.4496V10.741C22.4506 11.0083 22.3496 11.2665 22.167 11.4621C21.9846 11.6575 21.7343 11.7762 21.4672 11.7943C21.2 11.8123 20.9352 11.7276 20.7279 11.5583C20.521 11.389 20.3862 11.1476 20.3512 10.8828L20.3421 10.741V8.69633H18.2873C18.0193 8.69772 17.7605 8.59778 17.5642 8.4158C17.3679 8.2338 17.2482 7.98374 17.23 7.71701C17.2117 7.45034 17.2964 7.18667 17.4659 6.97975C17.6356 6.77276 17.8787 6.63797 18.1445 6.60301L18.2873 6.59491H20.3441V4.55324C20.3442 3.97189 20.8163 3.50216 21.3974 3.50203L21.3963 3.5Z" fill="#131416"/>
</svg>
