<svg width="28" height="28" viewBox="0 0 28 28" fill="none" xmlns="http://www.w3.org/2000/svg">
<path d="M23.1094 3.66686C23.0375 3.13414 22.5811 2.72327 22.0293 2.72327L22.0309 2.72483C21.4292 2.72483 20.94 3.21225 20.94 3.81527V5.93301H18.811L18.6625 5.94083C18.3874 5.97708 18.1364 6.11675 17.9607 6.3314C17.785 6.54606 17.6978 6.81956 17.7167 7.09626C17.7356 7.37296 17.8593 7.63206 18.0626 7.82082C18.2659 8.00958 18.5335 8.11383 18.811 8.11234H20.9384L20.9382 10.2324L20.9475 10.3792C20.9838 10.654 21.1234 10.9047 21.338 11.0803C21.5526 11.2559 21.826 11.3433 22.1027 11.3246C22.3794 11.3059 22.6386 11.1825 22.8276 10.9796C23.0166 10.7768 23.1212 10.5096 23.1201 10.2324L23.1203 8.11234H25.2278L25.3763 8.1014C25.6469 8.06027 25.8922 7.91893 26.0635 7.70543C26.2347 7.49194 26.3194 7.22189 26.3007 6.94889C26.282 6.67589 26.1613 6.41989 25.9625 6.2317C25.7638 6.04352 25.5015 5.9369 25.2278 5.93301H23.1203V3.81527L23.1094 3.66686Z" fill="#4D5053"/>
<path d="M18.0791 10.2324C17.7501 10.2324 17.4707 10.4616 17.3484 10.7671C17.1671 11.2201 16.9002 11.6317 16.5633 11.9782C16.2263 12.3247 15.8259 12.5991 15.3852 12.7856C14.9445 12.9722 14.4722 13.0672 13.9956 13.0651C13.5189 13.0672 13.0465 12.9721 12.6058 12.7855C12.165 12.5989 11.7645 12.3244 11.4276 11.9778C11.0906 11.6312 10.8238 11.2194 10.6425 10.7663C10.4612 10.3131 10.369 9.82751 10.3713 9.33754C10.3695 8.84787 10.462 8.36266 10.6435 7.90991C10.825 7.45716 11.0919 7.04583 11.4288 6.69963C11.7657 6.35343 12.166 6.07922 12.6066 5.89282C13.0471 5.70642 13.5192 5.61151 13.9956 5.61357C14.4721 5.61151 14.9443 5.70646 15.3849 5.89293C15.5238 5.9517 15.6873 5.91794 15.7815 5.8002L16.2607 5.20121C16.5203 4.87667 16.4367 4.39406 16.0541 4.23182C15.4013 3.95507 14.7017 3.81365 13.9956 3.81571C13.2894 3.81365 12.5898 3.95511 11.9369 4.23194C11.2841 4.50877 10.6909 4.91551 10.1916 5.42878C9.69219 5.94205 9.29646 6.55172 9.02713 7.22274C8.7578 7.89375 8.62018 8.61287 8.62218 9.33874C8.62002 10.0647 8.75753 10.784 9.0268 11.4551C9.29606 12.1263 9.69176 12.7361 10.1911 13.2495C10.6905 13.7629 11.2837 14.1697 11.9367 14.4466C12.5896 14.7235 13.2893 14.865 13.9956 14.863C14.702 14.865 15.4019 14.7235 16.0549 14.4465C16.7079 14.1695 17.3011 13.7626 17.8005 13.249C18.2999 12.7355 18.6956 12.1256 18.9648 11.4543C18.9904 11.3904 19.0148 11.3261 19.0381 11.2613C19.2268 10.7355 18.7958 10.2324 18.2372 10.2324H18.0791Z" fill="#4D5053"/>
<path d="M8.02785 5.20566C7.86383 5.03708 7.64138 4.94237 7.40942 4.94237C6.84431 4.93276 6.283 5.03886 5.75819 5.25449C5.23339 5.47012 4.75559 5.79096 4.35265 6.19832C3.94972 6.60567 3.6297 7.09139 3.41125 7.62717C3.19281 8.16294 3.08031 8.73804 3.08031 9.31896C3.08031 9.89988 3.19281 10.475 3.41125 11.0108C3.6297 11.5465 3.94972 12.0322 4.35265 12.4396C4.75559 12.847 5.23339 13.1678 5.75819 13.3834C6.283 13.5991 6.84431 13.7052 7.40942 13.6956C7.64138 13.6956 7.86383 13.6008 8.02785 13.4323C8.19186 13.2637 8.28401 13.035 8.28401 12.7966C8.28401 12.5582 8.19186 12.3296 8.02785 12.161C7.86383 11.9924 7.64138 11.8977 7.40942 11.8977C7.0754 11.9051 6.7433 11.8439 6.4326 11.7176C6.12191 11.5913 5.83887 11.4026 5.60009 11.1624C5.36131 10.9222 5.1716 10.6354 5.04208 10.3189C4.91257 10.0023 4.84585 9.66236 4.84585 9.31896C4.84585 8.97556 4.91257 8.63561 5.04208 8.31907C5.1716 8.00252 5.36131 7.71574 5.60009 7.47555C5.83887 7.23536 6.12191 7.04659 6.4326 6.92032C6.7433 6.79406 7.0754 6.73283 7.40942 6.74023C7.64138 6.74023 7.86383 6.64552 8.02785 6.47694C8.19186 6.30836 8.28401 6.07971 8.28401 5.8413C8.28401 5.60289 8.19186 5.37424 8.02785 5.20566Z" fill="#4D5053"/>
<path d="M22.2086 15.678C22.8173 15.7223 23.4155 15.811 23.9752 15.9405C25.2218 16.191 26.1582 16.6716 26.5931 17.6089C26.9138 18.3017 26.9138 19.1059 26.5931 19.8011C26.1617 20.7348 25.2405 21.2082 23.9834 21.4743C23.8708 21.4981 23.7548 21.4988 23.642 21.4765C23.5292 21.4542 23.4217 21.4092 23.3258 21.3442C23.2298 21.2792 23.1473 21.1955 23.0828 21.0977C23.0184 20.9999 22.9733 20.89 22.9502 20.7743C22.9271 20.6586 22.9264 20.5394 22.9481 20.4234C22.9698 20.3074 23.0135 20.197 23.0767 20.0984C23.14 19.9998 23.2215 19.9149 23.3166 19.8487C23.4118 19.7825 23.5187 19.7362 23.6312 19.7124C24.3915 19.5518 24.8906 19.2953 25.0142 19.0292C25.0607 18.9282 25.0848 18.8179 25.0848 18.7062C25.0848 18.5945 25.0607 18.4842 25.0142 18.3832C24.8895 18.1135 24.3869 17.8558 23.6149 17.7C23.1193 17.5849 22.6085 17.5082 22.0873 17.4723C21.8558 17.4557 21.6402 17.3454 21.4879 17.1654C21.3355 16.9855 21.259 16.7507 21.2751 16.5128C21.2912 16.2749 21.3986 16.0532 21.5736 15.8967C21.6603 15.8192 21.761 15.76 21.8699 15.7224C21.9789 15.6849 22.0939 15.6698 22.2086 15.678Z" fill="#4D5053"/>
<path d="M6.63674 16.1747C6.68787 16.2805 6.71823 16.3956 6.72608 16.5134C6.73401 16.6312 6.71927 16.7495 6.68271 16.8615C6.64614 16.9734 6.58848 17.0769 6.51299 17.1659C6.43751 17.255 6.3457 17.3279 6.2428 17.3804C6.1399 17.433 6.02793 17.4642 5.9133 17.4723C5.52265 17.4998 5.139 17.549 4.75068 17.6233L4.36237 17.7048C3.61489 17.8546 3.11229 18.1135 2.98869 18.382C2.94169 18.483 2.9173 18.5936 2.9173 18.7056C2.9173 18.8176 2.94169 18.9282 2.98869 19.0292C3.11113 19.2953 3.61022 19.5518 4.37053 19.7124C4.48308 19.7362 4.58998 19.7825 4.68512 19.8487C4.78026 19.9149 4.86178 19.9998 4.92501 20.0984C4.98825 20.197 5.03197 20.3074 5.05368 20.4234C5.07539 20.5394 5.07466 20.6586 5.05154 20.7743C5.02842 20.89 4.98335 20.9999 4.91891 21.0977C4.85448 21.1955 4.77193 21.2792 4.67599 21.3442C4.58005 21.4092 4.4726 21.4542 4.35976 21.4765C4.24693 21.4988 4.13092 21.4981 4.01836 21.4743C2.76129 21.2082 1.84006 20.7336 1.4086 19.8023C1.24954 19.4598 1.16699 19.0851 1.16699 18.7056C1.16699 18.3261 1.24954 17.9514 1.4086 17.6089C1.81441 16.7339 2.65634 16.2569 3.76182 15.998L4.00204 15.9453C4.58626 15.8098 5.18448 15.7223 5.79319 15.678C5.90782 15.6698 6.02289 15.685 6.13182 15.7226C6.24075 15.7602 6.34142 15.8194 6.42805 15.897C6.51469 15.9746 6.5856 16.069 6.63674 16.1747Z" fill="#4D5053"/>
<path fill-rule="evenodd" clip-rule="evenodd" d="M13.9945 16.4259C8.97784 16.4259 6.09987 17.4315 6.09987 20.2913C6.09987 23.1475 8.96618 24.1351 13.9956 24.1351L14.6976 24.1291C19.2781 24.0357 21.8902 22.9929 21.8902 20.2697C21.8902 17.4818 19.1592 16.4738 14.3513 16.4271L13.9945 16.4259ZM13.9956 18.2226C18.0654 18.2226 20.141 18.9393 20.141 20.2697C20.141 21.6097 18.0595 22.3373 13.9956 22.3373C9.92589 22.3373 7.85021 21.6217 7.85021 20.2913C7.85021 18.9501 9.92939 18.2226 13.9956 18.2226Z" fill="#4D5053"/>
</svg>
