<svg width="24" height="24" viewBox="0 0 24 24" fill="none" xmlns="http://www.w3.org/2000/svg">
<path d="M22.8122 10.9453L20.3911 8.52417V5.09478C20.3911 4.27226 19.7211 3.6023 18.8986 3.6023H15.4758L13.0547 1.18116C12.7628 0.895932 12.3847 0.75 12 0.75C11.6153 0.75 11.2372 0.895932 10.9453 1.18116L8.52417 3.6023H5.10142C4.27889 3.6023 3.60893 4.27226 3.60893 5.09478V8.52417L1.18779 10.9453C0.604068 11.5224 0.604068 12.471 1.18779 13.0547L3.60893 15.4758V18.8986C3.60893 19.7211 4.27889 20.3911 5.10142 20.3911H8.52417L10.9453 22.8122C11.2372 23.1041 11.6153 23.25 12 23.25C12.3847 23.25 12.7628 23.1041 13.0547 22.8122L15.4758 20.3911H18.8986C19.7211 20.3911 20.3911 19.7211 20.3911 18.8986V15.4758L22.8122 13.0547C23.3959 12.471 23.3959 11.5224 22.8122 10.9453ZM15.635 10.4677L11.4163 14.6931C11.2504 14.8523 11.0382 14.9319 10.8259 14.9319C10.6136 14.9319 10.4014 14.8523 10.2422 14.6931L8.36498 12.8159C8.03995 12.4909 8.03995 11.9668 8.36498 11.6418C8.69001 11.3168 9.21403 11.3168 9.53906 11.6418L10.8259 12.9353L14.4609 9.30027C14.786 8.97524 15.31 8.97524 15.635 9.30027C15.9601 9.61866 15.9601 10.1493 15.635 10.4677Z" fill="#F1AD00"/>
</svg>
