<svg width="170" height="231" viewBox="0 0 170 231" fill="none" xmlns="http://www.w3.org/2000/svg">
<g filter="url(#filter0_d_21795_113725)">
<path d="M123.395 21.0925C75.545 16.9678 36.9566 75.7444 24.0938 117.507C21.8647 125.068 20.0819 144.317 30.7837 160.815C44.161 181.439 71.9447 211.343 74.0028 205.671C76.0608 200 89.9526 207.734 89.9526 200.515C89.9526 193.297 104.359 191.75 103.844 184.532C103.33 177.314 110.019 171.643 108.475 160.815C106.932 149.988 114.649 158.753 117.736 138.645C120.206 122.559 95.7838 113.725 83.264 111.319C118.251 114.413 123.395 97.9142 120.823 81.4155C118.252 64.9168 123.395 72.6505 123.395 64.9168C123.395 57.183 131.627 52.5428 131.627 46.8713C131.627 41.1999 171.244 25.2172 123.395 21.0925Z" stroke="#AA1994" stroke-width="6.088" stroke-linejoin="round" shape-rendering="crispEdges"/>
</g>
<defs>
<filter id="filter0_d_21795_113725" x="0.0377884" y="0.452369" width="169.354" height="230.219" filterUnits="userSpaceOnUse" color-interpolation-filters="sRGB">
<feFlood flood-opacity="0" result="BackgroundImageFix"/>
<feColorMatrix in="SourceAlpha" type="matrix" values="0 0 0 0 0 0 0 0 0 0 0 0 0 0 0 0 0 0 127 0" result="hardAlpha"/>
<feOffset dy="1.93216"/>
<feGaussianBlur stdDeviation="9.66079"/>
<feComposite in2="hardAlpha" operator="out"/>
<feColorMatrix type="matrix" values="0 0 0 0 1 0 0 0 0 0.223374 0 0 0 0 0.882167 0 0 0 0.5 0"/>
<feBlend mode="normal" in2="BackgroundImageFix" result="effect1_dropShadow_21795_113725"/>
<feBlend mode="normal" in="SourceGraphic" in2="effect1_dropShadow_21795_113725" result="shape"/>
</filter>
</defs>
</svg>
