<svg width="352" height="478" viewBox="0 0 352 478" fill="none" xmlns="http://www.w3.org/2000/svg">
<g filter="url(#filter0_d_21173_84603)">
<path d="M95.9249 43.426C194.984 34.887 274.871 156.568 301.5 243.025C306.115 258.68 309.805 298.528 287.65 332.684C259.956 375.379 202.438 437.286 198.177 425.545C193.917 413.804 165.157 429.815 165.157 414.871C165.157 399.928 135.333 396.726 136.398 381.783C137.463 366.84 123.616 355.099 126.812 332.684C130.007 310.269 114.03 328.414 107.639 286.787C102.526 253.485 153.086 235.197 179.004 230.216C106.574 236.62 95.9249 202.464 101.248 168.308C106.571 134.152 95.9249 150.163 95.9249 134.152C95.9249 118.141 78.8824 108.535 78.8824 96.794C78.8824 85.0529 -3.13455 51.965 95.9249 43.426Z" stroke="#AA1994" stroke-width="12.6035" stroke-linejoin="round" shape-rendering="crispEdges"/>
</g>
<defs>
<filter id="filter0_d_21173_84603" x="0.699219" y="0.697266" width="350.602" height="476.605" filterUnits="userSpaceOnUse" color-interpolation-filters="sRGB">
<feFlood flood-opacity="0" result="BackgroundImageFix"/>
<feColorMatrix in="SourceAlpha" type="matrix" values="0 0 0 0 0 0 0 0 0 0 0 0 0 0 0 0 0 0 127 0" result="hardAlpha"/>
<feOffset dy="4"/>
<feGaussianBlur stdDeviation="20"/>
<feComposite in2="hardAlpha" operator="out"/>
<feColorMatrix type="matrix" values="0 0 0 0 1 0 0 0 0 0.223374 0 0 0 0 0.882167 0 0 0 0.5 0"/>
<feBlend mode="normal" in2="BackgroundImageFix" result="effect1_dropShadow_21173_84603"/>
<feBlend mode="normal" in="SourceGraphic" in2="effect1_dropShadow_21173_84603" result="shape"/>
</filter>
</defs>
</svg>
