<svg width="24" height="24" viewBox="0 0 24 24" fill="none" xmlns="http://www.w3.org/2000/svg">
<path fill-rule="evenodd" clip-rule="evenodd" d="M11.138 2.7525C11.1683 2.54256 11.2722 2.3508 11.4307 2.21254C11.5891 2.07427 11.7913 1.9988 12.0002 2.00002C12.1135 1.99918 12.226 2.02104 12.331 2.06433C12.436 2.10763 12.5317 2.17152 12.6124 2.25237C12.6932 2.33321 12.7574 2.42942 12.8016 2.5355C12.8457 2.64159 12.8689 2.75547 12.8697 2.87064L12.8697 19.0193L17.5134 14.361L17.6108 14.2758C17.7788 14.1512 17.9849 14.091 18.1924 14.106C18.3999 14.121 18.5954 14.2102 18.7443 14.3578C18.8251 14.4379 18.8893 14.5336 18.9332 14.6392C18.9771 14.7449 18.9998 14.8584 19 14.973C19.0002 15.0877 18.9779 15.2013 18.9343 15.3071C18.8908 15.4129 18.8269 15.5088 18.7464 15.5892L12.6287 21.7311C12.5478 21.8152 12.4514 21.8822 12.345 21.9283C12.2386 21.9744 12.1242 21.9988 12.0085 22C11.8929 22.0011 11.7781 21.9791 11.6708 21.9352C11.5634 21.8913 11.4657 21.8263 11.3832 21.7439L5.25288 15.5903L5.16907 15.4913C5.04575 15.3238 4.98657 15.1165 5.00257 14.9079C5.01856 14.6994 5.10864 14.5039 5.25602 14.3578C5.42075 14.1945 5.64196 14.1033 5.87212 14.1039C6.10229 14.1045 6.32304 14.1968 6.48694 14.361L11.1296 19.0193L11.1296 2.86957L11.138 2.7525Z" fill="black"/>
</svg>
