<svg width="24" height="24" viewBox="0 0 24 24" fill="none" xmlns="http://www.w3.org/2000/svg">
<path fill-rule="evenodd" clip-rule="evenodd" d="M11.996 3.2C11.3906 3.19822 10.791 3.32074 10.2314 3.56052C9.6718 3.8003 9.16338 4.15261 8.73535 4.59719C8.30732 5.04176 7.96812 5.56984 7.73726 6.15105C7.50641 6.73226 7.38844 7.35513 7.39016 7.98386C7.38831 8.61267 7.50618 9.23565 7.73697 9.81698C7.96777 10.3983 8.30695 10.9265 8.73499 11.3712C9.16304 11.8159 9.6715 12.1683 10.2311 12.4081C10.7908 12.648 11.3906 12.7705 11.996 12.7687C12.6015 12.7705 13.2013 12.6479 13.761 12.408C14.3207 12.1681 14.8293 11.8156 15.2573 11.3708C15.6854 10.926 16.0245 10.3977 16.2553 9.81626C16.486 9.23482 16.6038 8.61172 16.6018 7.98282C16.6034 7.35418 16.4853 6.73142 16.2544 6.15033C16.0235 5.56924 15.6843 5.04129 15.2562 4.59682C14.8282 4.15235 14.3198 3.80014 13.7603 3.56042C13.2008 3.32071 12.6012 3.19822 11.996 3.2ZM11.996 4.75725C12.4044 4.75546 12.8091 4.8377 13.1868 4.99922C13.5645 5.16074 13.9076 5.39834 14.1965 5.69832C14.4853 5.99829 14.714 6.3547 14.8695 6.74698C15.025 7.13925 15.1042 7.55963 15.1025 7.98386C15.1044 8.40817 15.0253 8.82866 14.8698 9.22106C14.7144 9.61345 14.4856 9.96998 14.1968 10.2701C13.908 10.5702 13.5648 10.8078 13.1871 10.9694C12.8093 11.131 12.4045 11.2133 11.996 11.2115C11.5874 11.2133 11.1825 11.131 10.8047 10.9693C10.4269 10.8077 10.0836 10.5699 9.79478 10.2697C9.50595 9.96951 9.27723 9.61285 9.12184 9.22034C8.96645 8.82782 8.88746 8.40722 8.88945 7.98282C8.88786 7.55868 8.96714 7.13841 9.12271 6.74626C9.27827 6.3541 9.50705 5.99782 9.79585 5.69795C10.0846 5.39809 10.4277 5.16058 10.8054 4.99912C11.183 4.83767 11.5876 4.75546 11.996 4.75725ZM6.35065 4.17587C6.54947 4.17587 6.74015 4.25791 6.88073 4.40393C7.02132 4.54995 7.1003 4.74799 7.1003 4.9545C7.1003 5.161 7.02132 5.35905 6.88073 5.50507C6.74015 5.65109 6.54947 5.73312 6.35065 5.73312C6.06435 5.72671 5.77969 5.77974 5.51338 5.88911C5.24707 5.99848 5.00447 6.16198 4.7998 6.37002C4.59513 6.57807 4.43252 6.82647 4.32151 7.10065C4.21049 7.37484 4.15331 7.66928 4.15331 7.96673C4.15331 8.26417 4.21049 8.55862 4.32151 8.8328C4.43252 9.10698 4.59513 9.35538 4.7998 9.56343C5.00447 9.77147 5.24707 9.93497 5.51338 10.0443C5.77969 10.1537 6.06435 10.2067 6.35065 10.2003C6.54947 10.2003 6.74015 10.2824 6.88073 10.4284C7.02132 10.5744 7.1003 10.7725 7.1003 10.979C7.1003 11.1855 7.02132 11.3835 6.88073 11.5295C6.74015 11.6755 6.54947 11.7576 6.35065 11.7576C5.86628 11.7659 5.38515 11.674 4.93532 11.4872C4.48548 11.3005 4.07594 11.0226 3.73057 10.6697C3.38519 10.3169 3.11089 9.89617 2.92365 9.4321C2.73641 8.96803 2.63998 8.4699 2.63998 7.96673C2.63998 7.46356 2.73641 6.96542 2.92365 6.50135C3.11089 6.03729 3.38519 5.61657 3.73057 5.26373C4.07594 4.91089 4.48548 4.63299 4.93532 4.44622C5.38515 4.25945 5.86628 4.16755 6.35065 4.17587ZM21.3006 7.96725C21.3006 6.96171 20.916 5.99736 20.2314 5.28634C19.5469 4.57532 18.6184 4.17587 17.6503 4.17587C17.4515 4.17587 17.2608 4.25791 17.1202 4.40393C16.9796 4.54995 16.9006 4.74799 16.9006 4.9545C16.9006 5.161 16.9796 5.35905 17.1202 5.50507C17.2608 5.65109 17.4515 5.73312 17.6503 5.73312C17.9366 5.72671 18.2213 5.77974 18.4876 5.88911C18.7539 5.99848 18.9965 6.16198 19.2011 6.37002C19.4058 6.57807 19.5684 6.82647 19.6794 7.10065C19.7905 7.37484 19.8476 7.66928 19.8476 7.96673C19.8476 8.26417 19.7905 8.55862 19.6794 8.8328C19.5684 9.10698 19.4058 9.35538 19.2011 9.56343C18.9965 9.77147 18.7539 9.93497 18.4876 10.0443C18.2213 10.1537 17.9366 10.2067 17.6503 10.2003C17.4515 10.2003 17.2608 10.2824 17.1202 10.4284C16.9796 10.5744 16.9006 10.7725 16.9006 10.979C16.9006 11.1855 16.9796 11.3835 17.1202 11.5295C17.2608 11.6755 17.4515 11.7576 17.6503 11.7576C18.6182 11.7576 19.5465 11.3583 20.2311 10.6475C20.9156 9.93668 21.3003 8.9726 21.3006 7.96725ZM20.5499 13.7021C20.0701 13.5899 19.5574 13.5131 19.0356 13.4747C18.9374 13.4676 18.8388 13.4807 18.7454 13.5132C18.652 13.5457 18.5657 13.597 18.4914 13.6641C18.3413 13.7997 18.2493 13.9917 18.2355 14.1978C18.2217 14.4039 18.2873 14.6072 18.4179 14.7631C18.5484 14.9189 18.7333 15.0145 18.9317 15.0288C19.3785 15.06 19.8163 15.1264 20.2411 15.2261C20.9027 15.361 21.3335 15.5842 21.4405 15.8178C21.4803 15.9053 21.501 16.0009 21.501 16.0976C21.501 16.1944 21.4803 16.2899 21.4405 16.3774C21.3345 16.6079 20.9067 16.83 20.2551 16.9692C20.1586 16.9897 20.067 17.0299 19.9854 17.0872C19.9039 17.1446 19.834 17.2181 19.7798 17.3035C19.7256 17.3889 19.6881 17.4846 19.6695 17.585C19.6509 17.6855 19.6515 17.7888 19.6713 17.889C19.6912 17.9892 19.7298 18.0843 19.785 18.169C19.8402 18.2537 19.911 18.3263 19.9932 18.3826C20.0755 18.4389 20.1676 18.4778 20.2643 18.4972C20.361 18.5165 20.4604 18.5158 20.5569 18.4953C21.6344 18.2648 22.424 17.8547 22.7938 17.046C23.0687 16.4438 23.0687 15.7472 22.7938 15.1472C22.421 14.3353 21.6184 13.919 20.5499 13.7021ZM5.76493 14.1983C5.75821 14.0962 5.73218 13.9966 5.68835 13.905C5.64452 13.8133 5.58374 13.7316 5.50948 13.6644C5.43522 13.5972 5.34894 13.5459 5.25557 13.5133C5.1622 13.4808 5.06357 13.4676 4.96531 13.4747C4.44356 13.5131 3.9308 13.5889 3.43004 13.7062L3.22414 13.7519C2.27659 13.9761 1.55493 14.3893 1.20709 15.1472C1.07076 15.4438 1 15.7684 1 16.0971C1 16.4258 1.07076 16.7504 1.20709 17.047C1.57692 17.8537 2.36654 18.2648 3.44403 18.4953C3.54051 18.5158 3.63994 18.5165 3.73666 18.4972C3.83338 18.4778 3.92548 18.4389 4.00772 18.3826C4.08995 18.3263 4.1607 18.2537 4.21593 18.169C4.27116 18.0843 4.30979 17.9892 4.32961 17.889C4.34943 17.7888 4.35006 17.6855 4.33145 17.585C4.31284 17.4846 4.27536 17.3889 4.22116 17.3035C4.16696 17.2181 4.09709 17.1446 4.01554 17.0872C3.93399 17.0299 3.84237 16.9897 3.74589 16.9692C3.0942 16.83 2.6664 16.6079 2.56145 16.3774C2.52117 16.2899 2.50026 16.1941 2.50026 16.0971C2.50026 16.0001 2.52117 15.9043 2.56145 15.8168C2.6674 15.5842 3.0982 15.36 3.73889 15.2302L4.07173 15.1596C4.40458 15.0953 4.73342 15.0527 5.06826 15.0288C5.16652 15.0218 5.26249 14.9948 5.35069 14.9493C5.43889 14.9038 5.51759 14.8406 5.58229 14.7635C5.64699 14.6864 5.69642 14.5968 5.72776 14.4998C5.75909 14.4028 5.77173 14.3004 5.76493 14.1983ZM5.22819 17.4706C5.22819 14.9935 7.69502 14.1225 11.995 14.1225L12.3008 14.1236C16.4219 14.164 18.7628 15.0371 18.7628 17.4519C18.7628 19.8106 16.5238 20.7138 12.5977 20.7948L11.996 20.8C7.68502 20.8 5.22919 19.9445 5.22919 17.4706H5.22819ZM17.2635 17.4519C17.2635 16.2995 15.4843 15.6787 11.996 15.6787C8.51063 15.6787 6.72847 16.3089 6.72847 17.4706C6.72847 18.623 8.50763 19.2427 11.996 19.2427C15.4793 19.2427 17.2635 18.6126 17.2635 17.4519Z" fill="white"/>
</svg>
