<svg width="24" height="24" viewBox="0 0 24 24" fill="none" xmlns="http://www.w3.org/2000/svg">
<path fill-rule="evenodd" clip-rule="evenodd" d="M11.996 3.19997C11.3906 3.19819 10.791 3.32071 10.2314 3.56049C9.6718 3.80027 9.16338 4.15258 8.73535 4.59716C8.30732 5.04173 7.96812 5.56981 7.73726 6.15102C7.50641 6.73223 7.38844 7.3551 7.39016 7.98383C7.38831 8.61264 7.50618 9.23562 7.73697 9.81695C7.96777 10.3983 8.30695 10.9265 8.73499 11.3712C9.16304 11.8159 9.6715 12.1683 10.2311 12.4081C10.7908 12.6479 11.3906 12.7705 11.996 12.7687C12.6015 12.7705 13.2013 12.6479 13.761 12.408C14.3207 12.1681 14.8293 11.8156 15.2573 11.3708C15.6854 10.926 16.0245 10.3977 16.2553 9.81623C16.486 9.23478 16.6038 8.61169 16.6018 7.98279C16.6034 7.35415 16.4853 6.73139 16.2544 6.1503C16.0235 5.56921 15.6843 5.04126 15.2562 4.59679C14.8282 4.15232 14.3198 3.80011 13.7603 3.56039C13.2008 3.32068 12.6012 3.19819 11.996 3.19997ZM11.996 4.75722C12.4044 4.75543 12.8091 4.83767 13.1868 4.99919C13.5645 5.16071 13.9076 5.39831 14.1965 5.69829C14.4853 5.99826 14.714 6.35467 14.8695 6.74695C15.025 7.13922 15.1042 7.5596 15.1025 7.98383C15.1044 8.40814 15.0253 8.82863 14.8698 9.22102C14.7144 9.61342 14.4856 9.96995 14.1968 10.27C13.908 10.5701 13.5648 10.8078 13.1871 10.9694C12.8093 11.131 12.4045 11.2133 11.996 11.2115C11.5874 11.2133 11.1825 11.131 10.8047 10.9693C10.4269 10.8077 10.0836 10.5699 9.79478 10.2697C9.50595 9.96948 9.27723 9.61282 9.12184 9.22031C8.96645 8.82779 8.88746 8.40719 8.88945 7.98279C8.88786 7.55865 8.96714 7.13838 9.12271 6.74623C9.27827 6.35407 9.50705 5.99778 9.79585 5.69792C10.0846 5.39806 10.4277 5.16055 10.8054 4.99909C11.183 4.83764 11.5876 4.75543 11.996 4.75722ZM6.35065 4.17584C6.54947 4.17584 6.74015 4.25788 6.88073 4.4039C7.02132 4.54992 7.1003 4.74796 7.1003 4.95447C7.1003 5.16097 7.02132 5.35901 6.88073 5.50503C6.74015 5.65105 6.54947 5.73309 6.35065 5.73309C6.06435 5.72668 5.77969 5.77971 5.51338 5.88908C5.24707 5.99845 5.00447 6.16195 4.7998 6.36999C4.59513 6.57804 4.43252 6.82644 4.32151 7.10062C4.21049 7.3748 4.15331 7.66925 4.15331 7.9667C4.15331 8.26414 4.21049 8.55859 4.32151 8.83277C4.43252 9.10695 4.59513 9.35535 4.7998 9.5634C5.00447 9.77144 5.24707 9.93494 5.51338 10.0443C5.77969 10.1537 6.06435 10.2067 6.35065 10.2003C6.54947 10.2003 6.74015 10.2823 6.88073 10.4284C7.02132 10.5744 7.1003 10.7724 7.1003 10.9789C7.1003 11.1854 7.02132 11.3835 6.88073 11.5295C6.74015 11.6755 6.54947 11.7575 6.35065 11.7575C5.86628 11.7659 5.38515 11.674 4.93532 11.4872C4.48548 11.3004 4.07594 11.0225 3.73057 10.6697C3.38519 10.3169 3.11089 9.89614 2.92365 9.43207C2.73641 8.968 2.63998 8.46987 2.63998 7.9667C2.63998 7.46353 2.73641 6.96539 2.92365 6.50132C3.11089 6.03726 3.38519 5.61654 3.73057 5.2637C4.07594 4.91086 4.48548 4.63296 4.93532 4.44619C5.38515 4.25942 5.86628 4.16752 6.35065 4.17584ZM21.3006 7.96721C21.3006 6.96168 20.916 5.99733 20.2314 5.28631C19.5469 4.57529 18.6184 4.17584 17.6503 4.17584C17.4515 4.17584 17.2608 4.25788 17.1202 4.4039C16.9796 4.54992 16.9006 4.74796 16.9006 4.95447C16.9006 5.16097 16.9796 5.35901 17.1202 5.50503C17.2608 5.65105 17.4515 5.73309 17.6503 5.73309C17.9366 5.72668 18.2213 5.77971 18.4876 5.88908C18.7539 5.99845 18.9965 6.16195 19.2011 6.36999C19.4058 6.57804 19.5684 6.82644 19.6794 7.10062C19.7905 7.3748 19.8476 7.66925 19.8476 7.9667C19.8476 8.26414 19.7905 8.55859 19.6794 8.83277C19.5684 9.10695 19.4058 9.35535 19.2011 9.5634C18.9965 9.77144 18.7539 9.93494 18.4876 10.0443C18.2213 10.1537 17.9366 10.2067 17.6503 10.2003C17.4515 10.2003 17.2608 10.2823 17.1202 10.4284C16.9796 10.5744 16.9006 10.7724 16.9006 10.9789C16.9006 11.1854 16.9796 11.3835 17.1202 11.5295C17.2608 11.6755 17.4515 11.7575 17.6503 11.7575C18.6182 11.7575 19.5465 11.3582 20.2311 10.6474C20.9156 9.93665 21.3003 8.97257 21.3006 7.96721ZM20.5499 13.702C20.0701 13.5899 19.5574 13.5131 19.0356 13.4747C18.9374 13.4676 18.8388 13.4807 18.7454 13.5132C18.652 13.5457 18.5657 13.5969 18.4914 13.6641C18.3413 13.7997 18.2493 13.9917 18.2355 14.1978C18.2217 14.4038 18.2873 14.6072 18.4179 14.763C18.5484 14.9189 18.7333 15.0145 18.9317 15.0288C19.3785 15.0599 19.8163 15.1264 20.2411 15.2261C20.9027 15.361 21.3335 15.5842 21.4405 15.8178C21.4803 15.9053 21.501 16.0008 21.501 16.0976C21.501 16.1944 21.4803 16.2899 21.4405 16.3774C21.3345 16.6078 20.9067 16.83 20.2551 16.9691C20.1586 16.9897 20.067 17.0298 19.9854 17.0872C19.9039 17.1446 19.834 17.2181 19.7798 17.3035C19.7256 17.3889 19.6881 17.4845 19.6695 17.585C19.6509 17.6855 19.6515 17.7887 19.6713 17.8889C19.6912 17.9891 19.7298 18.0843 19.785 18.169C19.8402 18.2537 19.911 18.3263 19.9932 18.3826C20.0755 18.4389 20.1676 18.4778 20.2643 18.4971C20.361 18.5165 20.4604 18.5158 20.5569 18.4952C21.6344 18.2648 22.424 17.8547 22.7938 17.046C23.0687 16.4438 23.0687 15.7472 22.7938 15.1472C22.421 14.3353 21.6184 13.919 20.5499 13.702ZM5.76493 14.1983C5.75821 14.0962 5.73218 13.9965 5.68835 13.9049C5.64452 13.8133 5.58374 13.7316 5.50948 13.6644C5.43522 13.5972 5.34894 13.5458 5.25557 13.5133C5.1622 13.4807 5.06357 13.4676 4.96531 13.4747C4.44356 13.5131 3.9308 13.5889 3.43004 13.7062L3.22414 13.7519C2.27659 13.9761 1.55493 14.3893 1.20709 15.1472C1.07076 15.4438 1 15.7684 1 16.0971C1 16.4258 1.07076 16.7503 1.20709 17.047C1.57692 17.8536 2.36654 18.2648 3.44403 18.4952C3.54051 18.5158 3.63994 18.5165 3.73666 18.4971C3.83338 18.4778 3.92548 18.4389 4.00772 18.3826C4.08995 18.3263 4.1607 18.2537 4.21593 18.169C4.27116 18.0843 4.30979 17.9891 4.32961 17.8889C4.34943 17.7887 4.35006 17.6855 4.33145 17.585C4.31284 17.4845 4.27536 17.3889 4.22116 17.3035C4.16696 17.2181 4.09709 17.1446 4.01554 17.0872C3.93399 17.0298 3.84237 16.9897 3.74589 16.9691C3.0942 16.83 2.6664 16.6078 2.56145 16.3774C2.52117 16.2899 2.50026 16.1941 2.50026 16.0971C2.50026 16.0001 2.52117 15.9043 2.56145 15.8168C2.6674 15.5842 3.0982 15.36 3.73889 15.2302L4.07173 15.1596C4.40458 15.0952 4.73342 15.0527 5.06826 15.0288C5.16652 15.0218 5.26249 14.9948 5.35069 14.9493C5.43889 14.9037 5.51759 14.8406 5.58229 14.7635C5.64699 14.6863 5.69642 14.5967 5.72776 14.4997C5.75909 14.4028 5.77173 14.3003 5.76493 14.1983ZM5.22819 17.4706C5.22819 14.9935 7.69502 14.1225 11.995 14.1225L12.3008 14.1235C16.4219 14.164 18.7628 15.0371 18.7628 17.4519C18.7628 19.8106 16.5238 20.7138 12.5977 20.7948L11.996 20.7999C7.68502 20.7999 5.22919 19.9445 5.22919 17.4706H5.22819ZM17.2635 17.4519C17.2635 16.2995 15.4843 15.6787 11.996 15.6787C8.51063 15.6787 6.72847 16.3089 6.72847 17.4706C6.72847 18.6229 8.50763 19.2427 11.996 19.2427C15.4793 19.2427 17.2635 18.6125 17.2635 17.4519Z" fill="white"/>
</svg>
