<svg width="24" height="24" viewBox="0 0 24 24" fill="none" xmlns="http://www.w3.org/2000/svg">
<path fill-rule="evenodd" clip-rule="evenodd" d="M2.9737 18.051L3.37761 20.6893C3.41894 20.8779 3.51673 21.0465 3.65548 21.1663C3.79432 21.2859 3.96615 21.3505 4.14247 21.3496H19.8579C20.0343 21.3505 20.2061 21.2859 20.3449 21.1663C20.4837 21.0465 20.5815 20.8779 20.6228 20.6893L21.0267 18.051H2.9737ZM11.9716 2.65063C11.8474 2.65558 11.725 2.69183 11.6163 2.75805C11.5079 2.82426 11.4152 2.91868 11.3456 3.03162L7.03863 10.0414L2.17589 7.02638C2.04301 6.94391 1.89135 6.9049 1.73903 6.91466C1.58678 6.92445 1.43974 6.98197 1.3165 7.08081C1.06647 7.28322 0.950184 7.62773 1.02001 7.95739L2.61132 15.8509H21.3891L22.9804 7.95739C23.0514 7.61717 22.9261 7.2628 22.661 7.06362C22.5311 6.96692 22.3781 6.91473 22.2213 6.91322C22.0645 6.91186 21.91 6.96072 21.7787 7.05502L17.6722 10.0257L12.6204 2.98006C12.466 2.76346 12.2264 2.63921 11.9716 2.65063Z" fill="white"/>
</svg>
