<svg width="220" height="132" viewBox="0 0 220 132" fill="none" xmlns="http://www.w3.org/2000/svg">
<path d="M178.029 127.364C163.743 133.066 147.521 133.487 132.932 128.744C125.971 126.463 119.494 123.042 113.562 118.719C118.223 114.397 122.279 109.535 125.911 104.312C133.417 109.895 142.738 113.017 152.181 113.257C162.411 113.617 172.762 110.495 181.055 104.552C190.135 98.0693 196.733 88.3445 199.397 77.6593C202 67.2742 201.092 55.9887 196.612 46.2639C192.254 36.6593 184.506 28.6153 175.002 23.813C166.709 19.6109 157.145 17.9901 147.884 19.0706C136.564 20.3913 125.789 25.974 118.223 34.3781C108.719 44.7632 104.119 59.5905 106.722 73.3972C106.964 75.1381 107.63 76.8789 107.085 78.5598C104.785 85.7033 100.669 92.2465 95.2207 97.469C87.5936 83.3621 85.2934 66.4338 89.0464 50.8262C93.1626 33.0575 105.208 17.2698 121.25 8.44545C132.448 2.14237 145.523 -0.739053 158.295 0.161398C171.431 1.06183 184.203 5.98424 194.554 14.0882C206.055 23.0926 214.53 35.8789 218.041 49.9858C221.975 65.4733 219.917 82.3416 212.472 96.5085C205.147 110.375 192.738 121.541 178.029 127.364ZM107.024 117.999C94.5548 127.784 78.4533 132.826 62.6544 131.866C46.2501 131.085 30.2091 123.822 18.829 112.116C6.72259 99.8702 -0.17809 82.8219 0.00350372 65.6535C-0.117561 44.7032 10.7177 24.0531 28.0299 12.1073C45.2816 -0.198776 68.647 -3.26027 88.6832 3.76316C95.0996 5.98425 101.092 9.28585 106.419 13.3679C101.758 17.6299 97.4604 22.3122 94.1311 27.7149C86.5646 22.2522 77.4242 19.0106 68.1023 18.7705C57.4486 18.3503 46.6133 21.6519 38.0783 27.955C29.5432 34.1981 23.1268 43.3825 20.4029 53.5875C17.3762 64.753 18.6474 76.939 23.8532 87.264C28.3931 96.2684 35.9596 103.772 45.0395 108.274C53.3929 112.476 63.0781 114.097 72.4 112.897C82.5694 111.636 92.1941 106.834 99.4579 99.6901C107.388 91.9463 112.412 81.4412 113.441 70.4558C113.986 65.2332 113.441 59.9506 112.714 54.7881C114.107 46.8642 118.949 39.8408 124.881 34.4982C131.419 46.5041 134.082 60.4909 132.327 74.0576C130.087 91.286 120.826 107.434 107.024 117.999Z" fill="white"/>
</svg>
