<svg width="53" height="53" viewBox="0 0 53 53" fill="none" xmlns="http://www.w3.org/2000/svg">
<path d="M38.8151 33.6905L35.8987 30.278C34.5812 28.7475 33.6786 26.9045 33.2771 24.9253C32.8756 22.9462 32.9888 20.8971 33.6057 18.9742L34.962 14.6951C34.9937 14.5349 34.9771 14.369 34.9142 14.2183C34.8514 14.0676 34.7452 13.939 34.6091 13.8488C34.4731 13.7586 34.3132 13.7109 34.15 13.7118C33.9867 13.7127 33.8274 13.762 33.6923 13.8536L30.2798 16.7701C28.7493 18.0875 26.9063 18.9902 24.9272 19.3917C22.948 19.7931 20.899 19.68 18.9761 19.063L14.6969 17.7068C14.5328 17.6545 14.356 17.6571 14.1935 17.7143C14.031 17.7715 13.8916 17.8801 13.7965 18.0237C13.7013 18.1673 13.6556 18.338 13.6662 18.51C13.6769 18.6819 13.7433 18.8457 13.8555 18.9765L16.7719 22.3889C18.0894 23.9194 18.992 25.7624 19.3935 27.7416C19.795 29.7207 19.6818 31.7698 19.0648 33.6927L17.7086 37.9719C17.6563 38.136 17.6589 38.3127 17.7161 38.4752C17.7733 38.6377 17.8819 38.7771 18.0255 38.8723C18.1691 38.9675 18.3399 39.0132 18.5118 39.0025C18.6837 38.9919 18.8475 38.9254 18.9783 38.8133L22.3908 35.8969C23.9213 34.5794 25.7643 33.6767 27.7434 33.2753C29.7226 32.8738 31.7716 32.987 33.6945 33.6039L37.9737 34.9601C38.1378 35.0125 38.3145 35.0099 38.477 34.9527C38.6395 34.8955 38.7789 34.7868 38.8741 34.6432C38.9693 34.4996 39.015 34.3289 39.0044 34.157C38.9937 33.985 38.9273 33.8212 38.8151 33.6905Z" fill="white"/>
</svg>
