<svg width="25" height="82" viewBox="0 0 25 82" fill="none" xmlns="http://www.w3.org/2000/svg">
<path d="M19.8086 0C21.5115 4.50568e-05 23.0447 0.0846175 24.4072 0.254883C24.5549 0.273356 24.7019 0.296883 24.8486 0.318359V8.75977C24.6995 8.73518 24.5525 8.71022 24.4072 8.68945C23.2148 8.434 21.8941 8.30667 20.4463 8.30664C16.698 8.3067 13.8859 9.24496 12.0117 11.1191C10.2233 12.9082 9.32814 15.7616 9.32812 19.6797V31.5625H19.8789V39.6143H9.32812V82H0V19.4248C3.71061e-05 13.1212 1.70331 8.30681 5.11035 4.98438C8.51805 1.66187 13.4192 0 19.8086 0Z" fill="#131416"/>
<path d="M19.8086 0C21.5115 4.50568e-05 23.0447 0.0846175 24.4072 0.254883C24.5549 0.273356 24.7019 0.296883 24.8486 0.318359V8.75977C24.6995 8.73518 24.5525 8.71022 24.4072 8.68945C23.2148 8.434 21.8941 8.30667 20.4463 8.30664C16.698 8.3067 13.8859 9.24496 12.0117 11.1191C10.2233 12.9082 9.32814 15.7616 9.32812 19.6797V31.5625H19.8789V39.6143H9.32812V82H0V19.4248C3.71061e-05 13.1212 1.70331 8.30681 5.11035 4.98438C8.51805 1.66187 13.4192 0 19.8086 0Z" stroke="#131416"/>
</svg>
