<svg width="13" height="82" viewBox="0 0 13 82" fill="none" xmlns="http://www.w3.org/2000/svg">
<path d="M9.32812 69.5762C9.32819 72.0607 9.93949 73.3026 12.5254 73.3027L12.4238 81.998C12.4005 81.9981 12.3769 82 12.3535 82C4.96965 81.9999 0.000156947 78.2727 0 69.5762V0H9.32812C9.32812 0 9.32812 67.0913 9.32812 69.5762Z" fill="#131416"/>
<path d="M9.32812 69.5762C9.32819 72.0607 9.93949 73.3026 12.5254 73.3027L12.4238 81.998C12.4005 81.9981 12.3769 82 12.3535 82C4.96965 81.9999 0.000156947 78.2727 0 69.5762V0H9.32812C9.32812 0 9.32812 67.0913 9.32812 69.5762Z" stroke="#131416"/>
</svg>
