<svg width="94" height="96" viewBox="0 0 94 96" fill="none" xmlns="http://www.w3.org/2000/svg">
<path d="M29.7137 3.34702C39.8273 -0.769853 51.3122 -1.0732 61.64 2.35031C66.5682 3.99706 71.1536 6.46719 75.3533 9.58735C72.0536 12.7075 69.1823 16.2177 66.6111 19.9879C61.2972 15.9577 54.6977 13.7042 48.0124 13.5309C40.7701 13.2709 33.442 15.5243 27.571 19.8145C21.1429 24.4948 16.4718 31.5151 14.5863 39.2289C12.7435 46.7259 13.3863 54.873 16.5575 61.8934C19.643 68.8271 25.1284 74.634 31.8564 78.1009C37.7274 81.1344 44.4984 82.3044 51.0551 81.5244C59.0688 80.571 66.6968 76.5408 72.0536 70.4738C78.7816 62.9768 82.0385 52.2729 80.1958 42.3057C80.0244 41.049 79.553 39.7922 79.9387 38.5788C81.5672 33.4219 84.4812 28.6983 88.3381 24.9281C93.7377 35.112 95.3662 47.3326 92.7092 58.5999C89.7951 71.4272 81.2672 82.8244 69.9108 89.1948C61.9828 93.745 52.7264 95.8251 43.6842 95.1751C34.3848 94.525 25.3426 90.9715 18.0146 85.1212C9.87231 78.6209 3.87274 69.3904 1.38721 59.2066C-1.39831 48.026 0.0587296 35.8487 5.32978 25.6215C10.5151 15.611 19.3002 7.55057 29.7137 3.34702Z" fill="#131416"/>
</svg>
