<svg width="95" height="95" viewBox="0 0 95 95" fill="none" xmlns="http://www.w3.org/2000/svg">
<path d="M29.7421 3.30342C39.8653 -0.759822 51.3611 -1.05922 61.6988 2.31968C66.6317 3.94498 71.2214 6.38292 75.4251 9.46243C72.1222 12.5419 69.2483 16.0064 66.6746 19.7274C61.3556 15.7498 54.7498 13.5257 48.0582 13.3546C40.8089 13.098 33.4739 15.322 27.5973 19.5564C21.1631 24.1756 16.4875 31.1045 14.6002 38.7177C12.7557 46.1171 13.3991 54.158 16.5733 61.0869C19.6618 67.9303 25.1523 73.6616 31.8868 77.0833C37.7634 80.0772 44.5408 81.232 51.1037 80.4622C59.1251 79.5212 66.7604 75.5435 72.1222 69.5556C78.8567 62.1562 82.1167 51.5918 80.2723 41.7545C80.1007 40.5141 79.6288 39.2738 80.0149 38.0762C81.6449 32.9864 84.5617 28.3244 88.4223 24.6033C93.827 34.6545 95.457 46.7159 92.7976 57.8363C89.8807 70.4965 81.3446 81.7453 69.9775 88.0326C62.0419 92.5236 52.7766 94.5766 43.7258 93.935C34.4176 93.2934 25.3668 89.7862 18.0318 84.0121C9.88172 77.5965 3.87643 68.4863 1.38853 58.4351C-1.39964 47.4002 0.0587856 35.3816 5.33486 25.2877C10.5251 15.4076 19.3186 7.45219 29.7421 3.30342Z" fill="#131416"/>
</svg>
