<svg width="95" height="95" viewBox="0 0 95 95" fill="none" xmlns="http://www.w3.org/2000/svg">
<path d="M18.2864 9.96846C27.1143 2.99275 38.5135 -0.602099 49.6984 0.0826339C61.3118 0.638979 72.6681 5.81727 80.7247 14.1624C89.2955 22.8928 94.1809 35.0468 94.0523 47.2864C94.138 62.2221 86.4672 76.9438 74.2109 85.4602C61.9975 94.2333 45.4558 96.4159 31.2711 91.4088C26.7286 89.8254 22.4861 87.4716 18.7149 84.5615C22.0147 81.523 25.0573 78.1849 27.4143 74.3333C32.771 78.2277 39.242 80.5387 45.8415 80.7099C53.3838 81.0095 61.0547 78.6557 67.0971 74.1621C73.1395 69.7114 77.6821 63.1636 79.6105 55.8883C81.7532 47.9283 80.8533 39.2408 77.1678 31.8799C73.9538 25.4605 68.597 20.1111 62.1689 16.9014C56.255 13.9057 49.3984 12.7502 42.7989 13.6061C35.5994 14.5048 28.7856 17.9285 23.6431 23.0212C18.0292 28.5418 14.4723 36.0311 13.7438 43.8627C13.3581 47.5859 13.7438 51.352 14.2581 55.0324C13.2724 60.6815 9.8441 65.6886 5.64441 69.4974C1.01617 60.9382 -0.869412 50.9668 0.373356 41.295C1.95896 29.0126 8.51563 17.5005 18.2864 9.96846Z" fill="#131416"/>
</svg>
