<svg width="95" height="96" viewBox="0 0 95 96" fill="none" xmlns="http://www.w3.org/2000/svg">
<path d="M18.2864 10.0942C27.1143 3.03049 38.5135 -0.609693 49.6984 0.0836762C61.3118 0.647038 72.6681 5.89064 80.7247 14.3411C89.2955 23.1815 94.1809 35.4888 94.0523 47.8828C94.138 63.0069 86.4672 77.9143 74.2109 86.5381C61.9975 95.4219 45.4558 97.632 31.2711 92.5618C26.7286 90.9583 22.4861 88.5749 18.7149 85.6281C22.0147 82.5512 25.0573 79.1711 27.4143 75.2709C32.771 79.2144 39.242 81.5545 45.8415 81.7279C53.3838 82.0312 61.0547 79.6478 67.0971 75.0975C73.1395 70.5906 77.6821 63.9603 79.6105 56.5933C81.7532 48.5328 80.8533 39.7357 77.1678 32.282C73.9538 25.7817 68.597 20.3647 62.1689 17.1145C56.255 14.0811 49.3984 12.911 42.7989 13.7777C35.5994 14.6878 28.7856 18.1546 23.6431 23.3115C18.0292 28.9018 14.4723 36.4855 13.7438 44.416C13.3581 48.1861 13.7438 51.9997 14.2581 55.7265C13.2724 61.4468 9.8441 66.5171 5.64441 70.3739C1.01617 61.7068 -0.869412 51.6097 0.373356 41.8158C1.95896 29.3785 8.51563 17.7212 18.2864 10.0942Z" fill="#131416"/>
</svg>
