<svg width="16" height="16" viewBox="0 0 16 16" fill="none" xmlns="http://www.w3.org/2000/svg">
<path d="M7.53157 15.2479C3.32004 15.2479 0 11.8981 0 7.63187C0 3.34981 3.30467 0 7.53157 0C11.7585 0 15.0785 3.334 15.0785 7.63187C15.0785 11.8981 11.7585 15.2479 7.53157 15.2479ZM7.53157 13.5098C10.744 13.5098 13.2187 10.9185 13.2187 7.63187C13.2187 4.31366 10.744 1.75391 7.53157 1.75391C4.34987 1.75391 1.84447 4.31366 1.84447 7.63187C1.84447 10.9185 4.34987 13.5098 7.53157 13.5098ZM6.27119 11.0923H4.65728V3.90284H8.16176C9.63734 3.90284 10.6672 4.8351 10.6672 6.13078C10.6672 7.25264 10.0677 8.07429 9.084 8.26391L11.0361 11.0923H9.03789L7.40861 8.50092H6.27119V11.0923ZM6.27119 5.27752V7.25264H7.82361C8.53066 7.25264 8.94566 6.87342 8.94566 6.22558C8.94566 5.59354 8.5614 5.27752 7.86972 5.27752H6.27119Z" fill="#131416"/>
</svg>
