<svg width="40" height="40" viewBox="0 0 40 40" fill="none" xmlns="http://www.w3.org/2000/svg">
<path d="M38.0203 18.2422L33.9851 14.207V8.4913C33.9851 7.12043 32.8685 6.00383 31.4976 6.00383H25.793L21.7578 1.9686C21.2714 1.49322 20.6412 1.25 20 1.25C19.3588 1.25 18.7286 1.49322 18.2422 1.9686L14.207 6.00383H8.50236C7.13149 6.00383 6.01489 7.12043 6.01489 8.4913V14.207L1.97966 18.2422C1.00678 19.204 1.00678 20.7849 1.97966 21.7578L6.01489 25.793V31.4976C6.01489 32.8685 7.13149 33.9851 8.50236 33.9851H14.207L18.2422 38.0203C18.7286 38.5068 19.3588 38.75 20 38.75C20.6412 38.75 21.2714 38.5068 21.7578 38.0203L25.793 33.9851H31.4976C32.8685 33.9851 33.9851 32.8685 33.9851 31.4976V25.793L38.0203 21.7578C38.9932 20.7849 38.9932 19.204 38.0203 18.2422ZM26.0584 17.4462L19.0271 24.4885C18.7507 24.7538 18.397 24.8865 18.0432 24.8865C17.6894 24.8865 17.3356 24.7538 17.0703 24.4885L13.9416 21.3598C13.3999 20.8181 13.3999 19.9447 13.9416 19.403C14.4833 18.8613 15.3567 18.8613 15.8984 19.403L18.0432 21.5588L24.1016 15.5004C24.6433 14.9587 25.5167 14.9587 26.0584 15.5004C26.6001 16.0311 26.6001 16.9155 26.0584 17.4462Z" fill="url(#paint0_linear_18959_247490)"/>
<defs>
<linearGradient id="paint0_linear_18959_247490" x1="20" y1="1.25" x2="20" y2="38.75" gradientUnits="userSpaceOnUse">
<stop stop-color="#FFB800"/>
<stop offset="0.5" stop-color="#FFC226"/>
<stop offset="1" stop-color="#FFB800"/>
</linearGradient>
</defs>
</svg>
