<svg width="28" height="28" viewBox="0 0 28 28" fill="none" xmlns="http://www.w3.org/2000/svg">
<path d="M23.8721 6.4372H22.4703C22.7389 5.93071 22.8811 5.36697 22.8849 4.79384C22.8858 4.04801 22.6554 3.32021 22.2255 2.71042C21.7956 2.10062 21.1871 1.63873 20.4838 1.38819C19.7805 1.13765 19.0168 1.11075 18.2975 1.31119C17.5783 1.51162 16.9388 1.92956 16.467 2.5076C16.4314 2.55887 14.952 4.51776 14.0003 5.78248C13.0474 4.51644 11.5666 2.54967 11.5245 2.49577C11.051 1.92055 10.4112 1.50557 9.69246 1.30764C8.97376 1.10972 8.21137 1.13853 7.5097 1.39014C6.80803 1.64175 6.20138 2.10385 5.77282 2.71316C5.34426 3.32247 5.11475 4.0492 5.11571 4.79384C5.11951 5.36697 5.26175 5.93071 5.53033 6.4372H4.12853C3.3434 6.43824 2.59073 6.75022 2.03556 7.30474C1.48039 7.85925 1.16804 8.61104 1.16699 9.39524V13.9966C1.16699 14.2581 1.271 14.5089 1.45613 14.6939C1.64126 14.8788 1.89236 14.9827 2.15417 14.9827H2.48323V21.8848C2.40594 22.5509 2.48044 23.2258 2.70116 23.8591C2.92188 24.4923 3.28311 25.0676 3.75783 25.5417C4.23254 26.0159 4.80846 26.3767 5.44248 26.5972C6.07651 26.8176 6.75224 26.892 7.41913 26.8148H20.5815C21.2484 26.892 21.9241 26.8176 22.5582 26.5972C23.1922 26.3767 23.7681 26.0159 24.2428 25.5417C24.7175 25.0676 25.0788 24.4923 25.2995 23.8591C25.5202 23.2258 25.5947 22.5509 25.5174 21.8848V14.9827H25.8465C26.1083 14.9827 26.3594 14.8788 26.5445 14.6939C26.7297 14.5089 26.8337 14.2581 26.8337 13.9966V9.39524C26.8326 8.61104 26.5203 7.85925 25.9651 7.30474C25.4099 6.75022 24.6572 6.43824 23.8721 6.4372ZM24.8593 9.39524V13.0106H14.9875V8.40922H23.8721C24.1338 8.40957 24.3847 8.51357 24.5698 8.69841C24.7548 8.88324 24.859 9.13384 24.8593 9.39524ZM18.0004 3.75129C18.1523 3.56244 18.3449 3.41031 18.564 3.30628C18.783 3.20224 19.0227 3.14898 19.2653 3.15048C19.7016 3.15048 20.1201 3.32362 20.4287 3.63181C20.7372 3.94 20.9106 4.35799 20.9106 4.79384C20.9106 5.22969 20.7372 5.64768 20.4287 5.95587C20.1201 6.26406 19.7016 6.4372 19.2653 6.4372H15.9747C16.8658 5.25661 17.9385 3.83149 18.0004 3.75129ZM7.09007 4.79384C7.09076 4.35821 7.26433 3.94062 7.57273 3.63258C7.88114 3.32454 8.29922 3.15118 8.73537 3.15048C8.97348 3.14807 9.20911 3.19888 9.42502 3.29919C9.64092 3.39951 9.83162 3.5468 9.98316 3.73026C10.0516 3.8236 11.1322 5.25398 12.026 6.4372H8.73537C8.29922 6.4365 7.88114 6.26314 7.57273 5.9551C7.26433 5.64706 7.09076 5.22947 7.09007 4.79384ZM3.14135 9.39524C3.1417 9.13384 3.24582 8.88324 3.43087 8.69841C3.61593 8.51357 3.86682 8.40957 4.12853 8.40922H13.0131V13.0106H3.14135V9.39524ZM4.45759 21.8848V14.9827H13.0131V24.8428H7.41913C5.34342 24.8428 4.45759 23.958 4.45759 21.8848ZM23.5431 21.8848C23.5431 23.958 22.6572 24.8428 20.5815 24.8428H14.9875V14.9827H23.5431V21.8848Z" fill="#4D5053"/>
</svg>
