<svg width="28" height="28" viewBox="0 0 28 28" fill="none" xmlns="http://www.w3.org/2000/svg">
<path d="M3.50453 18.6631V25.5361C3.50829 25.8815 3.64816 26.2115 3.89377 26.4545C4.13939 26.6974 4.47092 26.8337 4.81639 26.8337H12.8301V18.6631H3.50453Z" fill="#131416"/>
<path d="M15.1686 26.8337H23.1823C23.5278 26.8337 23.8593 26.6974 24.1049 26.4545C24.3505 26.2115 24.4904 25.8815 24.4942 25.5361V18.6631H15.1686V26.8337Z" fill="#131416"/>
<path d="M25.5493 6.99903H22.9256C23.1944 6.45321 23.3358 5.85352 23.3392 5.24514C23.3354 4.16224 22.9026 3.12498 22.1355 2.36058C21.3684 1.59619 20.3297 1.16699 19.2468 1.16699C18.1155 1.22064 17.0225 1.59321 16.0939 2.24166C15.1654 2.89012 14.4393 3.78801 13.9993 4.83162C13.5594 3.78801 12.8333 2.89012 11.9048 2.24166C10.9762 1.59321 9.88321 1.22064 8.75194 1.16699C7.66903 1.16699 6.63027 1.59619 5.8632 2.36058C5.09614 3.12498 4.66331 4.16224 4.65953 5.24514C4.66292 5.85352 4.80431 6.45321 5.07305 6.99903H2.44935C1.73639 6.99903 1.16602 7.84032 1.16602 8.86699V14.4709C1.16602 15.4975 1.73639 16.3388 2.44935 16.3388H12.8301V6.99903H15.1686V16.3388H25.5493C26.2623 16.3388 26.8327 15.4975 26.8327 14.4709V8.86699C26.8327 7.84032 26.2623 6.99903 25.5493 6.99903ZM8.75194 6.99903C8.50929 7.02098 8.26473 6.99212 8.03384 6.91432C7.80296 6.83651 7.59082 6.71145 7.41095 6.54711C7.23107 6.38277 7.08741 6.18276 6.98912 5.95982C6.89083 5.73688 6.84007 5.49591 6.84007 5.25227C6.84007 5.00863 6.89083 4.76766 6.98912 4.54472C7.08741 4.32178 7.23107 4.12177 7.41095 3.95743C7.59082 3.79309 7.80296 3.66803 8.03384 3.59022C8.26473 3.51242 8.50929 3.48356 8.75194 3.50551C10.7482 3.50551 11.8747 5.55884 12.4308 6.99903H8.75194ZM19.2468 6.99903H15.5679C16.124 5.5731 17.2505 3.50551 19.2468 3.50551C19.4894 3.48356 19.734 3.51242 19.9649 3.59022C20.1957 3.66803 20.4079 3.79309 20.5878 3.95743C20.7676 4.12177 20.9113 4.32178 21.0096 4.54472C21.1079 4.76766 21.1586 5.00863 21.1586 5.25227C21.1586 5.49591 21.1079 5.73688 21.0096 5.95982C20.9113 6.18276 20.7676 6.38277 20.5878 6.54711C20.4079 6.71145 20.1957 6.83651 19.9649 6.91432C19.734 6.99212 19.4894 7.02098 19.2468 6.99903Z" fill="#131416"/>
</svg>
