<svg width="28" height="28" viewBox="0 0 28 28" fill="none" xmlns="http://www.w3.org/2000/svg">
<path d="M10.1291 25.2586V21.3356C10.1291 20.3346 10.9896 19.521 12.0514 19.521H15.9352C16.4444 19.521 16.9348 19.7135 17.2941 20.0523C17.6548 20.3923 17.8575 20.8543 17.8575 21.3356V25.2586C17.8548 25.6756 18.0277 26.076 18.3384 26.3712C18.6491 26.6663 19.0732 26.8332 19.5136 26.8332H22.1641C23.3994 26.8365 24.5859 26.3751 25.4642 25.5499C25.8972 25.1434 26.2411 24.6594 26.4759 24.1259C26.7108 23.5924 26.8321 23.02 26.8327 22.4417V11.263C26.8327 10.3198 26.3896 9.42666 25.6236 8.82223L16.6119 2.03364C15.8505 1.45674 14.901 1.1503 13.9271 1.16716C12.9533 1.18403 12.0162 1.52315 11.2773 2.12604L2.47231 8.82223C2.07665 9.11069 1.75397 9.47963 1.52794 9.90198C1.3019 10.3243 1.17824 10.7894 1.16602 11.263V22.4302C1.16602 24.862 3.25582 26.8332 5.83465 26.8332H8.42293C9.34152 26.8332 10.0859 26.135 10.0926 25.2701L10.1291 25.2586Z" fill="#131416"/>
</svg>
