<svg width="28" height="28" viewBox="0 0 28 28" fill="none" xmlns="http://www.w3.org/2000/svg">
<path fill-rule="evenodd" clip-rule="evenodd" d="M14.2923 1.175C15.1367 1.23032 15.9472 1.5288 16.6134 2.03352L25.6243 8.82273C26.3901 9.42712 26.8336 10.3198 26.8337 11.2629V22.4425C26.8331 23.0208 26.7114 23.5935 26.4765 24.127L26.3837 24.325C26.1547 24.7804 25.8438 25.1952 25.4651 25.5507C24.5869 26.3759 23.4005 26.8374 22.1653 26.8341H19.5146L19.3505 26.8266C18.97 26.7907 18.611 26.6299 18.3391 26.3717C18.0287 26.0766 17.8553 25.6767 17.8578 25.26V21.3358C17.8577 20.8547 17.6557 20.3924 17.2951 20.0524C16.9807 19.7561 16.5657 19.5725 16.1258 19.5311L15.9366 19.521H12.0528L11.856 19.5311C10.8866 19.624 10.1305 20.3975 10.1303 21.3358V25.26L10.0939 25.2712C10.087 26.1361 9.34185 26.8341 8.42334 26.8341H5.83537L5.59474 26.8279C3.2077 26.7135 1.29451 24.9092 1.17326 22.6581L1.16699 22.4312V11.2629C1.17773 10.8485 1.27371 10.4407 1.44897 10.0623L1.52918 9.90184C1.75512 9.47977 2.07754 9.11109 2.47288 8.82273L11.2783 2.12627C12.017 1.52344 12.954 1.18445 13.9276 1.16748L14.2923 1.175ZM13.964 3.22041C13.4403 3.22948 12.9502 3.41192 12.5766 3.71672L12.5491 3.73928L12.5215 3.76059L3.71611 10.4571L3.68353 10.4821C3.53181 10.5927 3.41586 10.7269 3.33888 10.8706C3.26218 11.014 3.22369 11.1668 3.21982 11.3168V22.4312C3.21999 23.6173 4.27591 24.7811 5.83537 24.7812H8.0436L8.05238 23.7635L8.07619 23.7547V21.3358C8.07642 19.0919 9.96926 17.4681 12.0528 17.4681H15.9366C16.8274 17.4682 17.7026 17.7617 18.4105 18.3091L18.7038 18.5585L18.8429 18.6964C19.5171 19.3991 19.9118 20.3377 19.9119 21.3358V24.7812H22.1703C22.8958 24.7832 23.5745 24.5106 24.0602 24.0543C24.2956 23.8333 24.4764 23.5755 24.5979 23.2998C24.7189 23.0249 24.7802 22.7336 24.7808 22.4425V11.2629C24.7807 10.9746 24.6456 10.666 24.3522 10.4345L15.3777 3.67411L15.3726 3.67035C14.9855 3.37706 14.4876 3.21141 13.964 3.22041Z" fill="#4D5053"/>
</svg>
