<svg width="28" height="28" viewBox="0 0 28 28" fill="none" xmlns="http://www.w3.org/2000/svg">
<path fill-rule="evenodd" clip-rule="evenodd" d="M13.2199 2.35791C14.5501 2.35795 15.8292 2.87031 16.7916 3.78862C17.7541 4.70694 18.3258 5.96064 18.3882 7.28941L18.394 7.53208V8.62058C18.394 8.84227 18.3098 9.05567 18.1584 9.21767C18.0071 9.37966 17.7999 9.47816 17.5787 9.49327C17.3575 9.50838 17.1388 9.43898 16.9669 9.29907C16.7949 9.15917 16.6824 8.9592 16.6522 8.73958L16.644 8.62058V7.53208C16.6441 6.65866 16.3103 5.81825 15.7111 5.18281C15.1119 4.54737 14.2925 4.16493 13.4205 4.11374L13.2199 4.10791H7.53237C6.65916 4.10819 5.81904 4.44208 5.18385 5.04127C4.54866 5.64047 4.16638 6.4597 4.11521 7.33141L4.10937 7.53208V20.5171C4.10934 21.3903 4.44293 22.2305 5.04191 22.866C5.64089 23.5014 6.46 23.8839 7.33171 23.9354L7.53237 23.9424H13.2315C14.1019 23.9424 14.9393 23.6099 15.5726 23.0129C16.2058 22.4158 16.587 21.5994 16.6382 20.7306L16.644 20.5311V19.4297C16.6444 19.2081 16.7288 18.9949 16.8803 18.8332C17.0317 18.6714 17.2389 18.5731 17.46 18.5582C17.6811 18.5432 17.8996 18.6127 18.0715 18.7526C18.2433 18.8925 18.3557 19.0924 18.3859 19.3119L18.394 19.4297V20.5311C18.3935 21.8565 17.8832 23.1309 16.9689 24.0904C16.0546 25.0499 14.8062 25.621 13.4824 25.6854L13.2315 25.6924H7.53237C6.20214 25.6924 4.92301 25.18 3.9606 24.2617C2.99819 23.3434 2.42643 22.0897 2.36404 20.7609L2.35938 20.5171V7.53324C2.35938 6.20339 2.87143 4.9246 3.78924 3.96225C4.70706 2.99989 5.96018 2.42788 7.28854 2.36491L7.53237 2.35908H13.2199V2.35791ZM26.0497 13.3934C26.1357 13.4753 26.204 13.5738 26.2506 13.683C26.2971 13.7922 26.3209 13.9098 26.3205 14.0285C26.32 14.1472 26.2954 14.2646 26.248 14.3734C26.2007 14.4823 26.1316 14.5803 26.045 14.6616L22.6454 18.0484C22.4887 18.2038 22.279 18.2942 22.0585 18.3016C21.8379 18.309 21.6227 18.2327 21.456 18.0881C21.2893 17.9435 21.1833 17.7413 21.1594 17.5219C21.1355 17.3025 21.1954 17.0822 21.327 16.9051L21.411 16.8082L23.3244 14.9007H11.3964C11.1748 14.9004 10.9616 14.816 10.7998 14.6645C10.638 14.5131 10.5398 14.3059 10.5248 14.0848C10.5098 13.8637 10.5793 13.6452 10.7192 13.4733C10.8591 13.3015 11.059 13.1891 11.2785 13.1589L11.3964 13.1507H23.3267L21.411 11.2456C21.2622 11.0976 21.1715 10.9012 21.1554 10.6919C21.1394 10.4827 21.199 10.2747 21.3235 10.1057L21.4087 10.0077C21.5566 9.85921 21.7528 9.76868 21.9618 9.75262C22.1708 9.73656 22.3786 9.79604 22.5474 9.92024L22.6454 10.0054L26.0497 13.3946V13.3934Z" fill="#4D5053"/>
</svg>
