<svg width="28" height="28" viewBox="0 0 28 28" fill="none" xmlns="http://www.w3.org/2000/svg">
<path fill-rule="evenodd" clip-rule="evenodd" d="M14.0002 1.16654C13.0805 1.16398 12.1694 1.34058 11.3193 1.6862C10.4691 2.03181 9.69672 2.53962 9.04648 3.18042C8.39625 3.82122 7.881 4.58236 7.53039 5.42006C7.17977 6.25776 7.0007 7.1555 7.00348 8.06163C7.00088 8.96782 7.18011 9.86559 7.53087 10.7033C7.88163 11.541 8.39699 12.3021 9.04734 12.9429C9.69768 13.5837 10.4702 14.0915 11.3204 14.4371C12.1706 14.7827 13.0817 14.9593 14.0015 14.9567C14.9212 14.9595 15.8325 14.783 16.6828 14.4374C17.5331 14.0919 18.3056 13.5841 18.956 12.9433C19.6064 12.3025 20.1217 11.5413 20.4724 10.7035C20.8231 9.86571 21.0022 8.96787 20.9995 8.06163C21.0024 7.15523 20.8234 6.2572 20.4727 5.41925C20.1219 4.5813 19.6065 3.81998 18.9559 3.17912C18.3054 2.53825 17.5326 2.0305 16.6821 1.6851C15.8315 1.33969 14.9201 1.16346 14.0002 1.16654ZM14.0002 3.11138C14.6608 3.10846 15.3154 3.23451 15.9263 3.48225C16.5372 3.72999 17.0922 4.09451 17.5593 4.55477C18.0265 5.01502 18.3964 5.56189 18.6479 6.1638C18.8993 6.76571 19.0272 7.41074 19.0243 8.06163C19.0271 8.71247 18.899 9.35742 18.6475 9.95925C18.396 10.5611 18.026 11.1079 17.559 11.5681C17.0919 12.0283 16.5369 12.3929 15.9261 12.6407C15.3153 12.8885 14.6607 13.0146 14.0002 13.0119C13.3398 13.0143 12.6854 12.8879 12.0748 12.6399C11.4642 12.392 10.9095 12.0274 10.4426 11.5673C9.97568 11.1071 9.60582 10.5604 9.35434 9.95875C9.10286 9.35708 8.97473 8.71232 8.97734 8.06163C8.97456 7.41089 9.10256 6.76606 9.35398 6.16431C9.6054 5.56256 9.97525 5.01582 10.4422 4.55562C10.9091 4.09541 11.464 3.73086 12.0746 3.48298C12.6853 3.2351 13.3397 3.1088 14.0002 3.11138ZM14.0002 17.3164C7.38115 17.3164 3.63477 18.5547 3.63477 22.0618C3.63477 25.5716 7.39825 26.8332 14.0002 26.8332L14.8476 26.8254C20.9363 26.7204 24.3655 25.4407 24.3655 22.0878C24.3655 18.6545 20.7652 17.3722 14.4278 17.319L14.0002 17.3164ZM14.0002 19.2613C19.5296 19.2613 22.3917 20.2207 22.3917 22.0878C22.3917 23.9431 19.5362 24.8883 14.0002 24.8883C8.47203 24.8883 5.60862 23.9289 5.60862 22.0618C5.60862 20.2544 8.31149 19.3131 13.5567 19.2639L14.0002 19.2613Z" fill="#4D5053"/>
</svg>
