<svg width="28" height="28" viewBox="0 0 28 28" fill="none" xmlns="http://www.w3.org/2000/svg">
<path fill-rule="evenodd" clip-rule="evenodd" d="M14.7187 2.3335H13.2777C12.4657 2.3335 11.6886 2.65084 11.1158 3.21434C10.6109 3.70935 10.2997 4.36852 10.2384 5.07284L10.2279 5.29917C10.2232 5.64998 10.0801 5.98472 9.82959 6.23039C9.57911 6.47605 9.24163 6.61269 8.89077 6.6105C8.71966 6.60777 8.5509 6.57006 8.39491 6.49967L8.23857 6.418C7.53734 6.03022 6.71279 5.93027 5.93921 6.13927C5.16563 6.34827 4.50363 6.84986 4.09313 7.538L3.33475 8.75834C2.9477 9.40953 2.82453 10.1841 2.9905 10.9232C3.15647 11.6624 3.599 12.3099 4.22731 12.7332L4.40815 12.8475C4.85385 13.0995 5.1082 13.5323 5.1082 14.0002C5.1082 14.4307 4.89351 14.8332 4.53299 15.077L4.41048 15.1528C3.75987 15.5219 3.27388 16.1245 3.05096 16.8385C2.82804 17.5525 2.88486 18.3245 3.20991 18.9982L3.30908 19.1848L4.05229 20.4425C4.45194 21.1382 5.11037 21.6477 5.88408 21.86C6.57946 22.0525 7.31917 22 7.97722 21.7095L8.1849 21.608C8.53492 21.4097 8.89544 21.363 9.23496 21.4517C9.57332 21.5403 9.8615 21.7585 10.0365 22.0572C10.1322 22.2158 10.1882 22.3792 10.2092 22.5495L10.2185 22.721C10.2174 24.3252 11.5871 25.6668 13.2777 25.6668H14.7187C16.3159 25.6668 17.6402 24.4652 17.7697 22.9147L17.779 22.7152C17.7749 22.5383 17.8065 22.3625 17.8719 22.1981C17.9373 22.0338 18.0352 21.8843 18.1597 21.7586C18.2842 21.633 18.4327 21.5337 18.5964 21.4667C18.7602 21.3997 18.9357 21.3664 19.1126 21.3688C19.2759 21.3735 19.4545 21.4132 19.6201 21.4855L19.7788 21.566C21.1182 22.3243 22.8742 21.9347 23.7784 20.6607L23.8951 20.4833L24.664 19.2268C24.8679 18.8872 25.0011 18.51 25.0557 18.1176C25.1102 17.7253 25.0849 17.326 24.9813 16.9437C24.7935 16.2594 24.3683 15.6644 23.7819 15.2648L23.5871 15.1423C23.4295 15.0579 23.2905 14.9426 23.1784 14.8033C23.0664 14.664 22.9835 14.5035 22.9349 14.3315C22.8899 14.1661 22.8786 13.9934 22.9019 13.8236C22.9252 13.6539 22.9824 13.4905 23.0702 13.3433C23.1682 13.1753 23.3 13.0353 23.4564 12.928L23.7562 12.7425C24.3492 12.3478 24.7799 11.7525 24.9693 11.0659C25.1588 10.3793 25.0943 9.64739 24.7876 9.0045L24.7211 8.875C24.7066 8.84087 24.6899 8.80774 24.671 8.77584L23.9558 7.559C23.16 6.20567 21.4391 5.68067 20.004 6.34217L19.8127 6.43784C19.499 6.62729 19.1231 6.68477 18.7672 6.59767C18.4284 6.51267 18.1369 6.29711 17.9564 5.998C17.8662 5.85016 17.8089 5.68463 17.7884 5.51267L17.7779 5.34117C17.8035 4.6085 17.492 3.82334 16.9145 3.24117C16.6264 2.95256 16.2841 2.72378 15.9072 2.568C15.5304 2.41223 15.1264 2.33253 14.7187 2.3335V2.3335ZM13.2777 4.02284H14.7187C15.0803 4.02284 15.4269 4.16517 15.6789 4.4195C15.9309 4.67267 16.0662 5.01567 16.0557 5.36917L16.0721 5.66434C16.1234 6.1135 16.2588 6.50434 16.4711 6.8555C16.8795 7.53684 17.5492 8.03384 18.3332 8.23217C19.1167 8.43182 19.9472 8.31797 20.648 7.91484L20.7694 7.85534L20.8977 7.804C21.1878 7.71301 21.5001 7.7226 21.7841 7.83122C22.0681 7.93985 22.307 8.14114 22.4623 8.4025L23.1449 9.56334L23.1589 9.596L23.2417 9.75234C23.5182 10.331 23.2884 11.0637 22.6898 11.4055L22.5032 11.5222C22.1041 11.7917 21.7996 12.1183 21.5779 12.4987C21.3769 12.8367 21.246 13.2116 21.1928 13.6012C21.1397 13.9909 21.1655 14.3872 21.2687 14.7667C21.4607 15.4672 21.9012 16.0739 22.5078 16.4735L22.8252 16.6695C23.0862 16.8568 23.2675 17.1353 23.3332 17.4498C23.3988 17.7643 23.3441 18.092 23.1799 18.3682L22.4285 19.5955L22.3433 19.7238C21.9956 20.2138 21.3096 20.3947 20.7309 20.1462L20.3622 19.9618C19.9772 19.7883 19.5616 19.6927 19.1394 19.6807C18.3225 19.6716 17.5352 19.9861 16.9495 20.5557C16.6656 20.8323 16.4403 21.163 16.2868 21.5284C16.1332 21.8937 16.0547 22.2862 16.0557 22.6825L16.0499 22.8108C15.9951 23.4525 15.4164 23.9775 14.7198 23.9775H13.2766C12.5882 23.9775 12.02 23.4665 11.9476 22.8108L11.9243 22.3978C11.854 21.7916 11.6018 21.2208 11.2009 20.7606C10.8 20.3004 10.2692 19.9723 9.67833 19.8195C8.89568 19.6146 8.06389 19.7243 7.36118 20.1252L7.234 20.1858C6.95457 20.3004 6.6447 20.3177 6.35428 20.2348C6.01451 20.1408 5.72586 19.9159 5.55156 19.6095L4.81651 18.3693L4.75117 18.2445C4.47349 17.6682 4.7045 16.9355 5.30188 16.5972L5.48389 16.4852C6.33794 15.9065 6.83264 14.986 6.83264 14.0002C6.83264 13.0003 6.32394 12.0717 5.48622 11.5163L5.18287 11.3273C4.91831 11.1408 4.73379 10.8613 4.66611 10.5448C4.59842 10.2282 4.65254 9.89777 4.81768 9.61934L5.57606 8.399C5.75542 8.09276 6.04764 7.86897 6.39007 7.77563C6.73249 7.68229 7.09787 7.72682 7.40785 7.89967L7.63303 8.01634C8.05305 8.20534 8.46375 8.29634 8.88144 8.29984C10.4985 8.29984 11.8216 7.083 11.9418 5.5325L11.957 5.17667C11.9803 4.90834 12.1157 4.6225 12.3362 4.4055C12.5858 4.1605 12.9242 4.02284 13.2766 4.02284H13.2777ZM14.0034 10.1875C11.8543 10.1875 10.1112 11.8943 10.1112 14.0002C10.1112 16.106 11.8543 17.8128 14.0034 17.8128C16.1526 17.8128 17.8957 16.106 17.8957 14.0002C17.8957 11.8943 16.1526 10.1875 14.0034 10.1875ZM14.0034 11.8768C15.2005 11.8768 16.1712 12.8277 16.1712 14.0002C16.1712 15.1727 15.2005 16.1235 14.0034 16.1235C12.8064 16.1235 11.8356 15.1727 11.8356 14.0002C11.8356 12.8277 12.8064 11.8768 14.0034 11.8768Z" fill="#4D5053"/>
</svg>
