<svg width="28" height="28" viewBox="0 0 28 28" fill="none" xmlns="http://www.w3.org/2000/svg">
<path fill-rule="evenodd" clip-rule="evenodd" d="M14.7177 2.33302H13.2768C12.4647 2.33302 11.6876 2.65035 11.1148 3.21385C10.61 3.70886 10.2988 4.36803 10.2374 5.07235L10.2269 5.29868C10.2223 5.64949 10.0791 5.98423 9.82862 6.2299C9.57813 6.47556 9.24065 6.6122 8.8898 6.61002C8.71868 6.60729 8.54993 6.56957 8.39393 6.49918L8.23759 6.41752C7.53636 6.02973 6.71182 5.92978 5.93824 6.13878C5.16465 6.34779 4.50265 6.84937 4.09215 7.53751L3.33377 8.75785C2.94672 9.40904 2.82355 10.1836 2.98952 10.9228C3.15549 11.6619 3.59802 12.3095 4.22633 12.7327L4.40717 12.847C4.85287 13.099 5.10722 13.5318 5.10722 13.9997C5.10722 14.4302 4.89254 14.8327 4.53202 15.0765L4.40951 15.1523C3.75889 15.5214 3.2729 16.124 3.04998 16.838C2.82706 17.552 2.88388 18.324 3.20893 18.9977L3.3081 19.1843L4.05132 20.442C4.45096 21.1377 5.10939 21.6472 5.8831 21.8595C6.57848 22.052 7.3182 21.9995 7.97624 21.709L8.18392 21.6075C8.53394 21.4092 8.89447 21.3625 9.23399 21.4512C9.57234 21.5398 9.86053 21.758 10.0355 22.0567C10.1312 22.2153 10.1872 22.3787 10.2082 22.549L10.2176 22.7205C10.2164 24.3247 11.5861 25.6663 13.2768 25.6663H14.7177C16.3149 25.6663 17.6392 24.4647 17.7687 22.9142L17.778 22.7147C17.774 22.5378 17.8056 22.362 17.871 22.1976C17.9364 22.0333 18.0342 21.8838 18.1587 21.7581C18.2832 21.6325 18.4317 21.5332 18.5955 21.4662C18.7592 21.3992 18.9347 21.3659 19.1116 21.3683C19.275 21.373 19.4535 21.4127 19.6192 21.485L19.7778 21.5655C21.1173 22.3238 22.8732 21.9342 23.7774 20.6602L23.8941 20.4828L24.663 19.2263C24.8669 18.8868 25.0001 18.5095 25.0547 18.1171C25.1092 17.7248 25.0839 17.3255 24.9803 16.9432C24.7925 16.259 24.3673 15.6639 23.7809 15.2643L23.5861 15.1418C23.4285 15.0574 23.2895 14.9421 23.1775 14.8028C23.0654 14.6635 22.9826 14.503 22.9339 14.331C22.8889 14.1657 22.8777 13.9929 22.9009 13.8231C22.9242 13.6534 22.9814 13.49 23.0692 13.3428C23.1672 13.1748 23.2991 13.0348 23.4554 12.9275L23.7553 12.742C24.3482 12.3473 24.7789 11.752 24.9684 11.0654C25.1578 10.3788 25.0933 9.6469 24.7867 9.00401L24.7202 8.87451C24.7057 8.84038 24.6889 8.80725 24.67 8.77535L23.9548 7.55852C23.1591 6.20518 21.4381 5.68018 20.003 6.34168L19.8117 6.43735C19.4981 6.62681 19.1222 6.68428 18.7663 6.59718C18.4274 6.51219 18.1359 6.29662 17.9554 5.99752C17.8652 5.84967 17.8079 5.68414 17.7874 5.51218L17.7769 5.34068C17.8025 4.60802 17.491 3.82285 16.9135 3.24068C16.6254 2.95207 16.2831 2.72329 15.9063 2.56752C15.5294 2.41174 15.1255 2.33204 14.7177 2.33302ZM14.0025 10.187C11.8533 10.187 10.1102 11.8938 10.1102 13.9997C10.1102 16.1055 11.8533 17.8123 14.0025 17.8123C16.1516 17.8123 17.8947 16.1055 17.8947 13.9997C17.8947 11.8938 16.1516 10.187 14.0025 10.187ZM14.0025 11.8763C15.1995 11.8763 16.1703 12.8272 16.1703 13.9997C16.1703 15.1722 15.1995 16.123 14.0025 16.123C12.8054 16.123 11.8347 15.1722 11.8347 13.9997C11.8347 12.8272 12.8054 11.8763 14.0025 11.8763Z" fill="#131416"/>
</svg>
