<svg width="28" height="28" viewBox="0 0 28 28" fill="none" xmlns="http://www.w3.org/2000/svg">
<path fill-rule="evenodd" clip-rule="evenodd" d="M18.8516 9.60501C18.8558 10.2524 18.7318 10.8942 18.4869 11.4935C18.2419 12.0928 17.8808 12.6377 17.4244 13.0968C16.968 13.556 16.4252 13.9203 15.8274 14.1687C15.2296 14.4172 14.5885 14.545 13.9411 14.5447C13.2936 14.5451 12.6524 14.4175 12.0545 14.1691C11.4565 13.9207 10.9136 13.5564 10.4571 13.0972C10.0005 12.6381 9.63933 12.0931 9.39431 11.4938C9.14929 10.8944 9.02529 10.2525 9.02945 9.60501C9.02529 8.95747 9.14934 8.31552 9.39444 7.71615C9.63954 7.11679 10.0009 6.57186 10.4575 6.11278C10.9142 5.65371 11.4573 5.28956 12.0554 5.04134C12.6534 4.79312 13.2947 4.66572 13.9423 4.66651C14.5897 4.66588 15.2309 4.79338 15.8288 5.04168C16.4268 5.28997 16.9697 5.65414 17.4263 6.1132C17.8828 6.57226 18.244 7.11713 18.4891 7.71642C18.7341 8.31572 18.8581 8.95757 18.8539 9.60501H18.8516ZM13.9423 23.3332C9.93945 23.3332 6.52228 22.6985 6.52228 20.1598C6.52228 17.62 9.91728 16.9632 13.9423 16.9632C17.9451 16.9632 21.3634 17.5978 21.3634 20.1365C21.3634 22.6752 17.9661 23.3332 13.9411 23.3332H13.9423ZM20.9516 9.69484C20.956 11.0413 20.556 12.3582 19.8036 13.4748C19.7861 13.5006 19.7754 13.5304 19.7725 13.5614C19.7697 13.5924 19.7747 13.6237 19.7872 13.6522C19.7996 13.6807 19.8191 13.7057 19.8438 13.7246C19.8685 13.7436 19.8976 13.756 19.9284 13.7607C20.1148 13.792 20.3031 13.8099 20.4919 13.8143C22.4088 13.8657 24.1296 12.6243 24.6044 10.7565C25.3091 7.98101 23.2418 5.49017 20.6086 5.49017C20.3228 5.49017 20.0486 5.52051 19.7826 5.57534C19.7464 5.58351 19.7079 5.59984 19.6869 5.63367C19.6613 5.67334 19.6799 5.72701 19.7056 5.76201C20.5195 6.91122 20.955 8.28547 20.9516 9.69367V9.69484ZM24.1261 15.765C25.4141 16.0182 26.2611 16.535 26.6123 17.2863C26.7587 17.5902 26.8348 17.9232 26.8348 18.2605C26.8348 18.5978 26.7587 18.9308 26.6123 19.2347C26.0756 20.399 24.3443 20.7735 23.6723 20.8703C23.5323 20.8913 23.4214 20.77 23.4354 20.63C23.7796 17.4018 21.0461 15.87 20.3391 15.5188C20.3088 15.5025 20.3018 15.4792 20.3041 15.464C20.3076 15.4535 20.3193 15.4372 20.3426 15.4337C21.8733 15.4057 23.5183 15.6157 24.1261 15.765V15.765ZM7.51161 13.8132C7.70295 13.8085 7.89078 13.791 8.07511 13.7595C8.10581 13.7547 8.13478 13.7422 8.15934 13.7231C8.1839 13.7041 8.20325 13.6791 8.21559 13.6506C8.22793 13.6221 8.23286 13.5909 8.22992 13.56C8.22698 13.5291 8.21627 13.4994 8.19878 13.4737C7.44636 12.357 7.04644 11.0402 7.05078 9.69367C7.05078 8.23534 7.50578 6.87501 8.29678 5.75967C8.32245 5.72467 8.33995 5.67217 8.31545 5.63134C8.29561 5.59984 8.25595 5.58234 8.21978 5.57301C7.94723 5.51702 7.66969 5.48887 7.39145 5.48901C4.76061 5.48901 2.69328 7.97984 3.39795 10.7553C3.87278 12.622 5.59361 13.8633 7.51045 13.8132H7.51161ZM7.69711 15.4628C7.70061 15.478 7.69361 15.5013 7.66445 15.5177C6.95628 15.87 4.22278 17.4007 4.56578 20.6277C4.58095 20.7688 4.47011 20.889 4.33128 20.8692C3.65811 20.7723 1.92795 20.3978 1.39128 19.2335C1.24431 18.9298 1.16797 18.5968 1.16797 18.2593C1.16797 17.9219 1.24431 17.5889 1.39128 17.2852C1.74128 16.5338 2.58828 16.017 3.87628 15.7627C4.48528 15.6145 6.12795 15.4045 7.66095 15.4325C7.68428 15.436 7.69595 15.4523 7.69595 15.4628H7.69711Z" fill="#131416"/>
</svg>
