<svg width="28" height="28" viewBox="0 0 28 28" fill="none" xmlns="http://www.w3.org/2000/svg">
<path fill-rule="evenodd" clip-rule="evenodd" d="M13.9956 3.73342C13.2894 3.73134 12.5898 3.87429 11.9369 4.15403C11.2841 4.43377 10.6909 4.8448 10.1916 5.36347C9.69219 5.88215 9.29647 6.49823 9.02713 7.17631C8.7578 7.85439 8.62018 8.58107 8.62218 9.31458C8.62002 10.0482 8.75753 10.775 9.0268 11.4532C9.29606 12.1314 9.69176 12.7477 10.1911 13.2665C10.6905 13.7853 11.2837 14.1964 11.9367 14.4762C12.5896 14.7561 13.2893 14.899 13.9956 14.897C14.702 14.899 15.4019 14.756 16.0549 14.4761C16.7079 14.1962 17.3011 13.785 17.8005 13.2661C18.2999 12.7471 18.6956 12.1307 18.9648 11.4524C19.234 10.774 19.3714 10.0471 19.3691 9.31337C19.3709 8.57996 19.2332 7.85341 18.9638 7.17547C18.6944 6.49753 18.2986 5.88159 17.7993 5.36305C17.2999 4.8445 16.7068 4.43358 16.0541 4.15391C15.4013 3.87425 14.7017 3.73134 13.9956 3.73342V3.73342ZM13.9956 5.55021C14.4721 5.54812 14.9443 5.64407 15.3849 5.83251C15.8256 6.02095 16.2259 6.29815 16.5629 6.64812C16.8998 6.99809 17.1667 7.4139 17.3481 7.87156C17.5295 8.32921 17.6219 8.81966 17.6199 9.31458C17.6221 9.80961 17.5298 10.3002 17.3484 10.758C17.1671 11.2158 16.9002 11.6317 16.5633 11.9818C16.2263 12.3319 15.8259 12.6092 15.3852 12.7978C14.9445 12.9863 14.4722 13.0823 13.9956 13.0802C13.5189 13.0823 13.0465 12.9862 12.6058 12.7976C12.165 12.6091 11.7645 12.3316 11.4276 11.9814C11.0906 11.6312 10.8238 11.2151 10.6425 10.7571C10.4612 10.2992 10.369 9.80851 10.3713 9.31337C10.3695 8.81855 10.462 8.32823 10.6435 7.87072C10.825 7.4132 11.0919 6.99754 11.4288 6.6477C11.7657 6.29785 12.166 6.02076 12.6066 5.8324C13.0471 5.64403 13.5192 5.54812 13.9956 5.55021V5.55021ZM7.40942 4.87194C7.64138 4.87194 7.86383 4.96765 8.02785 5.138C8.19186 5.30836 8.28401 5.53941 8.28401 5.78033C8.28401 6.02125 8.19186 6.25231 8.02785 6.42266C7.86383 6.59302 7.64138 6.68872 7.40942 6.68872C7.0754 6.68124 6.7433 6.74312 6.4326 6.87071C6.12191 6.99831 5.83887 7.18906 5.60009 7.43178C5.36131 7.6745 5.1716 7.9643 5.04208 8.28418C4.91257 8.60406 4.84585 8.94758 4.84585 9.2946C4.84585 9.64162 4.91257 9.98514 5.04208 10.305C5.1716 10.6249 5.36131 10.9147 5.60009 11.1574C5.83887 11.4001 6.12191 11.5909 6.4326 11.7185C6.7433 11.8461 7.0754 11.908 7.40942 11.9005C7.64138 11.9005 7.86383 11.9962 8.02785 12.1665C8.19186 12.3369 8.28401 12.5679 8.28401 12.8089C8.28401 13.0498 8.19186 13.2808 8.02785 13.4512C7.86383 13.6216 7.64138 13.7173 7.40942 13.7173C6.84431 13.727 6.283 13.6198 5.75819 13.4019C5.23339 13.184 4.75559 12.8597 4.35265 12.4481C3.94972 12.0364 3.6297 11.5456 3.41125 11.0042C3.19281 10.4628 3.08031 9.88163 3.08031 9.2946C3.08031 8.70757 3.19281 8.12641 3.41125 7.585C3.6297 7.04359 3.94972 6.55275 4.35265 6.14111C4.75559 5.72946 5.23339 5.40524 5.75819 5.18734C6.283 4.96944 6.84431 4.86223 7.40942 4.87194V4.87194ZM24.851 9.29521C24.851 8.12208 24.4023 6.99701 23.6036 6.16748C22.805 5.33796 21.7218 4.87194 20.5923 4.87194C20.3604 4.87194 20.1379 4.96765 19.9739 5.138C19.8099 5.30836 19.7177 5.53941 19.7177 5.78033C19.7177 6.02125 19.8099 6.25231 19.9739 6.42266C20.1379 6.59302 20.3604 6.68872 20.5923 6.68872C20.9264 6.68124 21.2585 6.74312 21.5691 6.87071C21.8798 6.99831 22.1629 7.18906 22.4017 7.43178C22.6404 7.6745 22.8302 7.9643 22.9597 8.28418C23.0892 8.60406 23.1559 8.94758 23.1559 9.2946C23.1559 9.64162 23.0892 9.98514 22.9597 10.305C22.8302 10.6249 22.6404 10.9147 22.4017 11.1574C22.1629 11.4001 21.8798 11.5909 21.5691 11.7185C21.2585 11.8461 20.9264 11.908 20.5923 11.9005C20.3604 11.9005 20.1379 11.9962 19.9739 12.1665C19.8099 12.3369 19.7177 12.5679 19.7177 12.8089C19.7177 13.0498 19.8099 13.2808 19.9739 13.4512C20.1379 13.6216 20.3604 13.7173 20.5923 13.7173C21.7216 13.7173 22.8046 13.2514 23.6032 12.4221C24.4019 11.5929 24.8507 10.4681 24.851 9.29521ZM23.9752 15.9858C23.4155 15.855 22.8173 15.7654 22.2086 15.7206C22.0939 15.7123 21.9789 15.7276 21.8699 15.7655C21.761 15.8034 21.6603 15.8632 21.5736 15.9416C21.3986 16.0998 21.2912 16.3237 21.2751 16.5642C21.259 16.8046 21.3355 17.0418 21.4879 17.2237C21.6402 17.4055 21.8558 17.517 22.0873 17.5337C22.6085 17.5701 23.1193 17.6476 23.6149 17.7638C24.3869 17.9213 24.8895 18.1817 25.0142 18.4542C25.0607 18.5563 25.0848 18.6677 25.0848 18.7806C25.0848 18.8935 25.0607 19.005 25.0142 19.1071C24.8906 19.3759 24.3915 19.6351 23.6312 19.7974C23.5187 19.8215 23.4118 19.8683 23.3166 19.9352C23.2215 20.0021 23.14 20.0879 23.0767 20.1875C23.0135 20.2871 22.9698 20.3988 22.9481 20.516C22.9264 20.6332 22.9271 20.7536 22.9502 20.8705C22.9733 20.9875 23.0184 21.0985 23.0828 21.1973C23.1473 21.2961 23.2298 21.3808 23.3258 21.4465C23.4217 21.5121 23.5292 21.5576 23.642 21.5801C23.7548 21.6027 23.8708 21.6019 23.9834 21.5779C25.2405 21.309 26.1617 20.8306 26.5931 19.8871C26.9138 19.1846 26.9138 18.3719 26.5931 17.6718C26.1582 16.7246 25.2218 16.239 23.9752 15.9858V15.9858ZM6.72608 16.5648C6.71823 16.4457 6.68787 16.3294 6.63674 16.2225C6.5856 16.1157 6.51469 16.0203 6.42805 15.9419C6.34142 15.8635 6.24075 15.8036 6.13182 15.7656C6.02289 15.7276 5.90782 15.7123 5.79319 15.7206C5.18448 15.7654 4.58626 15.8538 4.00204 15.9907L3.76182 16.044C2.65634 16.3056 1.81441 16.7876 1.4086 17.6718C1.24954 18.0179 1.16699 18.3965 1.16699 18.78C1.16699 19.1635 1.24954 19.5422 1.4086 19.8883C1.84006 20.8294 2.76129 21.309 4.01836 21.5779C4.13092 21.6019 4.24693 21.6027 4.35976 21.5801C4.4726 21.5576 4.58005 21.5121 4.67599 21.4465C4.77193 21.3808 4.85448 21.2961 4.91891 21.1973C4.98335 21.0985 5.02842 20.9875 5.05154 20.8705C5.07466 20.7536 5.07539 20.6332 5.05368 20.516C5.03197 20.3988 4.98825 20.2871 4.92501 20.1875C4.86178 20.0879 4.78026 20.0021 4.68512 19.9352C4.58998 19.8683 4.48308 19.8215 4.37053 19.7974C3.61022 19.6351 3.11113 19.3759 2.98869 19.1071C2.94169 19.005 2.9173 18.8932 2.9173 18.78C2.9173 18.6669 2.94169 18.5551 2.98869 18.453C3.11229 18.1817 3.61489 17.9201 4.36237 17.7687L4.75068 17.6863C5.139 17.6112 5.52265 17.5616 5.9133 17.5337C6.02793 17.5256 6.1399 17.494 6.2428 17.4409C6.3457 17.3878 6.43751 17.3142 6.51299 17.2242C6.58848 17.1342 6.64614 17.0296 6.68271 16.9165C6.71927 16.8033 6.73401 16.6838 6.72608 16.5648V16.5648ZM6.09988 20.3824C6.09988 17.4925 8.97784 16.4764 13.9945 16.4764L14.3513 16.4776C19.1592 16.5248 21.8902 17.5434 21.8902 20.3606C21.8902 23.1125 19.2781 24.1662 14.6976 24.2607L13.9956 24.2667C8.96618 24.2667 6.10104 23.2687 6.10104 20.3824H6.09988ZM20.141 20.3606C20.141 19.0162 18.0654 18.2919 13.9956 18.2919C9.92939 18.2919 7.85021 19.0271 7.85021 20.3824C7.85021 21.7269 9.92589 22.4499 13.9956 22.4499C18.0595 22.4499 20.141 21.7147 20.141 20.3606Z" fill="#4D5053"/>
</svg>
