<svg width="48" height="48" viewBox="0 0 48 48" fill="none" xmlns="http://www.w3.org/2000/svg">
<path d="M42 16.6C42 15 41.6 13.6 41.2 12.2C40.2 9.8 38.4 7.8 36 7C34.6 6.4 33.2 6.2 31.6 6.2C29.6 6 28.8 6 24 6C19.2 6 18.4 6 16.6 6.2C15 6.2 13.6 6.6 12.2 7C9.8 7.8 7.8 9.8 7 12.2C6.4 13.6 6.2 15.2 6 16.6C6 18.6 6 19.2 6 24C6 29 6 29.6 6 31.4C6 33 6.4 34.4 6.8 35.8C7.8 38.2 9.6 40.2 12 41C13.6 41.6 15 42 16.6 42C18.4 42 19.2 42 24 42C28.8 42 29.6 42 31.4 41.8C33 41.8 34.4 41.4 35.8 41C38.2 40 40.2 38.2 41 35.8C41.6 34.4 41.8 33 41.8 31.4C41.8 29.4 42 28.8 42 24C42 19.2 42 18.6 42 16.6ZM28.8 24H25.8V35.2H21.6V24H18.8V20.2H21.6V17.8C21.6 14.6 22.4 12.8 26.2 12.8H29.2V16.6H27.2C25.8 16.6 25.6 17.2 25.6 18.2V20.2H29L28.8 24Z" fill="#926BB7"/>
</svg>
