<svg width="48" height="48" viewBox="0 0 48 48" fill="none" xmlns="http://www.w3.org/2000/svg">
<path d="M33.3916 34.959H30.0392L14.6084 13.0452H17.9607L33.3916 34.959Z" fill="#926BB7"/>
<path fill-rule="evenodd" clip-rule="evenodd" d="M41.2 12.2C41.6 13.6 42 15 42 16.6V24C42 26.9171 41.9261 28.2829 41.8682 29.3546C41.8308 30.0463 41.8 30.6154 41.8 31.4C41.8 33 41.6 34.4 41 35.8C40.2 38.2 38.2 40 35.8 41C34.4 41.4 33 41.8 31.4 41.8C29.6 42 28.8 42 24 42H16.6C15 42 13.6 41.6 12 41C9.6 40.2 7.8 38.2 6.8 35.8C6.4 34.4 6 33 6 31.4V16.6C6.0124 16.5132 6.02481 16.4256 6.03731 16.3373C6.22635 15.0023 6.43721 13.5132 7 12.2C7.8 9.8 9.8 7.8 12.2 7C13.6 6.6 15 6.2 16.6 6.2C18.4 6 19.2 6 24 6C28.8 6 29.6 6 31.6 6.2C33.2 6.2 34.6 6.4 36 7C38.4 7.8 40.2 9.8 41.2 12.2ZM28.7464 35.9864L22.3473 26.6733L14.3355 35.9864H12.2648L21.4278 25.3357L12.2648 12H19.2536L25.3132 20.8189L32.8998 12H34.9704L26.2329 22.1568L35.7352 35.9864H28.7464Z" fill="#926BB7"/>
</svg>
