<svg width="48" height="48" viewBox="0 0 48 48" fill="none" xmlns="http://www.w3.org/2000/svg">
<path d="M41.9 16.605C41.8798 15.0903 41.5963 13.5906 41.062 12.173C40.5987 10.9773 39.8911 9.89143 38.9843 8.98469C38.0776 8.07796 36.9917 7.37033 35.796 6.90703C34.3967 6.38175 32.9184 6.09771 31.424 6.06703C29.5 5.98103 28.89 5.95703 24.006 5.95703C19.122 5.95703 18.496 5.95703 16.586 6.06703C15.0923 6.09794 13.6147 6.38197 12.216 6.90703C11.0201 7.37001 9.93404 8.07752 9.02727 8.9843C8.12049 9.89107 7.41298 10.9771 6.95 12.173C6.42366 13.5713 6.14025 15.0493 6.112 16.543C6.026 18.469 6 19.079 6 23.963C6 28.847 6 29.471 6.112 31.383C6.142 32.879 6.424 34.355 6.95 35.757C7.41376 36.9526 8.12179 38.0382 9.02887 38.9446C9.93595 39.851 11.0221 40.5582 12.218 41.021C13.6129 41.5674 15.0907 41.8718 16.588 41.921C18.514 42.007 19.124 42.033 24.008 42.033C28.892 42.033 29.518 42.033 31.428 41.921C32.9223 41.8916 34.4007 41.6082 35.8 41.083C36.9954 40.6192 38.081 39.9114 38.9877 39.0047C39.8944 38.0981 40.6022 37.0124 41.066 35.817C41.592 34.417 41.874 32.941 41.904 31.443C41.99 29.519 42.016 28.909 42.016 24.023C42.012 19.139 42.012 18.519 41.9 16.605ZM23.994 33.199C18.886 33.199 14.748 29.061 14.748 23.953C14.748 18.845 18.886 14.707 23.994 14.707C26.4462 14.707 28.7979 15.6812 30.5319 17.4151C32.2659 19.1491 33.24 21.5008 33.24 23.953C33.24 26.4052 32.2659 28.757 30.5319 30.4909C28.7979 32.2249 26.4462 33.199 23.994 33.199ZM33.608 16.521C33.3248 16.5213 33.0443 16.4657 32.7826 16.3575C32.5209 16.2492 32.2831 16.0904 32.0829 15.8901C31.8826 15.6899 31.7238 15.4521 31.6156 15.1904C31.5073 14.9287 31.4517 14.6482 31.452 14.365C31.452 14.082 31.5077 13.8018 31.616 13.5403C31.7243 13.2789 31.8831 13.0413 32.0832 12.8412C32.2833 12.6411 32.5209 12.4824 32.7823 12.3741C33.0438 12.2658 33.324 12.21 33.607 12.21C33.89 12.21 34.1702 12.2658 34.4317 12.3741C34.6931 12.4824 34.9307 12.6411 35.1308 12.8412C35.3309 13.0413 35.4897 13.2789 35.598 13.5403C35.7063 13.8018 35.762 14.082 35.762 14.365C35.762 15.557 34.798 16.521 33.608 16.521Z" fill="#926BB7"/>
<path d="M23.9939 29.9586C27.311 29.9586 29.9999 27.2696 29.9999 23.9526C29.9999 20.6356 27.311 17.9466 23.9939 17.9466C20.6769 17.9466 17.9879 20.6356 17.9879 23.9526C17.9879 27.2696 20.6769 29.9586 23.9939 29.9586Z" fill="#926BB7"/>
</svg>
