<svg width="48" height="48" viewBox="0 0 48 48" fill="none" xmlns="http://www.w3.org/2000/svg">
<path d="M24 6C28.7997 6 29.5999 6.00023 31.5996 6.2002C33.1996 6.2002 34.6 6.4 36 7C38.4 7.8 40.2002 9.8002 41.2002 12.2002C41.6001 13.6 41.9999 14.9999 42 16.5996V24C42 26.917 41.9261 28.2829 41.8682 29.3545C41.8308 30.0462 41.7998 30.6158 41.7998 31.4004C41.7998 33.0002 41.5999 34.4 41 35.7998C40.2 38.1998 38.1998 40 35.7998 41C34.4 41.4 33.0002 41.7997 31.4004 41.7998C29.6004 41.9998 28.8 42 24 42H16.5996C14.9998 41.9999 13.5999 41.5999 12 41C9.6 40.2 7.7998 38.1998 6.7998 35.7998C6.39986 34.4 6.00007 33.0001 6 31.4004V16.5996C6.01239 16.5129 6.02463 16.4251 6.03711 16.3369C6.22613 15.0021 6.43731 13.5132 7 12.2002C7.8 9.8002 9.8002 7.8 12.2002 7C13.6 6.60005 14.9998 6.20026 16.5996 6.2002C18.3996 6.0002 19.2 6 24 6ZM24.4932 22.9492L24.4893 28.29C24.4892 29.7178 23.5593 30.9287 22.2705 31.3545C21.8966 31.478 21.4927 31.5357 21.0723 31.5127C20.5354 31.4832 20.032 31.3212 19.5947 31.0596C18.6642 30.503 18.0328 29.4938 18.0156 28.3389C17.9887 26.5337 19.4481 25.0617 21.252 25.0615C21.608 25.0615 21.9503 25.12 22.2705 25.2256V21.6025C21.9328 21.5525 21.5888 21.5264 21.2412 21.5264C19.267 21.5264 17.4206 22.3469 16.1006 23.8252C15.1029 24.9426 14.5035 26.3685 14.4111 27.8633C14.2902 29.8269 15.009 31.694 16.4023 33.0713C16.6071 33.2735 16.823 33.4616 17.0479 33.6348C18.2425 34.5541 19.7029 35.0527 21.2412 35.0527C21.5888 35.0527 21.9328 35.0266 22.2705 34.9766C23.7077 34.7637 25.0336 34.1058 26.0801 33.0713C27.3659 31.8004 28.0763 30.1132 28.084 28.3174L28.0654 20.3428C28.6789 20.816 29.3504 21.2078 30.0703 21.5117C31.1897 21.9839 32.3771 22.2231 33.5986 22.2227V18.6699C33.5995 18.6708 33.5887 18.6709 33.5879 18.6709C32.3389 18.6708 31.1862 18.2576 30.2607 17.5596C29.1994 16.7594 28.4374 15.5852 28.168 14.2324C28.1013 13.8981 28.0649 13.5527 28.0615 13.1992H24.4932V22.9492Z" fill="#926BB7"/>
</svg>
