<svg width="48" height="48" viewBox="0 0 48 48" fill="none" xmlns="http://www.w3.org/2000/svg">
<path d="M24 6C28.7997 6 29.5999 6.00023 31.5996 6.2002C33.1996 6.2002 34.6 6.4 36 7C38.4 7.8 40.2002 9.8002 41.2002 12.2002C41.6001 13.6 41.9999 14.9999 42 16.5996V24C42 26.917 41.9261 28.2829 41.8682 29.3545C41.8308 30.0462 41.7998 30.6158 41.7998 31.4004C41.7998 33.0002 41.5999 34.4 41 35.7998C40.2 38.1998 38.1998 40 35.7998 41C34.4 41.4 33.0002 41.7997 31.4004 41.7998C29.6004 41.9998 28.8 42 24 42H16.5996C14.9998 41.9999 13.5999 41.5999 12 41C9.6 40.2 7.7998 38.1998 6.7998 35.7998C6.39986 34.4 6.00007 33.0001 6 31.4004V16.5996C6.01239 16.5129 6.02463 16.4251 6.03711 16.3369C6.22613 15.0021 6.43731 13.5132 7 12.2002C7.8 9.8002 9.8002 7.8 12.2002 7C13.6 6.60005 14.9998 6.20026 16.5996 6.2002C18.3996 6.0002 19.2 6 24 6ZM34.2539 14.3174C33.6148 13.0262 31.7405 12.8231 30.9619 13.8672L30.6357 14.3154C29.8246 13.9749 29.0748 14.0011 28.2305 13.8262C27.6062 13.6966 26.9884 13.362 26.3555 13.3369C25.3982 13.2994 25.5122 13.8931 25.2861 14.6367C25.0233 15.5023 24.9851 16.3479 24.8066 17.2109C24.6849 17.7994 24.5295 18.6448 24.2764 19.2871L24.0254 20.3076C22.8966 20.229 21.5774 20.469 20.4854 20.6836C19.3704 20.903 18.0979 21.3833 17.3467 22.2646L16.8164 22.7539C16.2662 22.4099 15.8137 22.1548 15.1855 21.9893C13.5811 21.5661 12.693 22.6208 12.0381 23.9268C11.7374 24.5259 11.8407 25.2671 12.168 25.8613C12.351 26.192 13.1602 27.1073 13.3926 27.2373C13.3926 27.4699 13.5071 28.3052 13.5625 28.5391C13.7358 29.2693 13.865 30.0102 14.1816 30.6963C14.5672 31.5329 15.1302 32.2695 15.8125 32.8857C17.3014 34.2314 19.2775 35.1458 21.2285 35.5703C22.496 35.846 23.9166 35.8604 25.208 35.833C26.0661 35.8146 26.9581 35.7797 27.7959 35.5723C28.042 35.5117 28.2827 35.4277 28.5166 35.3291L28.9238 35.1855C29.4947 34.9005 30.1926 34.6975 30.7695 34.3789C31.3261 34.071 31.9379 33.8086 32.4727 33.4736C33.1092 33.0755 33.7346 32.3095 34.2197 31.748C35.2918 30.5062 35.5877 28.7803 35.5684 27.2373L36.0166 26.9111C36.019 26.9545 36.4499 26.5157 36.5781 26.3389C37.3744 25.2381 37.2846 23.5944 36.2178 22.7637C35.2203 21.9875 33.8862 21.667 32.7969 22.4268L32.4697 22.7129C32.0023 22.2139 31.1622 22.0749 30.584 21.7334C29.9778 21.3753 29.3192 21.1664 28.6699 20.9287C28.1725 20.7467 27.6556 20.5435 27.1309 20.4707C26.6476 20.404 25.2642 20.3492 25.25 20.3486C25.2951 19.9518 25.4666 19.1567 25.542 18.7979C25.6389 18.3386 25.7005 17.8897 25.8164 17.4453C26.059 16.5153 26.1999 15.553 26.4834 14.6475C27.1805 14.7534 27.8298 14.8066 28.5166 14.9258C29.0678 15.0218 30.0058 15.0892 30.4316 15.457L30.5947 16.1084C30.7477 16.7687 31.4273 17.2707 32.1826 17.3311C33.7234 17.4538 34.9618 15.749 34.2539 14.3174ZM28.208 31.4365C28.4119 31.269 28.6344 30.9553 28.9346 31.0918C29.1565 31.1923 29.2826 31.466 29.2275 31.6992C29.0944 32.2608 28.1657 32.4701 27.7197 32.6533C26.9099 32.9864 26.2124 33.2265 25.1074 33.1885C24.3164 33.1618 23.5093 33.2688 22.7256 33.1396C22.2038 33.053 21.7258 32.9398 21.2314 32.7354C20.8326 32.5704 20.396 32.2176 20.0371 31.9248C19.752 31.6929 19.6008 31.1782 20.0771 31.0889C20.4486 31.0193 20.6213 31.2295 20.8574 31.4502C21.3103 31.8754 22.0323 32.0915 22.625 32.1895C23.3672 32.3128 24.1242 32.3418 24.8877 32.373C25.3283 32.3914 25.7214 32.3261 26.1514 32.2314C26.5597 32.1413 27.0073 32.0264 27.4756 31.8477C27.742 31.7462 27.9874 31.6182 28.208 31.4365ZM28.3965 24.7852C29.3242 24.6885 30.2115 25.0387 30.6104 25.9268C30.8297 26.4135 30.773 26.9107 30.6416 27.4199C30.5054 27.9461 30.0774 28.1993 29.5957 28.4463C27.9531 29.2893 26.2058 26.9369 27.2725 25.5127C27.5218 25.1801 27.9901 24.8279 28.3965 24.7852ZM20.4043 24.7715C20.9363 24.8167 21.344 25.1068 21.7256 25.4688C22.1203 25.8427 22.1336 26.3401 22.1162 26.8809C22.0575 28.7261 19.1515 29.1138 18.4238 27.4902C18.2529 27.1105 18.1722 26.5304 18.332 26.1543C18.6977 25.2961 19.4343 24.6903 20.4043 24.7715Z" fill="#926BB7"/>
</svg>
