<svg width="48" height="48" viewBox="0 0 48 48" fill="none" xmlns="http://www.w3.org/2000/svg">
<path d="M24 6C28.7997 6 29.5999 6.00023 31.5996 6.2002C33.1996 6.2002 34.6 6.4 36 7C38.4 7.8 40.2002 9.8002 41.2002 12.2002C41.6001 13.6 41.9999 14.9999 42 16.5996V24C42 28.8 41.7998 29.4004 41.7998 31.4004C41.7998 33.0002 41.5999 34.4 41 35.7998C40.2 38.1998 38.1998 40 35.7998 41C34.4 41.4 33.0002 41.7997 31.4004 41.7998C29.6004 41.9998 28.8 42 24 42H16.5996C14.9998 41.9999 13.5999 41.6 12 41C9.6 40.2 7.7998 38.1998 6.7998 35.7998C6.39986 34.4 6.00007 33.0001 6 31.4004V16.5996C6.19997 15.1998 6.40011 13.6 7 12.2002C7.8 9.8002 9.8002 7.8 12.2002 7C13.6 6.60005 14.9998 6.20026 16.5996 6.2002C18.3996 6.0002 19.2 6 24 6ZM34.2266 17.3555C34.375 15.9978 33.6747 14.2799 31.2988 15.3193C28.6109 16.7587 25.3322 20.0985 23.7793 23.2949C22.2264 20.0983 18.9468 16.7586 16.2588 15.3193C13.8829 14.2799 13.1826 15.9978 13.3311 17.3555C13.43 18.7908 13.6711 21.8522 13.8408 22.6162C14.053 23.5708 15.3467 26.0107 19.3984 25.7773C18.0762 25.8693 15.3681 26.4815 15.1133 28.1953C14.7951 30.3379 18.1049 33.0113 18.8262 33.2871C18.8463 33.2948 18.8673 33.3023 18.8887 33.3105C19.6329 33.5978 21.1122 34.1691 22.4316 31.6748C23.3981 29.8476 23.7202 28.6573 23.7793 28.1582C23.8384 28.6573 24.1595 29.8476 25.126 31.6748C26.4455 34.1694 27.9257 33.5978 28.6699 33.3105C28.6913 33.3023 28.7123 33.2948 28.7324 33.2871C29.4537 33.0113 32.7625 30.3379 32.4443 28.1953C32.1895 26.4817 29.4825 25.8694 28.1602 25.7773C32.2116 26.0105 33.5056 23.5708 33.7178 22.6162C33.8875 21.8521 34.1276 18.7908 34.2266 17.3555Z" fill="#926BB7"/>
</svg>
