<svg width="48" height="48" viewBox="0 0 48 48" fill="none" xmlns="http://www.w3.org/2000/svg">
<path d="M24 6C28.7997 6 29.5999 6.00023 31.5996 6.2002C33.1996 6.2002 34.6 6.4 36 7C38.4 7.8 40.2002 9.8002 41.2002 12.2002C41.6001 13.6 41.9999 14.9999 42 16.5996V24C42 28.8 41.7998 29.4004 41.7998 31.4004C41.7998 33.0002 41.5999 34.4 41 35.7998C40.2 38.1998 38.1998 40 35.7998 41C34.4 41.4 33.0002 41.7997 31.4004 41.7998C29.6004 41.9998 28.8 42 24 42H16.5996C14.9998 41.9999 13.5999 41.6 12 41C9.6 40.2 7.7998 38.1998 6.7998 35.7998C6.39986 34.4 6.00007 33.0001 6 31.4004V16.5996C6.19997 15.1998 6.40011 13.6 7 12.2002C7.8 9.8002 9.8002 7.8 12.2002 7C13.6 6.60005 14.9998 6.20026 16.5996 6.2002C18.3996 6.0002 19.2 6 24 6ZM34.7344 16.7666C35.0377 15.351 34.2203 14.7839 33.2842 15.1221L13.1133 22.8994C11.7311 23.4398 11.7561 24.2049 12.877 24.5605L18.04 26.1719L30.0186 18.6299C30.5747 18.2603 31.0908 18.4695 30.6689 18.8408L20.9766 27.5977L20.6045 32.9199C21.1447 32.9199 21.3804 32.6851 21.6592 32.4062L24.1826 29.9756L29.4121 33.8301C30.3657 34.3705 31.0472 34.0915 31.3018 32.9443L34.7363 16.7646L34.7344 16.7666Z" fill="#926BB7"/>
</svg>
