<svg width="24" height="24" viewBox="0 0 24 24" fill="none" xmlns="http://www.w3.org/2000/svg">
<path d="M20.4615 5.51914H19.26C19.4902 5.08501 19.6121 4.6018 19.6154 4.11055C19.6161 3.47127 19.4187 2.84744 19.0501 2.32476C18.6816 1.80207 18.1601 1.40617 17.5573 1.19142C16.9544 0.976672 16.2998 0.953616 15.6833 1.12542C15.0668 1.29722 14.5187 1.65546 14.1143 2.15092C14.0838 2.19487 12.8157 3.87391 12 4.95796C11.1832 3.87278 9.91395 2.18698 9.87785 2.14078C9.47205 1.64773 8.92358 1.29203 8.30755 1.12238C7.69152 0.952733 7.03804 0.977432 6.43661 1.19309C5.83517 1.40876 5.31519 1.80484 4.94785 2.32711C4.58051 2.84937 4.38379 3.47229 4.38462 4.11055C4.38788 4.6018 4.50979 5.08501 4.74 5.51914H3.53846C2.86549 5.52004 2.22035 5.78745 1.74449 6.26275C1.26863 6.73805 1.0009 7.38243 1 8.05461V11.9987C1 12.2228 1.08915 12.4378 1.24783 12.5963C1.40652 12.7548 1.62174 12.8438 1.84615 12.8438H2.12821V18.7599C2.06195 19.3308 2.12581 19.9094 2.315 20.4522C2.50419 20.995 2.81382 21.488 3.22072 21.8945C3.62761 22.3009 4.12125 22.6101 4.66471 22.7991C5.20816 22.9881 5.78736 23.0519 6.35897 22.9857H17.641C18.2126 23.0519 18.7918 22.9881 19.3353 22.7991C19.8787 22.6101 20.3724 22.3009 20.7793 21.8945C21.1862 21.488 21.4958 20.995 21.685 20.4522C21.8742 19.9094 21.938 19.3308 21.8718 18.7599V12.8438H22.1538C22.3783 12.8438 22.5935 12.7548 22.7522 12.5963C22.9109 12.4378 23 12.2228 23 11.9987V8.05461C22.9991 7.38243 22.7314 6.73805 22.2555 6.26275C21.7797 5.78745 21.1345 5.52004 20.4615 5.51914ZM21.3077 8.05461V11.1535H12.8462V7.20945H20.4615C20.6859 7.20975 20.9009 7.29889 21.0595 7.45732C21.2181 7.61575 21.3074 7.83055 21.3077 8.05461ZM15.4286 3.21694C15.5588 3.05507 15.724 2.92467 15.9117 2.8355C16.0994 2.74632 16.3049 2.70067 16.5128 2.70196C16.8868 2.70196 17.2456 2.85036 17.51 3.11453C17.7745 3.37869 17.9231 3.73697 17.9231 4.11055C17.9231 4.48413 17.7745 4.84241 17.51 5.10658C17.2456 5.37074 16.8868 5.51914 16.5128 5.51914H13.6923C14.4561 4.50721 15.3756 3.28568 15.4286 3.21694ZM6.07692 4.11055C6.07752 3.73715 6.22629 3.37922 6.49064 3.11518C6.75498 2.85115 7.11334 2.70256 7.48718 2.70196C7.69127 2.69989 7.89325 2.74344 8.07831 2.82943C8.26337 2.91541 8.42683 3.04166 8.55672 3.19891C8.61539 3.27892 9.54164 4.50496 10.3077 5.51914H7.48718C7.11334 5.51855 6.75498 5.36995 6.49064 5.10592C6.22629 4.84188 6.07752 4.48395 6.07692 4.11055ZM2.69231 8.05461C2.69261 7.83055 2.78185 7.61575 2.94047 7.45732C3.09909 7.29889 3.31414 7.20975 3.53846 7.20945H11.1538V11.1535H2.69231V8.05461ZM3.82051 18.7599V12.8438H11.1538V21.2954H6.35897C4.5798 21.2954 3.82051 20.537 3.82051 18.7599ZM20.1795 18.7599C20.1795 20.537 19.4202 21.2954 17.641 21.2954H12.8462V12.8438H20.1795V18.7599Z" fill="white"/>
</svg>
