<svg width="24" height="24" viewBox="0 0 24 24" fill="none" xmlns="http://www.w3.org/2000/svg">
<path fill-rule="evenodd" clip-rule="evenodd" d="M7.70729 12C7.70729 14.3996 9.6279 16.3538 11.9995 16.3538C14.3601 16.3538 16.2818 14.3996 16.2818 12C16.2792 10.8407 15.8267 9.72993 15.0237 8.91167C14.2208 8.09341 13.133 7.63463 11.9995 7.63613C9.6279 7.63613 7.70729 9.58913 7.70729 12ZM18.3102 5.30175C20.1879 6.78562 21.7862 8.95687 22.9357 11.6726C22.9781 11.7743 23 11.8838 23 11.9944C23 12.105 22.9781 12.2144 22.9357 12.3161C20.6389 17.7499 16.5502 21 11.9995 21H11.9885C7.44879 21 3.36009 17.7487 1.06438 12.3161C1.0219 12.2144 1 12.105 1 11.9944C1 11.8838 1.0219 11.7743 1.06438 11.6726C3.36009 6.24 7.44879 3 11.9885 3H11.9995C14.2743 3 16.4325 3.80775 18.3102 5.30175ZM11.9995 14.7135C12.7056 14.7141 13.3831 14.4288 13.884 13.9198C14.3849 13.4109 14.6684 12.7198 14.6725 11.9978C14.6708 11.2739 14.3884 10.5803 13.8873 10.0691C13.3862 9.55784 12.7073 9.27075 11.9995 9.27075C11.8708 9.27075 11.7421 9.282 11.6244 9.30337C11.6025 9.88466 11.3609 10.4346 10.9506 10.8374C10.5403 11.2403 9.99319 11.4647 9.4244 11.4634H9.3694C9.3386 11.6377 9.3166 11.8121 9.3166 11.9978C9.3166 13.4917 10.5189 14.7135 12.0006 14.7135H11.9995Z" fill="#884DFF"/>
</svg>
