<svg width="24" height="24" viewBox="0 0 24 24" fill="none" xmlns="http://www.w3.org/2000/svg">
<path fill-rule="evenodd" clip-rule="evenodd" d="M2.9737 18.0511L3.37761 20.6894C3.41894 20.878 3.51673 21.0466 3.65548 21.1664C3.79432 21.286 3.96615 21.3506 4.14247 21.3497H19.8579C20.0343 21.3506 20.2061 21.286 20.3449 21.1664C20.4837 21.0466 20.5815 20.878 20.6228 20.6894L21.0267 18.0511H2.9737ZM11.9716 2.65072C11.8474 2.65567 11.725 2.69192 11.6163 2.75814C11.5079 2.82435 11.4152 2.91877 11.3456 3.03172L7.03863 10.0415L2.17589 7.02647C2.04301 6.944 1.89135 6.90499 1.73903 6.91475C1.58678 6.92454 1.43974 6.98207 1.3165 7.0809C1.06647 7.28331 0.950184 7.62782 1.02001 7.95748L2.61132 15.851H21.3891L22.9804 7.95748C23.0514 7.61726 22.9261 7.26289 22.661 7.06371C22.5311 6.96701 22.3781 6.91482 22.2213 6.91332C22.0645 6.91195 21.91 6.96081 21.7787 7.05512L17.6722 10.0258L12.6204 2.98015C12.466 2.76355 12.2264 2.6393 11.9716 2.65072Z" fill="white"/>
</svg>
