<svg width="24" height="24" viewBox="0 0 24 24" fill="none" xmlns="http://www.w3.org/2000/svg">
<path d="M18.0631 7.61048H15.8614C15.4162 7.61048 15.0548 7.97132 15.0548 8.41713C15.0548 8.86294 15.4162 9.22378 15.8614 9.22378H18.0636C18.5083 9.22378 18.8702 9.58569 18.8702 10.0304V20.5792C18.8702 21.024 18.5083 21.3859 18.0636 21.3859H5.93752C5.49279 21.3859 5.13087 21.024 5.13087 20.5792V10.0304C5.13087 9.58569 5.49279 9.22378 5.93752 9.22378H8.13967C8.58548 9.22378 8.94632 8.86294 8.94632 8.41713C8.94632 7.97132 8.58548 7.61048 8.13967 7.61048H5.93752C4.60333 7.61048 3.51758 8.69623 3.51758 10.0304V20.5792C3.51758 21.9134 4.60333 22.9992 5.93752 22.9992H18.0636C19.3978 22.9992 20.4835 21.9134 20.4835 20.5792V10.0304C20.483 8.69569 19.3978 7.61048 18.0631 7.61048ZM8.99257 5.98213L11.2205 3.75417V14.374C11.2205 14.8192 11.5814 15.1806 12.0272 15.1806C12.473 15.1806 12.8338 14.8192 12.8338 14.374V3.75417L15.0618 5.98213C15.2194 6.13969 15.4259 6.21821 15.6324 6.21821C15.8389 6.21821 16.0454 6.13969 16.2029 5.98213C16.5181 5.66753 16.5181 5.15612 16.2029 4.84153L12.5983 1.23635C12.2826 0.921217 11.7723 0.921217 11.4571 1.23635L7.85197 4.84153C7.53684 5.15612 7.53684 5.66753 7.85197 5.98213C8.1671 6.29726 8.67744 6.29726 8.99257 5.98213Z" fill="#131416"/>
</svg>
